<?xml version="1.0" encoding="utf-8"?>
<!-- Generator: Adobe Illustrator 26.0.1, SVG Export Plug-In . SVG Version: 6.00 Build 0)  -->
<svg version="1.1" id="Layer_1" xmlns:v="https://vecta.io/nano"
	 xmlns="http://www.w3.org/2000/svg" xmlns:xlink="http://www.w3.org/1999/xlink" x="0px" y="0px" viewBox="0 0 73.6 22.2"
	 style="enable-background:new 0 0 73.6 22.2;" xml:space="preserve">
<style type="text/css">
	.st0{fill-rule:evenodd;clip-rule:evenodd;fill:#FFFFFF;}
</style>
<g>
	<path class="st0" d="M45.6,17.3c-4.7,3.2-10.2,4.8-15.8,4.8c-7.1,0-14-2.6-19.3-7.4c-0.4-0.4,0-0.9,0.4-0.6
		c5.9,3.4,12.5,5.1,19.3,5.1c5.1,0,10.1-1,14.7-3C45.7,16,46.3,16.8,45.6,17.3 M47.4,15.3c-0.5-0.7-3.6-0.3-5-0.2
		c-0.4,0-0.5-0.3-0.1-0.6c2.4-1.7,6.5-1.2,6.9-0.6s-0.1,4.6-2.4,6.5c-0.3,0.3-0.7,0.1-0.5-0.2C46.8,18.9,48,16,47.4,15.3"/>
	<path class="st0" d="M42.5,2.4V0.8c0-0.2,0.2-0.4,0.4-0.4l0,0h7.5c0.2,0,0.4,0.2,0.4,0.4l0,0v1.5c-0.1,0.4-0.3,0.7-0.6,1l-3.9,5.6
		c1.5-0.1,3,0.2,4.3,0.9c0.2,0.1,0.4,0.4,0.4,0.6v1.8c0,0.2-0.3,0.5-0.5,0.4c-2.5-1.3-5.4-1.3-7.9,0c-0.3,0.1-0.5-0.1-0.5-0.4v-1.7
		c0-0.4,0.1-0.8,0.3-1.1L46.9,3H43C42.8,2.9,42.6,2.7,42.5,2.4C42.6,2.5,42.6,2.5,42.5,2.4L42.5,2.4 M15.2,12.8H13
		c-0.2,0-0.4-0.2-0.4-0.4V0.8c0-0.2,0.2-0.4,0.4-0.4h2.1c0.2,0,0.4,0.2,0.4,0.4v1.5h0.1c0.5-1.6,2.3-2.5,3.9-2c0.9,0.3,1.7,1.1,2,2
		c0.7-1.7,2.6-2.6,4.3-1.9c0.6,0.2,1,0.5,1.4,1c0.7,1,0.6,2.4,0.6,3.7v7.4c0,0.2-0.2,0.4-0.4,0.4l0,0h-2.3c-0.2,0-0.4-0.2-0.4-0.4
		V6.2c0-0.7,0-1.5-0.1-2.2c0-0.6-0.6-1-1.3-1c-0.6,0-1.1,0.4-1.3,1c-0.2,0.7-0.3,1.5-0.2,2.2v6.2c0,0.2-0.2,0.4-0.4,0.4h-2.3
		c-0.2,0-0.4-0.2-0.4-0.4V6.2c0-1.3,0.2-3.2-1.4-3.2s-1.6,1.9-1.6,3.2v6.2C15.7,12.7,15.5,12.9,15.2,12.8L15.2,12.8 M57.3,0.1
		c3.4,0,5.2,2.9,5.2,6.6s-2,6.4-5.2,6.4s-5.1-2.9-5.1-6.5S54,0.1,57.3,0.1 M57.3,2.5c-1.7,0-1.8,2.3-1.8,3.7s0,4.5,1.8,4.5
		s1.8-2.5,1.8-4c0-1-0.1-2.1-0.3-3.1C58.6,2.9,58,2.5,57.3,2.5 M66.9,12.9h-2.3c-0.2,0-0.4-0.2-0.4-0.4V0.7c0-0.2,0.2-0.4,0.4-0.4
		h2.1c0.2,0,0.4,0.1,0.4,0.3v1.8l0,0C67.8,0.8,68.7,0,70.3,0c1.1-0.1,2.1,0.5,2.7,1.4c0.5,1.1,0.7,2.4,0.6,3.6v7.3
		c0,0.2-0.2,0.4-0.4,0.4h-2.3c-0.2,0-0.4-0.2-0.4-0.4V6.1C70.4,4.9,70.6,3,69,3c-0.6,0-1.1,0.4-1.3,0.9c-0.3,0.7-0.4,1.5-0.4,2.2
		v6.3C67.3,12.7,67.1,12.9,66.9,12.9 M36.6,7.3c0.1,0.8-0.1,1.7-0.4,2.4c-0.3,0.6-0.9,1-1.6,1c-0.9,0-1.4-0.7-1.4-1.6
		c0-1.9,1.7-2.3,3.4-2.3V7.3 M38.9,12.8c-0.2,0.1-0.4,0.1-0.5,0c-0.5-0.4-1-0.9-1.3-1.4c-0.9,1.1-2.3,1.7-3.7,1.6
		c-1.8,0.1-3.3-1.2-3.4-3c0-0.2,0-0.3,0-0.5c0-1.6,0.9-3.1,2.4-3.7c1.4-0.4,2.8-0.7,4.3-0.8V4.7c0.1-0.6,0-1.1-0.3-1.7
		C36,2.6,35.5,2.4,35,2.4c-0.9-0.1-1.6,0.5-1.8,1.4c0,0.2-0.2,0.4-0.4,0.4L30.6,4c-0.2,0-0.4-0.2-0.3-0.5l0,0c0.4-2.7,2.9-3.5,5-3.5
		c1.2,0,2.5,0.4,3.4,1.1c1.1,1,1,2.4,1,3.9v3.6c0,0.8,0.3,1.5,0.9,2.1c0.2,0.2,0.2,0.4,0,0.6L38.9,12.8 M6.7,7.3
		C6.8,8.1,6.6,9,6.3,9.7c-0.3,0.6-0.9,1-1.6,1C3.8,10.7,3.3,10,3.3,9c0-1.9,1.7-2.3,3.4-2.3V7.3 M9,12.8c-0.2,0.1-0.4,0.1-0.5,0
		c-0.5-0.4-1-0.9-1.3-1.5c-0.9,1.1-2.3,1.8-3.7,1.7c-1.8,0.1-3.3-1.2-3.4-3c0-0.2,0-0.3,0-0.5C0,7.9,1,6.4,2.5,5.8
		C3.8,5.3,5.3,5.1,6.7,5V4.7c0.1-0.6,0-1.1-0.3-1.7C6.1,2.6,5.7,2.4,5.2,2.4C4.3,2.3,3.5,2.9,3.3,3.8c0,0.2-0.2,0.4-0.4,0.4L0.7,4
		C0.5,4,0.4,3.8,0.4,3.6l0,0l0,0C0.9,0.8,3.3,0,5.5,0C6.7,0,8,0.4,8.9,1.1c1.1,1,1,2.4,1,3.9v3.6c0,0.8,0.3,1.5,0.9,2.1
		c0.2,0.2,0.2,0.4,0,0.6L9,12.8L9,12.8"/>
</g>
</svg>
