<svg id="Layer_1" data-name="Layer 1" xmlns="http://www.w3.org/2000/svg" viewBox="0 0 53.87 48"><defs><style>.cls-1{fill:#282f39;}.cls-2{fill:#fff;fill-rule:evenodd;}</style></defs><rect class="cls-1" width="53.87" height="48"/><path class="cls-2" d="M33.39,29.57a20.46,20.46,0,0,1-11.56,3.54A21,21,0,0,1,7.71,27.72c-.29-.26,0-.63.32-.42a28.45,28.45,0,0,0,14.13,3.75,28.05,28.05,0,0,0,10.77-2.19c.54-.22,1,.35.46.73m1.3-1.5c-.4-.51-2.64-.24-3.66-.13-.31,0-.35-.22-.07-.41,1.78-1.26,4.71-.9,5-.48s-.09,3.37-1.76,4.76c-.26.22-.51.11-.39-.18.38-.94,1.26-3,.83-3.56"/><path class="cls-2" d="M31.11,18.67V17.44a.3.3,0,0,1,.29-.3h5.49a.29.29,0,0,1,.31.28h0v1.06a1.56,1.56,0,0,1-.41.73L34,23.31a6,6,0,0,1,3.12.67.54.54,0,0,1,.29.47v1.3c0,.19-.2.39-.4.29a6.28,6.28,0,0,0-5.78,0c-.19.1-.39-.1-.39-.29V24.53a1.49,1.49,0,0,1,.2-.85L34.28,19H31.46a.3.3,0,0,1-.31-.28h0m-20,7.61H9.52a.31.31,0,0,1-.3-.29V17.47a.31.31,0,0,1,.3-.31h1.56a.33.33,0,0,1,.3.28v1.12h0a2.29,2.29,0,0,1,4.35,0,2.47,2.47,0,0,1,3.16-1.42,2.61,2.61,0,0,1,1,.74,4.52,4.52,0,0,1,.42,2.67v5.39a.32.32,0,0,1-.32.32H18.4a.33.33,0,0,1-.3-.32V21.46a10.69,10.69,0,0,0,0-1.6.87.87,0,0,0-1-.73,1.11,1.11,0,0,0-1,.69A5.05,5.05,0,0,0,16,21.46V26a.33.33,0,0,1-.32.31H14a.32.32,0,0,1-.3-.31V21.46c0-.95.15-2.35-1-2.35s-1.16,1.36-1.16,2.35V26a.31.31,0,0,1-.31.31h0M41.91,17c2.48,0,3.81,2.13,3.81,4.82s-1.47,4.67-3.81,4.67-3.74-2.12-3.74-4.76S39.51,17,41.91,17m0,1.74c-1.22,0-1.3,1.68-1.3,2.72s0,3.28,1.29,3.28,1.35-1.8,1.35-2.93A7.58,7.58,0,0,0,43,19.52a1,1,0,0,0-1.07-.8m7,7.58H47.27A.32.32,0,0,1,47,26V17.44a.32.32,0,0,1,.32-.28h1.54a.34.34,0,0,1,.3.24v1.3h0A2.31,2.31,0,0,1,51.43,17a2.22,2.22,0,0,1,2,1,5.5,5.5,0,0,1,.43,2.66V26a.32.32,0,0,1-.32.28h-1.7a.32.32,0,0,1-.29-.28V21.39c0-.94.1-2.3-1.05-2.3a1.09,1.09,0,0,0-1,.68,3.61,3.61,0,0,0-.26,1.62V26a.32.32,0,0,1-.33.3M26.75,22.21A3.37,3.37,0,0,1,26.44,24a1.38,1.38,0,0,1-1.15.73c-.65,0-1-.49-1-1.21,0-1.42,1.27-1.67,2.48-1.67v.35m1.68,4.06a.32.32,0,0,1-.39,0,4,4,0,0,1-1-1,3.27,3.27,0,0,1-2.73,1.21,2.37,2.37,0,0,1-2.5-2.2,2.41,2.41,0,0,1,0-.38,2.84,2.84,0,0,1,1.77-2.72,11.58,11.58,0,0,1,3.14-.56V20.3a2.21,2.21,0,0,0-.2-1.21,1.09,1.09,0,0,0-.94-.42,1.25,1.25,0,0,0-1.33,1A.36.36,0,0,1,24,20l-1.62-.15a.29.29,0,0,1-.25-.33h0c.37-2,2.14-2.59,3.72-2.59a3.8,3.8,0,0,1,2.51.83c.81.73.73,1.76.73,2.86v2.6a2.34,2.34,0,0,0,.63,1.54.31.31,0,0,1,0,.44l-1.28,1.1M4.92,22.21A3.27,3.27,0,0,1,4.62,24a1.38,1.38,0,0,1-1.16.73c-.64,0-1-.49-1-1.21,0-1.42,1.27-1.67,2.47-1.67v.35m1.67,4.09a.32.32,0,0,1-.39,0,3.93,3.93,0,0,1-1-1.11,3.29,3.29,0,0,1-2.73,1.25A2.35,2.35,0,0,1,0,24.21a2.41,2.41,0,0,1,0-.38,2.84,2.84,0,0,1,1.78-2.74,12,12,0,0,1,3.13-.54V20.3a2.11,2.11,0,0,0-.19-1.21,1.12,1.12,0,0,0-.94-.43,1.26,1.26,0,0,0-1.34,1,.36.36,0,0,1-.29.31L.55,19.82a.29.29,0,0,1-.26-.32h0c.38-2,2.15-2.59,3.73-2.59a3.8,3.8,0,0,1,2.51.83c.81.73.73,1.76.73,2.86v2.6a2.29,2.29,0,0,0,.63,1.54.31.31,0,0,1,0,.44l-1.28,1.1h0"/></svg>