<svg id="Layer_1" data-name="Layer 1" xmlns="http://www.w3.org/2000/svg" viewBox="0 0 55.49 48"><defs><style>.cls-1{fill:#282f39;}.cls-2{fill:#fff;fill-rule:evenodd;}</style></defs><rect class="cls-1" width="55.49" height="48"/><path class="cls-2" d="M17.75,32.07V28.79h1a1.09,1.09,0,0,1,.75.26.88.88,0,0,1,.27.68.84.84,0,0,1-.14.5.77.77,0,0,1-.39.32,1.91,1.91,0,0,1-.71.1h-.35v1.42Zm1-2.86h-.49v1h.51a.64.64,0,0,0,.44-.14.46.46,0,0,0,.16-.38c0-.34-.21-.51-.62-.51Zm2.37.7a1.12,1.12,0,0,1,.82.32,1.08,1.08,0,0,1,.32.8,1,1,0,0,1-.33.77,1.16,1.16,0,0,1-.83.31,1.13,1.13,0,0,1-.81-.31,1,1,0,0,1-.33-.79,1.06,1.06,0,0,1,.33-.79,1.14,1.14,0,0,1,.83-.31Zm0,.38a.69.69,0,0,0-.5.2.73.73,0,0,0-.2.52.67.67,0,0,0,.2.5.78.78,0,0,0,1,0,.74.74,0,0,0,0-1,.76.76,0,0,0-.53-.2Zm4.29-.38h.46l-.95,2.2h-.14l-.64-1.5-.63,1.5H23.3l-.95-2.2h.45l.57,1.31.55-1.31h.31l.55,1.31.56-1.31ZM27.85,31H26.33a.7.7,0,0,0,.21.5.68.68,0,0,0,.49.19,1.33,1.33,0,0,0,.78-.26v.41a1.4,1.4,0,0,1-.39.19,1.58,1.58,0,0,1-.46.05,1.07,1.07,0,0,1-.57-.14,1,1,0,0,1-.35-.4A1.21,1.21,0,0,1,25.9,31a1.16,1.16,0,0,1,.28-.81,1,1,0,0,1,.73-.3.85.85,0,0,1,.68.3,1.17,1.17,0,0,1,.26.8V31Zm-1.51-.25h1.09a.69.69,0,0,0-.16-.4.48.48,0,0,0-.36-.13.53.53,0,0,0-.38.13.72.72,0,0,0-.19.4Zm2.43-.86v.49l0,0c.21-.33.41-.49.62-.49a.75.75,0,0,1,.5.24l-.22.37a.65.65,0,0,0-.41-.21.45.45,0,0,0-.36.2.75.75,0,0,0-.15.47v1.13h-.43V29.91Zm1.95-1.12h2.74v.42H32.32v2.86h-.47V29.21H30.72v-.42Zm3.44,1.12a1.1,1.1,0,0,1,.82.32,1,1,0,0,1,.32.8,1,1,0,0,1-.33.77,1.14,1.14,0,0,1-.83.31,1.17,1.17,0,0,1-.81-.31A1,1,0,0,1,33,31a1.06,1.06,0,0,1,.33-.79,1.16,1.16,0,0,1,.83-.31Zm0,.38a.69.69,0,0,0-.51.2.73.73,0,0,0-.19.52.63.63,0,0,0,.2.5.7.7,0,0,0,.52.2.71.71,0,0,0,.5-1.22.73.73,0,0,0-.52-.2Zm3-1.5H39v.42H37.64v1H39v.42H37.64v1h1.43v.42h-1.9V28.79Zm4.11,1.71v1.57h-.42v-1.2a1,1,0,0,0-.1-.51.39.39,0,0,0-.34-.14.5.5,0,0,0-.24.06,1.17,1.17,0,0,0-.26.22v1.57H39.5V29.91h.42v.29a.93.93,0,0,1,.64-.33.7.7,0,0,1,.64.39,1,1,0,0,1,.71-.39.66.66,0,0,1,.52.22,1,1,0,0,1,.2.71v1.27h-.42V30.79a.72.72,0,0,0-.11-.42.4.4,0,0,0-.32-.14.67.67,0,0,0-.5.27Zm1.91,2.68V29.91h.75a1.29,1.29,0,0,1,.89.29,1,1,0,0,1,.32.8,1.12,1.12,0,0,1-.3.8,1,1,0,0,1-.76.31,1.38,1.38,0,0,1-.46-.09v1.16Zm.74-2.87h-.3v1.33a.86.86,0,0,0,.41.1.64.64,0,0,0,.49-.21.76.76,0,0,0,.19-.54.75.75,0,0,0-.09-.37.51.51,0,0,0-.25-.23,1,1,0,0,0-.45-.08Zm2.72-.4a1.08,1.08,0,0,1,.82.32,1,1,0,0,1,.33.8,1,1,0,0,1-.33.77,1.16,1.16,0,0,1-.83.31,1.18,1.18,0,0,1-.82-.31A1.07,1.07,0,0,1,45.5,31a1.06,1.06,0,0,1,.33-.79,1.13,1.13,0,0,1,.82-.31Zm0,.38a.69.69,0,0,0-.5.2.73.73,0,0,0-.2.52.67.67,0,0,0,.2.5.78.78,0,0,0,1,0,.74.74,0,0,0,0-1,.76.76,0,0,0-.53-.2Zm4.29-.38h.46l-1,2.2h-.14l-.64-1.5L49,32.11h-.14l-1-2.2h.46L49,31.22l.54-1.31h.32l.55,1.31.56-1.31ZM53.43,31H51.91a.7.7,0,0,0,.21.5.68.68,0,0,0,.49.19,1.33,1.33,0,0,0,.78-.26v.41a1.4,1.4,0,0,1-.39.19,1.58,1.58,0,0,1-.46.05A1.07,1.07,0,0,1,52,32a1.16,1.16,0,0,1-.36-.4,1.21,1.21,0,0,1-.13-.58,1.16,1.16,0,0,1,.28-.81,1,1,0,0,1,.73-.3.85.85,0,0,1,.68.3,1.17,1.17,0,0,1,.26.8V31Zm-1.51-.25H53a.63.63,0,0,0-.15-.4.48.48,0,0,0-.36-.13.53.53,0,0,0-.38.13.72.72,0,0,0-.19.4Zm2.42-.86v.49l0,0c.2-.33.41-.49.62-.49a.75.75,0,0,1,.5.24l-.22.37a.64.64,0,0,0-.42-.21.45.45,0,0,0-.35.2.71.71,0,0,0-.16.47v1.13h-.42V29.91Z"/><path class="cls-2" d="M11.41,29.21l-.48.84a10.48,10.48,0,0,1-4,3.91l-.46.21a4.34,4.34,0,0,0-.48.2,12.94,12.94,0,0,0,7.79-4.62A13.4,13.4,0,0,0,17,20.63c-.24-3.6-2.28-6.31-5.31-7.07-3.23-.82-5.68.64-7.44,3a6.12,6.12,0,0,0-.58.92c2.39-1.19,5.24-1.72,7.64,0C13.35,19,14,22.05,13.44,24.72a12.23,12.23,0,0,1-1.72,4,4.71,4.71,0,0,0-.31.47Z"/><path class="cls-2" d="M3.06,34.22c-.23.16-1.1-.11-1.32-.15a4.47,4.47,0,0,0,2,.59A7.33,7.33,0,0,0,6,34.37a4.34,4.34,0,0,1,.48-.2L6.91,34a10.48,10.48,0,0,0,4-3.91l.48-.84c.06-.17.19-.4.26-.58a10.16,10.16,0,0,0,1-4.85,6.19,6.19,0,0,0-.76-2.61A5.44,5.44,0,0,0,5,19a6.4,6.4,0,0,0-3,2.87c-.1.17-.17.38-.27.52a5.34,5.34,0,0,0,.6-.29,7.66,7.66,0,0,1,2.09-.69,4.92,4.92,0,0,1,5.13,2,5.25,5.25,0,0,1,.5,3.08,10.66,10.66,0,0,1-2.17,5.18,8,8,0,0,1-.89,1,7.12,7.12,0,0,1-1,.78,4.64,4.64,0,0,1-2.85.74Z"/><path class="cls-2" d="M1.74,34.07c.22,0,1.09.31,1.32.15a1,1,0,0,1-.73-.65c-.41-.94-.06-2.67.17-3.6.18-.74.38-1.43.61-2.15l.71-2.06H1A14.72,14.72,0,0,0,.4,27.91c-.47,1.92-1,5.25,1.34,6.16Z"/><path class="cls-2" d="M1,23.93l.2.23a2,2,0,0,1,.51-.39,1.72,1.72,0,0,1,1.5,0,1.34,1.34,0,0,1,.28.18c.12.08.15.15.26.21l.21-.21a1.71,1.71,0,0,0-.6-.46,2,2,0,0,0-1.76,0,1.66,1.66,0,0,0-.6.46Z"/><path class="cls-2" d="M1.32,24.32l.21.24a1.26,1.26,0,0,1,1.41-.28.91.91,0,0,1,.37.28l.25-.28a1.69,1.69,0,0,0-1.13-.47,1.48,1.48,0,0,0-1.11.51Z"/><path class="cls-2" d="M1.72,24.72l.22.18a.13.13,0,0,0,.06,0,.7.7,0,0,1,.43-.15c.31,0,.38.13.58.23l.15-.22a1,1,0,0,0-1.44,0Z"/><path class="cls-2" d="M2.07,25.09l.4.4.34-.38a.48.48,0,0,0-.74,0Z"/><path class="cls-2" d="M20,22.1c2.7-.25,1.81,2.66.62,3.31a3.69,3.69,0,0,1-1.81.22L20,22.1Zm-2.5,4.41a12,12,0,0,0,3.33-.16c1.92-.82,2.48-3.61,1.51-4.65-.63-.68-2.16-.49-3.09-.51l-1.75,5.32Z"/><path class="cls-2" d="M25.31,26.91c.68-.21,1.49.51.55.7s-1.58-.39-.55-.7Zm1.08-3.18c.79-.27.5,1,.06,1.18s-.64,0-.56-.49.2-.59.5-.69Zm-1,1.62a.89.89,0,0,0-.68.47.62.62,0,0,0,.22.83c-.89.33-1.17,1-.77,1.35.65.65,3.51.37,3-1.31-.23-.79-1.41-.47-1.61-.87.19-.46.64.09,1.59-.53a1.71,1.71,0,0,0,.62-1.53h.5l.22-.76c-1.2-.15-2.95-.17-3.38,1.12a1.46,1.46,0,0,0-.05.72.56.56,0,0,0,.11.26l.2.26Z"/><path class="cls-2" d="M48,25.69c-1.46.32-1.2-1.92.63-1.84A11.64,11.64,0,0,1,48,25.69Zm1-2.76c-1.34.08-2.4.28-2.8,1.83-.46,1.83,1.15,1.95,2.57,1.71l1.74-5.27h-.94L49,22.93Z"/><path class="cls-2" d="M35.15,23.8c-.11.46-.29.93-.44,1.39s-.12.36-.42.5c-1.08.47-.83-.77-.4-1.32a1.22,1.22,0,0,1,1.26-.57Zm-.85,2.45s0,0,0,.09,0,.11,0,.18h.88L36.37,23a4,4,0,0,0-2.2.1C32,24,32,27.74,34.3,26.25Z"/><path class="cls-2" d="M54.28,23.8c-.09.44-.3.95-.44,1.39a.74.74,0,0,1-1.07.5c-.32-.35.07-2,1.51-1.89Zm-.85,2.45v.27h.88L55.49,23a3,3,0,0,0-3.44,1.15c-.79,1.35-.28,3.18,1.38,2.06Z"/><path class="cls-2" d="M41.93,26.51h.92l.6-1.79c0-.07,0-.14.07-.19.08-.3.06-.31.37-.53.82-.6,1-.23.76.38L44,26.52h.88l.77-2.26.05-.21c.1-.5,0-1-.43-1.12a2,2,0,0,0-1.34.4L44,23l-.92,0-1.17,3.54Z"/><path class="cls-2" d="M31.07,23h-.64l-.29.77h.62c-.1.56-1.8,3.6,1,2.61l.17-.91a2.4,2.4,0,0,1-.54.17c-.63-.05.15-1.52.27-1.86h.71l.26-.78H32l.26-.73-1,0-.25.74Z"/><polygon class="cls-2" points="39.93 26.5 40.91 26.52 42.69 21.2 41.69 21.2 39.93 26.5 39.93 26.5"/><polygon class="cls-2" points="36.09 26.5 37.01 26.52 38.78 21.2 37.85 21.2 36.09 26.5 36.09 26.5"/><path class="cls-2" d="M22.66,26.55h.94L24.73,23h-.94l-1.13,3.59Zm2.06-5.05c.26,0,.41.24.34.54a.66.66,0,0,1-.59.55c-.26,0-.41-.24-.35-.55a.68.68,0,0,1,.6-.54Z"/><path class="cls-2" d="M27.84,26.55h.94L29.91,23H29l-1.13,3.59ZM29.9,21.5c.26,0,.42.24.35.54a.68.68,0,0,1-.6.55c-.26,0-.41-.24-.34-.55a.67.67,0,0,1,.59-.54Z"/><path class="cls-2" d="M49.52,26.55h.94L51.59,23h-.94l-1.13,3.59Zm2.06-5.05c.26,0,.41.24.35.54a.68.68,0,0,1-.6.55c-.26,0-.41-.24-.34-.55a.66.66,0,0,1,.59-.54Z"/><polygon class="cls-2" points="55.09 27.07 27.81 27.07 27.81 27.43 55.09 27.43 55.09 27.07 55.09 27.07"/><polygon class="cls-2" points="22.88 27.07 17.31 27.07 17.31 27.43 22.88 27.43 22.88 27.07 22.88 27.07"/></svg>