<?xml version="1.0" encoding="utf-8"?>
<!-- Generator: Adobe Illustrator 26.0.1, SVG Export Plug-In . SVG Version: 6.00 Build 0)  -->
<svg version="1.1" id="Layer_1" xmlns:v="https://vecta.io/nano"
	 xmlns="http://www.w3.org/2000/svg" xmlns:xlink="http://www.w3.org/1999/xlink" x="0px" y="0px" viewBox="0 0 563.9 191.3"
	 style="enable-background:new 0 0 563.9 191.3;" xml:space="preserve">
<style type="text/css">
	.st0{fill-rule:evenodd;clip-rule:evenodd;fill:#FFFFFF;}
</style>
<g>
	<g>
		<path class="st0" d="M99,137.7l-4.2,7.3C86.9,158,74,172.2,60,178.9c-1.4,0.7-2.5,1.2-4,1.8c-0.9,0.4-3.6,1.4-4.2,1.7
			c28.6-5.8,49.8-18.7,67.5-40C134,124.6,149,95.9,147,63.3c-2-31.2-19.7-54.7-46-61.4c-28.1-7-49.3,5.6-64.6,25.9
			c-1.1,1.4-4.5,6.3-5,7.9c20.7-10.4,45.4-14.9,66.2,0.2c18.2,13.2,23.6,39.7,18.9,62.8c-2.7,13.4-8.1,23.6-14.9,34.9
			C101,134.5,99.2,136.9,99,137.7L99,137.7z"/>
		<path class="st0" d="M26.5,181.2c-1.9,1.4-9.5-1-11.5-1.3c3.7,2.7,11.5,4.8,17.1,5.1c8.6,0.5,12.3-1,19.6-2.5
			c0.6-0.4,3.2-1.4,4.2-1.7c1.4-0.6,2.5-1.1,4-1.8c14-6.6,26.9-20.9,34.8-33.9l4.2-7.3c0.5-1.4,1.6-3.5,2.2-5
			c5.6-13,9.7-27.6,8.5-42c-0.8-8.6-2.9-16.4-6.6-22.6C90.9,47.5,65.1,39.9,43,49.7c-12.1,5.3-19.7,14-26.1,24.9
			c-0.9,1.5-1.5,3.2-2.4,4.5c0.9-0.1,3.8-1.9,5.1-2.6c5.9-2.7,11.4-4.8,18.2-5.9c17.4-2.8,35.6,2.7,44.4,17.6
			c4.2,7,5.3,17.1,4.3,26.7c-1.8,17.1-10.4,34.9-18.7,44.9c-2,2.4-5.3,6.3-7.7,8.3c-2.8,2.4-5.4,4.5-9,6.8
			C45.2,178.5,33.2,183,26.5,181.2L26.5,181.2z"/>
		<path class="st0" d="M15,179.8c1.9,0.4,9.5,2.7,11.5,1.3c-3.2-1-5-2.7-6.3-5.7c-3.5-8.1-0.5-23,1.4-31.1
			c1.6-6.5,3.3-12.5,5.3-18.7l6.1-17.8l-24,0.1c-1.4,2.3-4.7,14.9-5.5,18.5C-0.6,143.1-5,172,15,179.8L15,179.8z"/>
		<path class="st0" d="M8.3,91.9l1.8,1.9c1.2-1.1,2.4-2.4,4.5-3.3c4.2-2,8.7-2.2,13-0.1c0.9,0.4,1.7,0.9,2.4,1.5
			c1,0.7,1.3,1.3,2.2,1.9L34,92c-0.9-1.4-3.3-3-5.2-4c-4.9-2.4-10.3-2.2-15.2,0C11.8,88.6,9.1,90.6,8.3,91.9L8.3,91.9z"/>
		<path class="st0" d="M11.4,95.3l1.8,2c1.8-1,5.7-5.4,12.2-2.4c1.9,0.9,2,1.2,3.2,2.4l2.2-2.4c-2.6-1.9-4.8-4.1-9.8-4
			C16.9,90.9,13.9,92.6,11.4,95.3L11.4,95.3z"/>
		<path class="st0" d="M14.9,98.8l1.9,1.6c0.2-0.1,0.4-0.2,0.5-0.4c1.1-0.7,2.3-1.3,3.7-1.3c2.7-0.1,3.3,1.2,5,2l1.3-1.9
			C24.5,95.3,17.6,95,14.9,98.8L14.9,98.8z"/>
		<path class="st0" d="M17.9,102l3.5,3.5l2.9-3.4C22,100,20.4,100.2,17.9,102L17.9,102z"/>
	</g>
	<g>
		<path class="st0" d="M157.5,179.4v-35.2h11.3c3.3,0,6.1,0.8,8.1,2.8c1.9,1.8,3,4.3,3,7.3c0,1.9-0.5,3.8-1.5,5.5
			c-1,1.7-2.5,2.8-4.3,3.5c-1.8,0.7-4.3,1-7.6,1h-3.8v15.2h-5.1V179.4z M167.7,148.7h-5.2v11h5.6c1.9,0,3.6-0.5,4.8-1.5
			c1.1-1,1.7-2.3,1.7-4.1C174.4,150.5,172.1,148.7,167.7,148.7L167.7,148.7z M193.3,156.3c3.5,0,6.5,1.1,8.8,3.5
			c2.3,2.3,3.5,5.1,3.5,8.6c0,3.3-1.1,6.1-3.6,8.4c-2.3,2.2-5.2,3.3-8.9,3.3c-3.5,0-6.5-1.1-8.8-3.3c-2.3-2.3-3.5-5.1-3.5-8.4
			c0-3.5,1.1-6.3,3.6-8.4C186.7,157.3,189.6,156.3,193.3,156.3L193.3,156.3z M192.9,160.4c-2.2,0-4,0.7-5.5,2.2
			c-1.5,1.5-2.2,3.3-2.2,5.6c0,2.2,0.7,4,2.2,5.5c1.5,1.5,3.3,2.2,5.6,2.2c2.3,0,4.1-0.7,5.6-2.2c1.5-1.5,2.2-3.3,2.2-5.5
			s-0.8-4-2.3-5.5C197.3,161.1,195.2,160.4,192.9,160.4L192.9,160.4z M239.2,156.3h5L234,180h-1.5l-6.8-16.1l-6.8,16.1h-1.5
			l-10.2-23.6h5l6.1,14l5.9-14h3.5l5.9,14L239.2,156.3L239.2,156.3z M266.2,168.2h-16.4c0.1,2.3,0.8,4,2.3,5.2
			c1.4,1.4,3.2,1.9,5.2,1.9c3,0,5.8-1,8.4-2.8v4.4c-1.5,1-2.8,1.7-4.1,1.9c-1.4,0.3-3,0.7-5,0.7c-2.6,0-4.7-0.5-6.3-1.7
			c-1.7-1-2.8-2.5-3.8-4.3c-1-1.8-1.5-3.8-1.5-6.3c0-3.5,1-6.5,3-8.6c1.9-2.2,4.7-3.3,7.7-3.3c3.2,0,5.6,1.1,7.4,3.3
			c1.8,2.2,2.8,5,2.8,8.6L266.2,168.2L266.2,168.2z M249.9,165.5h11.7c-0.1-1.8-0.7-3.3-1.7-4.3c-1-1-2.3-1.5-4-1.5
			c-1.7,0-3,0.5-4.1,1.5C250.9,162.2,250.2,163.6,249.9,165.5L249.9,165.5z M276,156.3v5.2l0.1-0.3c2.2-3.6,4.4-5.5,6.6-5.5
			c1.7,0,3.5,0.8,5.5,2.6l-2.5,4c-1.7-1.5-3.2-2.3-4.4-2.3c-1.5,0-2.8,0.7-3.8,2.2c-1.1,1.5-1.7,3.2-1.7,5v12.2h-4.5v-23.3h4.8
			V156.3z M297.2,144.3h29.6v4.4h-12.4v30.7h-5.1v-30.7h-12.1V144.3L297.2,144.3z M334.1,156.3c3.5,0,6.5,1.1,8.8,3.5
			c2.3,2.3,3.5,5.1,3.5,8.6c0,3.3-1.1,6.1-3.6,8.4c-2.3,2.2-5.2,3.3-8.9,3.3c-3.5,0-6.5-1.1-8.8-3.3c-2.3-2.3-3.5-5.1-3.5-8.4
			c0-3.5,1.1-6.3,3.6-8.4C327.5,157.3,330.5,156.3,334.1,156.3L334.1,156.3z M333.8,160.4c-2.2,0-4,0.7-5.5,2.2
			c-1.5,1.5-2.2,3.3-2.2,5.6c0,2.2,0.7,4,2.2,5.5s3.3,2.2,5.6,2.2s4.1-0.7,5.6-2.2c1.5-1.5,2.2-3.3,2.2-5.5s-0.8-4-2.3-5.5
			C338.1,161.1,336.2,160.4,333.8,160.4L333.8,160.4z M366.5,144.3h20v4.4h-15v10.7h14.3v4.4h-14.3v11h15.3v4.4h-20.5v-35.1h0.1
			V144.3z M410.8,162.6v16.8h-4.7v-13.1c0-2.6-0.3-4.4-1-5.5c-0.7-1-1.8-1.5-3.6-1.5c-1,0-1.8,0.1-2.6,0.7c-0.8,0.6-1.7,1.1-2.8,2.3
			v16.8h-4.4v-23.3h4.7v3c2.3-2.3,4.7-3.6,6.9-3.6c3,0,5.2,1.5,6.8,4.3c2.5-2.8,5-4.3,7.7-4.3c2.3,0,4.1,0.8,5.6,2.5
			s2.2,4.1,2.2,7.6V179h-4.7v-13.9c0-1.9-0.3-3.5-1.1-4.4c-0.8-1-1.9-1.5-3.5-1.5C414.3,159.6,412.5,160.6,410.8,162.6L410.8,162.6z
			 M431.5,191.3v-35.1h8.1c4.1,0,7.3,1,9.6,3.2c2.3,1.9,3.5,5,3.5,8.6c0,3.5-1.1,6.3-3.3,8.6c-2.2,2.3-5,3.3-8.3,3.3
			c-1.5,0-3.2-0.3-5-1v12.4h-4.7v0H431.5z M439.4,160.6h-3.3v14.3c1.5,0.7,2.8,1,4.4,1c2.2,0,4-0.8,5.2-2.3c1.4-1.5,1.9-3.5,1.9-5.8
			c0-1.5-0.3-2.8-1-4c-0.7-1.1-1.5-1.9-2.6-2.5C443.2,160.7,441.6,160.6,439.4,160.6L439.4,160.6z M468.6,156.3
			c3.5,0,6.5,1.1,8.8,3.5c2.3,2.3,3.5,5.1,3.5,8.6c0,3.3-1.1,6.1-3.6,8.4c-2.3,2.2-5.2,3.3-8.9,3.3c-3.5,0-6.5-1.1-8.8-3.3
			c-2.3-2.3-3.5-5.1-3.5-8.4c0-3.5,1.1-6.3,3.5-8.4C462.2,157.3,465.1,156.3,468.6,156.3L468.6,156.3z M468.4,160.4
			c-2.2,0-4,0.7-5.5,2.2c-1.5,1.5-2.2,3.3-2.2,5.6c0,2.2,0.7,4,2.2,5.5s3.3,2.2,5.6,2.2c2.3,0,4.1-0.7,5.6-2.2
			c1.5-1.5,2.2-3.3,2.2-5.5s-0.8-4-2.3-5.5C472.6,161.1,470.8,160.4,468.4,160.4L468.4,160.4z M514.6,156.3h5L509.4,180h-1.6
			l-6.8-16.1l-6.8,16.1h-1.5l-10.2-23.6h5l6.1,14l5.9-14h3.5l5.8,14L514.6,156.3L514.6,156.3z M541.6,168.2h-16.4
			c0.1,2.3,0.8,4,2.3,5.2c1.4,1.4,3.2,1.9,5.2,1.9c3,0,5.8-1,8.4-2.8v4.4c-1.5,1-2.8,1.7-4.1,1.9c-1.4,0.3-3,0.7-5,0.7
			c-2.5,0-4.7-0.5-6.3-1.7c-1.7-1-2.8-2.5-3.8-4.3c-1-1.8-1.5-3.8-1.5-6.3c0-3.5,1-6.5,3-8.6c1.9-2.2,4.7-3.3,7.7-3.3
			c3.2,0,5.6,1.1,7.4,3.3s2.8,5,2.8,8.6L541.6,168.2L541.6,168.2z M525.3,165.5H537c-0.1-1.8-0.7-3.3-1.7-4.3c-1-1-2.3-1.5-4-1.5
			c-1.7,0-3,0.5-4.1,1.5C526.4,162.2,525.6,163.6,525.3,165.5L525.3,165.5z M551.5,156.3v5.2l0.3-0.3c2.2-3.6,4.4-5.5,6.6-5.5
			c1.7,0,3.5,0.8,5.5,2.6l-2.5,4c-1.7-1.5-3.2-2.3-4.4-2.3c-1.5,0-2.8,0.7-3.8,2.2c-1.1,1.5-1.7,3.2-1.7,5v12.2h-4.7v-23.3h4.7
			L551.5,156.3L551.5,156.3z"/>
		<path class="st0" d="M181.6,72.3c29.1-2.8,19.7,28.5,6.8,35.7c-5.9,3.3-12.1,2.3-19.4,2.3L181.6,72.3L181.6,72.3z M154.6,119.7
			c9.1,0.3,28.8,1.4,35.8-1.8c20.8-8.8,26.7-38.8,16.4-50c-6.8-7.3-23.3-5.2-33.2-5.5L154.6,119.7L154.6,119.7z"/>
		<path class="st0" d="M238.9,123.9c7.3-2.2,16,5.6,5.8,7.6C235.2,133.3,227.8,127.2,238.9,123.9L238.9,123.9z M250.5,89.8
			c8.6-2.8,5.5,10.7,0.7,12.7c-4.4,1.9-6.9-0.5-6.1-5.2C245.9,93.2,247.3,90.7,250.5,89.8L250.5,89.8z M239.3,107.3
			c-3.6,1-6.1,2.2-7.3,5c-1.8,4.1-0.3,6.8,2.3,8.9c-9.6,3.6-12.5,10.2-8.3,14.6c6.9,6.9,37.6,4,32.5-14.2
			c-2.5-8.4-15.2-5.1-17.4-9.4c2.2-5,6.9,1,17.1-5.6c4.7-3,6.8-8.6,6.8-16.5h5.5l2.3-8.3c-12.8-1.7-31.7-1.8-36.4,12.1
			c-0.8,2.3-1.1,5.1-0.5,7.7c0.3,1.4,0.5,1.8,1.1,2.8L239.3,107.3L239.3,107.3z"/>
		<path class="st0" d="M483.3,110.7c-15.7,3.5-12.8-20.7,6.8-19.8C489.1,94.7,485,108.4,483.3,110.7L483.3,110.7z M493.4,81
			c-14.3,1-25.8,3-30,19.7c-5,19.8,12.4,21,27.6,18.5l18.6-56.8l-10.1-0.1L493.4,81L493.4,81z"/>
		<path class="st0" d="M344.9,90.6c-1.4,5-3.2,9.9-4.8,14.9c-1.1,3.8-1.4,4-4.4,5.2c-11.7,5.1-8.9-8.3-4.3-14.2
			C334.4,92.5,337.3,89.9,344.9,90.6L344.9,90.6z M335.6,116.9c0,0.1,0.1,0.3,0.1,1c0,0.3-0.1,1.1-0.1,1.9h9.4l12.7-37.6
			c-8.9-1.4-15.6-1.9-23.8,1C310.4,92.2,310.8,132.9,335.6,116.9L335.6,116.9z"/>
		<path class="st0" d="M550.9,90.4c-1,4.8-3.3,10.2-4.8,15c-2.3,7.3-9.9,7.3-11.6,5.5C531.1,107.1,535.4,89.4,550.9,90.4L550.9,90.4
			z M541.6,116.9l0.1,3h9.4l12.7-37.5c-16.5-4.7-31.3,2.2-37.2,12.4C518.3,109.2,523.8,128.9,541.6,116.9L541.6,116.9z"/>
		<path class="st0" d="M417.7,119.7h9.9l6.5-19.2c0.3-0.8,0.5-1.5,0.7-2.2c1-3.2,0.7-3.3,4-5.8c8.9-6.5,10.2-2.5,8.3,4.1l-6.9,23
			h9.4l8.2-24.3c0.3-1,0.5-1.7,0.5-2.3c1.1-5.2,0.5-10.9-4.7-12.1c-5.9-1.1-10.7,2.2-14.6,4.3l1-3.6l-9.9-0.1L417.7,119.7
			L417.7,119.7z"/>
		<path class="st0" d="M300.8,81.5l-6.9,0.1l-3.2,8.3h6.6c-1.1,6.1-19.3,38.8,11.3,28.1l1.8-9.8c-1.5,0.5-4.4,1.9-5.8,1.8
			c-6.8-0.5,1.7-16.4,2.8-20l7.7-0.1l2.6-8.4h-7l2.8-8l-10.2-0.1L300.8,81.5L300.8,81.5z"/>
		<polygon class="st0" points="396.2,119.7 406.8,119.8 426,62.5 415.3,62.5 		"/>
		<polygon class="st0" points="354.9,119.7 364.8,119.8 383.9,62.5 373.8,62.5 		"/>
		<path class="st0" d="M210.3,120h10.1l12.3-38.7h-10.1L210.3,120L210.3,120z M232.4,65.7c2.8,0,4.4,2.6,3.8,5.9
			c-0.7,3.3-3.6,5.9-6.5,5.9c-2.8,0-4.4-2.6-3.8-5.9C226.8,68.3,229.8,65.7,232.4,65.7L232.4,65.7z"/>
		<path class="st0" d="M266.2,120h10.1l12.3-38.7h-10.1L266.2,120L266.2,120z M288.2,65.7c2.8,0,4.4,2.6,3.6,5.9
			c-0.7,3.3-3.6,5.9-6.5,5.9s-4.4-2.6-3.8-5.9C282.6,68.3,285.5,65.7,288.2,65.7L288.2,65.7z"/>
		<path class="st0" d="M499.5,120h10.1l12.3-38.7h-10.1L499.5,120L499.5,120z M521.6,65.7c2.8,0,4.4,2.6,3.8,5.9
			c-0.7,3.3-3.6,5.9-6.5,5.9c-2.8,0-4.4-2.6-3.6-5.9C516.1,68.3,518.8,65.7,521.6,65.7L521.6,65.7z"/>
		<polygon class="st0" points="559.6,125.7 265.8,125.7 265.8,129.6 559.6,129.6 		"/>
		<polygon class="st0" points="212.7,125.7 152.8,125.7 152.8,129.6 212.7,129.6 		"/>
	</g>
</g>
</svg>
