<?xml version="1.0" encoding="utf-8"?>
<!-- Generator: Adobe Illustrator 26.0.1, SVG Export Plug-In . SVG Version: 6.00 Build 0)  -->
<svg version="1.1" id="Layer_1" xmlns:v="https://vecta.io/nano"
	 xmlns="http://www.w3.org/2000/svg" xmlns:xlink="http://www.w3.org/1999/xlink" x="0px" y="0px" viewBox="0 0 69.5 22.4"
	 style="enable-background:new 0 0 69.5 22.4;" xml:space="preserve">
<style type="text/css">
	.st0{fill:#FFFFFF;}
</style>
<path class="st0" d="M48,12.2h-8.5c0,0.2,0,0.4,0.1,0.5c0.1,1.1,1,2,2.1,2.2c0.5,0.1,1,0.1,1.5-0.1c0.6-0.2,1-0.6,1.3-1.1
	c0-0.1,0.1-0.1,0.1-0.2H48c0,0.1,0,0.1,0,0.2c-0.4,1.3-1.2,2.3-2.3,3c-0.6,0.3-1.3,0.6-2,0.7c-0.7,0.1-1.4,0.1-2.1,0.1
	c-1.5-0.1-2.9-0.7-3.9-1.8c-0.7-0.8-1.2-1.7-1.4-2.8c-0.3-1.2-0.2-2.4,0.1-3.6c0.5-2.2,2.3-3.9,4.5-4.3c1.2-0.2,2.3-0.1,3.5,0.2
	C45.9,5.8,47,7,47.6,8.5c0.4,1,0.5,2,0.5,3.1L48,12.2L48,12.2z M44.6,9.8V9.7c0-0.6-0.2-1.2-0.6-1.6c-0.8-0.8-2.1-1-3.1-0.5
	c-0.6,0.3-1,0.8-1.2,1.4c-0.1,0.3-0.2,0.5-0.2,0.8L44.6,9.8z M23.1,5.3h3.2v4.4c0.2,0.1,4.9,0.1,5.2,0c0-0.1,0-0.2,0-0.2V5.2h3.2
	v11.9c-0.1,0-2.9,0.1-3.2,0v-0.8v-4c-0.2,0-4.9-0.1-5.2,0c0,0.1,0,0.2,0,0.2v4.5h-3.2L23.1,5.3z M63.6,17.5c-1,0-2.1-0.2-3-0.6
	c-1.2-0.6-2.2-1.6-2.7-2.8c-0.3-0.7-0.5-1.5-0.5-2.2c-0.1-1,0-2,0.3-3c0.6-2,2.3-3.4,4.3-3.8c1.1-0.2,2.3-0.2,3.4,0.1
	c1.8,0.5,3.3,1.9,3.8,3.7c0.5,1.5,0.5,3.2,0,4.7c-0.6,1.8-2.1,3.2-4,3.6C64.6,17.4,64.1,17.5,63.6,17.5z M60.6,11.2
	c0,0.2,0,0.5,0,0.7c0,0.5,0.2,1,0.4,1.5c0.3,0.9,1.1,1.5,2.1,1.6c1.1,0.2,2.1-0.4,2.6-1.4c0.2-0.4,0.3-0.7,0.4-1.1
	c0.1-0.7,0.2-1.4,0.1-2.1c0-0.5-0.2-0.9-0.3-1.4c-0.3-0.9-1.1-1.5-2-1.6c-0.7-0.1-1.4,0.1-2,0.5c-0.4,0.4-0.8,0.9-0.9,1.4
	C60.7,9.9,60.6,10.6,60.6,11.2z M5.1,22.4l-0.2-0.1c-1.6-1.2-3.2-2.3-4.8-3.5C0,18.8,0,18.7,0,18.5v-15V3.3l0.2,0.1
	C1.8,4.6,3.4,5.8,5,7c0.1,0.1,0.2,0.2,0.1,0.3v15C5.1,22.3,5.1,22.4,5.1,22.4z M56.8,5.2v2.7h-0.4c-0.6-0.1-1.3,0-1.9,0.2
	c-0.9,0.3-1.5,1.1-1.6,2c-0.1,0.6-0.1,1.3-0.1,1.9v5.2c-0.2,0-3,0.1-3.3,0c0-0.1,0-0.1,0-0.2v-6.1c0-0.8,0.1-1.5,0.3-2.2
	C50.2,7,51.4,5.8,53,5.3c1.2-0.4,2.4-0.4,3.6-0.2C56.7,5.2,56.8,5.2,56.8,5.2z"/>
<path class="st0" d="M9,10.7V0l0.1,0.1l4.8,3.6c0.1,0.1,0.2,0.2,0.2,0.3V7c0,0.1,0,0.2-0.1,0.3l-4.8,3.3L9,10.7z M9,15.5l5-3.7
	c0.1,0.2,0.1,7.1,0,7.4L9,15.5z"/>
</svg>
