<?xml version="1.0" encoding="utf-8"?>
<!-- Generator: Adobe Illustrator 26.0.1, SVG Export Plug-In . SVG Version: 6.00 Build 0)  -->
<svg version="1.1" id="Layer_1" xmlns:v="https://vecta.io/nano"
	 xmlns="http://www.w3.org/2000/svg" xmlns:xlink="http://www.w3.org/1999/xlink" x="0px" y="0px" viewBox="0 0 60 22.4"
	 style="enable-background:new 0 0 60 22.4;" xml:space="preserve">
<style type="text/css">
	.st0{fill:#FFFFFF;}
</style>
<path class="st0" d="M13.8,22.4l-0.3,0c-0.4-0.1-0.7-0.4-0.8-0.8v-0.1h0.5v0.1c0,0.2,0.2,0.4,0.5,0.4c0.1,0,0.2,0,0.4,0
	c0.1,0,0.2-0.1,0.3-0.2c0-0.1,0-0.3-0.1-0.3l-0.2-0.1l-0.5-0.1c-0.1,0-0.2-0.1-0.4-0.1c-0.4-0.2-0.5-0.6-0.3-1
	c0.1-0.1,0.2-0.3,0.3-0.3c0.2-0.1,0.5-0.1,0.7-0.1c0.1,0,0.3,0,0.4,0.1c0.3,0.1,0.5,0.4,0.5,0.7h-0.5c0,0,0-0.1,0-0.1
	c0-0.1-0.1-0.2-0.2-0.2c-0.2,0-0.3,0-0.5,0l-0.1,0.1c-0.1,0.1-0.1,0.2-0.1,0.3c0,0,0,0,0.1,0.1c0.1,0,0.1,0.1,0.2,0.1l0.5,0.1
	l0.4,0.1c0.3,0.1,0.5,0.4,0.4,0.7c0,0.3-0.1,0.6-0.4,0.7c-0.2,0.1-0.3,0.1-0.5,0.1L13.8,22.4L13.8,22.4z M60,6.8L60,6.8
	c-1.4-0.5-2.7-1-4-1.4l-5.8-1.5l-3.1-0.6l-2.4-0.4c-0.6-0.1-1.2-0.2-1.8-0.2l-1.7-0.2c-0.5-0.1-1.1-0.1-1.6-0.2l-1.7-0.1l-2-0.1
	l-2.1,0h-4.9l-2.8,0l-2.2,0.1c-0.7,0.1-1.6,0.1-2.3,0.2l-1.8,0.1l-1.9,0.2L15.6,3l-2.8,0.4L9.5,4C6.7,4.6,3.9,5.3,1.2,6.3L0.1,6.7
	c0,0-0.1,0-0.1,0l0.1-0.1c0.7-0.5,1.4-0.9,2.2-1.2c1.6-0.8,3.3-1.4,5-2c1.9-0.6,3.8-1.1,5.7-1.6l3.2-0.6c0.8-0.1,1.6-0.2,2.4-0.4
	c0.6-0.1,1.3-0.2,1.9-0.2l1.4-0.2l1.4-0.1l1-0.1l1.3-0.1h1L29,0h2.1L34,0.1L36,0.2c0.6,0,1.3,0.1,1.9,0.2l1.5,0.1l1.6,0.2l1.7,0.2
	l2.1,0.3l2.7,0.6c2.6,0.6,5.2,1.4,7.7,2.4c1.2,0.5,2.4,1.1,3.6,1.8l1,0.7L60,6.8L60,6.8z"/>
<path class="st0" d="M30.4,12.2h-7.3c0,0.1,0,0.1,0,0.2c0.1,0.3,0.2,0.6,0.3,0.9c0.3,0.5,0.8,0.8,1.3,0.9c0.3,0.1,0.7,0.1,1,0.1h3.4
	v0.1l-1,1.7c0,0.1-0.1,0.1-0.1,0.1h-2.3c-0.6,0-1.1-0.1-1.7-0.2c-0.8-0.2-1.5-0.7-2-1.4c-0.3-0.5-0.5-1-0.6-1.5
	c-0.1-0.4-0.1-0.8-0.2-1.2c0-0.4,0-0.8,0-1.1c0-0.6,0.2-1.3,0.4-1.9C22,7.7,22.9,6.9,24,6.6c0.4-0.1,0.8-0.2,1.2-0.2h1
	c0.7,0,1.3,0.2,1.9,0.4c0.9,0.3,1.6,1,1.9,1.9c0.2,0.5,0.3,1,0.4,1.5c0.1,0.4,0.1,0.9,0.1,1.3L30.4,12.2L30.4,12.2z M28.4,10.3
	c0-0.2,0-0.3-0.1-0.5c-0.2-0.7-0.7-1.2-1.4-1.4c-0.2-0.1-0.5-0.1-0.8-0.1c-0.5,0-0.9,0-1.4,0.1c-0.5,0.1-1,0.4-1.2,0.9
	c-0.2,0.3-0.3,0.6-0.4,1v0.2L28.4,10.3z M41.7,11.3c0-0.7,0.1-1.4,0.3-2.1c0.1-0.5,0.4-1,0.7-1.4c0.5-0.6,1.1-1,1.8-1.2
	c0.4-0.1,0.8-0.2,1.2-0.2h1c0.7,0,1.3,0.2,1.9,0.4c0.9,0.4,1.6,1.1,1.9,2c0.2,0.5,0.3,0.9,0.4,1.4c0.1,0.5,0.1,1.1,0.1,1.6
	c0,0.7-0.1,1.4-0.4,2c-0.4,1.1-1.3,2-2.5,2.2c-0.3,0.1-0.7,0.2-1,0.2c-0.4,0-0.9,0-1.3,0c-0.6,0-1.2-0.2-1.8-0.4
	c-0.8-0.4-1.5-1-1.8-1.9c-0.2-0.5-0.3-0.9-0.4-1.4C41.8,12.1,41.7,11.7,41.7,11.3z M43.7,11.5v0.6c0,0.3,0.1,0.6,0.2,0.9
	c0.2,0.4,0.5,0.8,0.9,1c0.3,0.2,0.7,0.3,1,0.3c0.3,0,0.6,0,0.9,0c0.3,0,0.6-0.1,0.9-0.1c0.7-0.2,1.2-0.7,1.3-1.3
	C49,12.4,49,12,49,11.6v-1c0-0.3-0.1-0.6-0.2-0.9c-0.2-0.6-0.5-1-1.1-1.2c-0.1-0.1-0.3-0.1-0.4-0.1c-0.4-0.1-0.8-0.1-1.2-0.1
	c-0.3,0-0.6,0.1-0.9,0.1c-0.5,0.1-0.9,0.4-1.2,0.9c-0.1,0.2-0.2,0.4-0.3,0.7C43.7,10.5,43.7,11,43.7,11.5z M9.1,16.3v-0.1
	c0-2.5,0-5,0-7.5c0-0.3,0-0.7,0.2-1c0.2-0.5,0.7-0.9,1.2-1.1c0.2,0,0.3-0.1,0.5-0.1h0.1v3.9h4.2v-4h1.9v9.9h-2v-4h-4.2v4
	C11,16.3,9.4,16.3,9.1,16.3z M39,6.3v1.9h-0.1c-0.5,0-1,0-1.4,0.1c-0.2,0-0.5,0.1-0.7,0.2C36.3,8.8,36,9.2,36,9.7c0,0.1,0,0.2,0,0.3
	v3.9v1.2c0,0.4-0.2,0.7-0.5,0.9c-0.2,0.1-0.5,0.2-0.7,0.2c-0.2,0-0.4,0-0.6,0.1H34v-0.2V10c0-0.4,0-0.8,0.2-1.2
	C34.4,8,34.9,7.4,35.7,7c0.4-0.2,0.9-0.4,1.4-0.5c0.6-0.1,1.2-0.2,1.8-0.2L39,6.3z M8.9,18.2v-0.4h41.9c0,0.1,0,0.3,0,0.4H8.9z"/>
<g>
	<path class="st0" d="M34.7,20.9L34.7,20.9c0.4,0.1,0.6,0.5,0.5,0.9c0,0,0,0,0,0c-0.1,0.3-0.4,0.5-0.7,0.5h-0.7H33v-2.7h0.1h1.1
		c0.1,0,0.3,0,0.4,0c0.3,0,0.5,0.3,0.5,0.5c0,0.3-0.1,0.5-0.3,0.7L34.7,20.9z M33.5,21.2c0,0.2,0,0.5,0,0.7h0.3h0.5
		c0.2,0,0.3-0.1,0.3-0.3c0.1-0.2,0-0.4-0.2-0.4c0,0-0.1,0-0.1,0L33.5,21.2L33.5,21.2z M33.5,20.1c0,0.2,0,0.4,0,0.6h0.8
		c0.2,0,0.3-0.1,0.3-0.3c0,0,0,0,0,0c0-0.2-0.1-0.3-0.3-0.3c0,0,0,0,0,0L33.5,20.1L33.5,20.1z M47.5,22.4H47l-1.1-1.8l0,0v1.7h-0.5
		v-2.7h0.4c0.1,0,0.1,0,0.2,0.1l1,1.6l0.1,0.1l0,0v-1.8h0.5L47.5,22.4z M38.2,22.4h-0.6c-0.1,0-0.1,0-0.1-0.1l-0.4-0.6l-0.2-0.3
		c-0.1-0.1-0.2-0.2-0.4-0.2h-0.2c0,0,0,0.1,0,0.1v1h-0.5v-2.7h0.1H37c0.1,0,0.3,0,0.4,0c0.3,0,0.5,0.3,0.5,0.5c0,0.1,0,0.3,0,0.4
		c-0.1,0.3-0.3,0.5-0.5,0.5h-0.2l0.1,0.1c0.1,0.1,0.2,0.2,0.3,0.2L38.2,22.4L38.2,22.4z M36.3,20.8c0.3,0,0.6,0,0.9,0
		c0.1,0,0.2-0.1,0.2-0.2c0.1-0.2,0-0.4-0.2-0.4c0,0-0.1,0-0.1,0h-0.8V20.8z M19.8,21.1c0.2,0.1,0.3,0.3,0.5,0.5l0.4,0.6v0.1h-0.5
		c0,0-0.1,0-0.1,0l-0.4-0.6l-0.2-0.2c-0.1-0.1-0.2-0.2-0.4-0.2h-0.2v1.1h-0.5v-2.7h0.1h1.1c0.2,0,0.3,0,0.5,0c0.3,0,0.6,0.3,0.6,0.6
		c0,0.1,0,0.2,0,0.4c-0.1,0.2-0.3,0.4-0.5,0.5L19.8,21.1z M18.8,20.8c0.3,0,0.6,0,0.9,0c0.1,0,0.2-0.1,0.2-0.2
		c0.1-0.2,0-0.4-0.2-0.4c0,0-0.1,0-0.1,0h-0.8V20.8z M12.3,22.4h-0.4c-0.2,0-0.2,0-0.3-0.1l-0.9-1.5l-0.1-0.1v0.1v1.5v0.1h-0.5v-2.7
		h0.5l1.1,1.8l0,0v-1.8h0.5C12.3,19.7,12.3,22.2,12.3,22.4z M25.4,21.4v-1.8H26v2.7h-0.5c0,0,0,0,0,0l0-0.1l-1-1.5l-0.1-0.1v0.1v1.6
		h-0.5v-2.7h0.5l0.1,0.2L25.4,21.4C25.4,21.4,25.4,21.4,25.4,21.4L25.4,21.4z M50,21.4h-0.6v-0.5h1.2V21v0.9c0,0.1,0,0.1-0.1,0.2
		c-0.2,0.2-0.5,0.3-0.8,0.3c-0.2,0-0.5,0-0.7,0c-0.4-0.1-0.8-0.4-0.9-0.8c-0.1-0.4-0.1-0.8,0-1.2c0.2-0.4,0.5-0.7,1-0.8
		c0.2,0,0.5,0,0.7,0c0.3,0.1,0.6,0.4,0.7,0.7l-0.5,0.1l0,0c-0.1-0.2-0.3-0.3-0.5-0.4c-0.2,0-0.4,0-0.5,0.1c-0.2,0.1-0.3,0.3-0.4,0.5
		c-0.1,0.3-0.1,0.5,0,0.8c0.1,0.4,0.5,0.6,0.9,0.5c0.2,0,0.3-0.1,0.4-0.2c0,0,0.1-0.1,0.1-0.1L50,21.4z M41.1,21
		c0,0.2,0,0.4-0.1,0.6c-0.2,0.4-0.5,0.7-0.9,0.7c-0.2,0.1-0.4,0.1-0.6,0c-0.5-0.1-0.8-0.4-0.9-0.9c-0.1-0.3-0.1-0.7,0-1
		c0.1-0.5,0.5-0.8,1-0.9c0.2,0,0.4,0,0.6,0c0.5,0.1,0.8,0.5,0.9,1C41,20.8,41.1,20.9,41.1,21z M40.5,21c0-0.2,0-0.3-0.1-0.5
		c-0.1-0.3-0.4-0.5-0.7-0.5c-0.3,0-0.6,0.2-0.7,0.5c-0.1,0.3-0.1,0.7,0,1c0.1,0.4,0.5,0.6,0.9,0.5c0.2-0.1,0.4-0.2,0.5-0.5
		C40.5,21.3,40.5,21.2,40.5,21z M42.9,20.7l1.1,1.7h-0.6c-0.1,0-0.1,0-0.1-0.1l-0.6-1.1l-0.1-0.1c0,0-0.1,0-0.1,0.1l-0.3,0.3
		c-0.1,0.1-0.1,0.1-0.1,0.2v0.7h-0.5v-2.7h0.5v1.2c0,0,0.1,0,0.1-0.1l0.9-1c0.1-0.1,0.1-0.1,0.2-0.1h0.6c-0.1,0.1-0.1,0.2-0.2,0.2
		l-0.2,0.2l-0.2,0.2l-0.2,0.2L42.9,20.7z M29.9,20.7h1.4c0,0.1,0,0.3,0,0.5h-1.3c0,0.3,0,0.5,0,0.8h1.5v0.4h-2.1v-2.7h2
		c0,0.1,0,0.3,0,0.5h-1.5L29.9,20.7z M23.5,22.4h-0.6l-0.1-0.2c0-0.1-0.1-0.2-0.1-0.3c0,0,0-0.1-0.1-0.1h-1l-0.2,0.6h-0.6l1.1-2.7
		h0.6L23.5,22.4z M22.5,21.3l-0.4-1l0,0l-0.4,1H22.5z M15.4,19.6H16v1.9c0,0.2,0.2,0.4,0.4,0.4c0.1,0,0.3,0,0.4,0
		c0.2,0,0.3-0.2,0.3-0.3v-0.4v-1.6c0.2,0,0.4,0,0.5,0v0.1v1.6v0.3c0,0.4-0.3,0.7-0.7,0.8c-0.3,0.1-0.5,0.1-0.8,0
		c-0.4-0.1-0.7-0.4-0.7-0.8v-0.4v-1.4L15.4,19.6z"/>
	<path class="st0" d="M28.8,20.4l-0.5,0.1v-0.1c-0.1-0.3-0.4-0.5-0.7-0.4c-0.2,0-0.4,0.2-0.5,0.4c0,0.1,0,0.1-0.1,0.2
		c0,0.3,0,0.5,0,0.8c0.1,0.3,0.4,0.6,0.8,0.5c0,0,0,0,0,0c0.2-0.1,0.3-0.2,0.4-0.4c0-0.1,0.1-0.1,0.1-0.2l0.5,0.2c0,0,0,0.1,0,0.1
		c-0.1,0.2-0.2,0.4-0.4,0.6c-0.6,0.4-1.4,0.2-1.7-0.4c-0.1-0.2-0.2-0.4-0.2-0.6c0-0.2,0-0.5,0-0.7c0.1-0.6,0.7-1,1.4-0.9
		C28.3,19.6,28.7,19.9,28.8,20.4L28.8,20.4z M9.6,22.4H9v-2.7c0.2,0,0.3,0,0.5,0L9.6,22.4z M44.3,19.6h0.5v2.7h-0.5
		C44.2,22.3,44.2,19.9,44.3,19.6z"/>
</g>
</svg>
