<svg id="Layer_1" data-name="Layer 1" xmlns="http://www.w3.org/2000/svg" viewBox="0 0 57.58 48"><defs><style>.cls-1{fill:#282f39;}.cls-2{fill:#fff;}</style></defs><rect class="cls-1" width="57.58" height="48"/><path class="cls-2" d="M13.24,34.77l-.23,0a.88.88,0,0,1-.78-.77s0-.06,0-.11l.24,0,.26,0,0,.1a.51.51,0,0,0,.48.4.59.59,0,0,0,.37,0,.34.34,0,0,0,.23-.27.25.25,0,0,0-.13-.26.64.64,0,0,0-.19-.08L13,33.51l-.34-.13a.69.69,0,0,1,.05-1.26,1.36,1.36,0,0,1,.69-.09,2.21,2.21,0,0,1,.37.08.73.73,0,0,1,.47.62v.08l-.51,0c0-.05,0-.1-.05-.14a.31.31,0,0,0-.23-.21.69.69,0,0,0-.51,0,.2.2,0,0,0-.15.16.2.2,0,0,0,.12.23l.28.11.47.12.17.07a.74.74,0,0,1,.5.76.79.79,0,0,1-.55.71l-.34.07-.11,0Z"/><path class="cls-2" d="M57.58,19.74l-.8-.32c-1.34-.51-2.71-.94-4.09-1.34q-2.64-.75-5.34-1.29c-1-.19-1.94-.36-2.91-.53l-2.26-.34-1.86-.22-1.84-.19-1.2-.09-1.49-.1-1.4-.07c-1.29-.05-2.57-.07-3.86-.07H28.1L25,15.23l-2.14.09c-.7,0-1.39.08-2.09.13l-1.73.14-1.65.16L15.5,16l-1.79.24-2.78.47c-1.16.21-2.32.45-3.47.72A56.42,56.42,0,0,0,1,19.29l-.88.34-.1,0,.12-.09a20,20,0,0,1,2.17-1.21A37,37,0,0,1,7,16.44,53.73,53.73,0,0,1,12.44,15c1-.23,2-.43,3.07-.6L17.77,14c.63-.09,1.27-.16,1.9-.24l1.81-.18,2.05-.16,1.71-.1c1.7-.09,3.41-.12,5.12-.1l1.89.06,1.19,0,1.26.08,1,.07,1.14.1,1,.09,1.07.12L40,14l1.27.18,1.63.27q1.55.27,3.06.63c1.58.37,3.14.8,4.67,1.32a33.16,33.16,0,0,1,4.76,2,16.68,16.68,0,0,1,2,1.2l.2.15Z"/><path class="cls-2" d="M22.19,25a1.43,1.43,0,0,0,0,.22,2.81,2.81,0,0,0,.18.56,2,2,0,0,0,1.34,1.09,3.75,3.75,0,0,0,1.06.12H28a.58.58,0,0,1-.05.11l-.93,1.64a.17.17,0,0,1-.16.09H24.66a6.12,6.12,0,0,1-1.7-.24,3.49,3.49,0,0,1-2.37-2.33A5.51,5.51,0,0,1,20.33,25a9,9,0,0,1,0-1.37,6.19,6.19,0,0,1,.35-1.86,3.44,3.44,0,0,1,2.44-2.24,4.62,4.62,0,0,1,1.05-.18c.33,0,.66,0,1,0a5,5,0,0,1,1.61.31,3.34,3.34,0,0,1,2,1.94,5.15,5.15,0,0,1,.35,1.32,10.19,10.19,0,0,1,.08,1.35V25Zm0-1.86c.11,0,5,0,5.06,0s0,0,0-.06-.06-.29-.1-.43a2,2,0,0,0-1.3-1.34,2.88,2.88,0,0,0-.71-.14,3.87,3.87,0,0,0-1.27.07,2,2,0,0,0-1.4,1,2.42,2.42,0,0,0-.24.7A1.42,1.42,0,0,0,22.19,23.12Z"/><path class="cls-2" d="M49,24.06A8.37,8.37,0,0,1,48.71,26a4,4,0,0,1-.69,1.4,3.4,3.4,0,0,1-1.76,1.18,4.64,4.64,0,0,1-1,.2,7.32,7.32,0,0,1-1.24,0,5.07,5.07,0,0,1-1.62-.36,3.38,3.38,0,0,1-1.9-2,5.32,5.32,0,0,1-.33-1.32,8.71,8.71,0,0,1-.06-1.53,6.06,6.06,0,0,1,.39-2,3.42,3.42,0,0,1,2.41-2.13,4.62,4.62,0,0,1,1-.18c.33,0,.65,0,1,0a5.15,5.15,0,0,1,1.74.36,3.39,3.39,0,0,1,1.94,2A5.36,5.36,0,0,1,48.88,23C48.92,23.37,48.93,23.72,49,24.06Zm-1.87,0c0-.14,0-.33,0-.51a4.39,4.39,0,0,0-.17-1,1.79,1.79,0,0,0-.79-1,2.15,2.15,0,0,0-.63-.26,3.91,3.91,0,0,0-1.13-.11,4,4,0,0,0-.91.13,1.82,1.82,0,0,0-1.33,1.31,4.36,4.36,0,0,0-.18,1.08,9.87,9.87,0,0,0,0,1.09,3.72,3.72,0,0,0,.18.88,1.76,1.76,0,0,0,.84,1,2.74,2.74,0,0,0,1,.29,6,6,0,0,0,.85,0,3.49,3.49,0,0,0,.84-.13,1.8,1.8,0,0,0,1.23-1.11l.09-.3A5.81,5.81,0,0,0,47.09,24Z"/><path class="cls-2" d="M16.57,28.85H14.69c0-.05,0-.09,0-.14V25h-4s-.05,0-.05.06a.34.34,0,0,0,0,.1v3.66H8.72a.49.49,0,0,1,0-.12V21.54a2.41,2.41,0,0,1,.15-.89A1.81,1.81,0,0,1,10,19.54c.14-.05.28-.07.43-.11h.13V23c0,.17,0,.17.17.17h3.91V19.33h1.89Z"/><path class="cls-2" d="M32.65,28.8V22.75a3.67,3.67,0,0,1,.2-1.27A2.76,2.76,0,0,1,34.17,20a4.75,4.75,0,0,1,1.41-.5,8.84,8.84,0,0,1,1.71-.15h.11v1.82h0l-.67,0a4.4,4.4,0,0,0-1.24.24,1.39,1.39,0,0,0-.28.12,1.17,1.17,0,0,0-.63,1,2.17,2.17,0,0,0,0,.36c0,1.23,0,2.45,0,3.67,0,.41,0,.82,0,1.22a.82.82,0,0,1-.37.7,1.64,1.64,0,0,1-.57.26,4,4,0,0,1-.84.13Z"/><path class="cls-2" d="M48.7,30.34v.39H8.48v-.39Z"/><path class="cls-2" d="M31.63,32.07h1.13a1.84,1.84,0,0,1,.41,0,.61.61,0,0,1,.51.49.62.62,0,0,1-.28.66l-.06,0,.07,0a.63.63,0,0,1,.39.78.69.69,0,0,1-.66.56c-.25,0-.5,0-.76,0h-.74C31.61,34.62,31.61,32.18,31.63,32.07Zm.52,2.2h.28l.55,0a.3.3,0,0,0,.3-.33.31.31,0,0,0-.29-.34c-.27,0-.55,0-.82,0h0Zm0-1.16h.58l.2,0a.28.28,0,0,0,.24-.2.29.29,0,0,0-.27-.39h-.75Z"/><path class="cls-2" d="M11.28,33.79V32.07h.47c0,.08,0,2.45,0,2.63h-.52L10.2,33h0v1.67H9.69V32.07h.46a.08.08,0,0,1,.06,0s0,0,0,.06l.93,1.53.07.09Z"/><path class="cls-2" d="M24.88,34.7h-.52c-.17-.28-.35-.56-.52-.85s-.35-.56-.54-.84c0,.56,0,1.12,0,1.68h-.48V32.07h.47s0,0,.06,0l.1.15.88,1.43.06.1h0V32.07h.48Z"/><path class="cls-2" d="M18,34.69h-.51c0-.07,0-2.41,0-2.61h1.18a2.71,2.71,0,0,1,.41,0,.62.62,0,0,1,.53.5.9.9,0,0,1,0,.4.7.7,0,0,1-.52.5l-.14,0,.07.06a1.48,1.48,0,0,1,.26.24c.19.27.37.56.56.84a2.51,2.51,0,0,1-.63,0l-.2-.3c-.12-.17-.24-.34-.35-.52a.55.55,0,0,0-.55-.27H18v.13c0,.28,0,.55,0,.83Zm0-1.5a7.4,7.4,0,0,0,.82,0,.32.32,0,0,0,0-.64H18Z"/><path class="cls-2" d="M35.76,33.54l0,0a1.72,1.72,0,0,1,.47.5c.12.19.24.38.35.57l0,.07H36c-.07-.1-.14-.21-.22-.31L35.51,34l-.12-.17a.41.41,0,0,0-.32-.17h-.26v1.09h-.52V32.07h1.15a3,3,0,0,1,.43,0,.64.64,0,0,1,.56.57.75.75,0,0,1,0,.39.68.68,0,0,1-.5.44h-.06Zm-.94-.34.81,0a.26.26,0,0,0,.25-.21.32.32,0,0,0-.31-.44h-.75Z"/><path class="cls-2" d="M45.59,34.7h-.35c-.21,0-.14,0-.26-.14l-.89-1.45L44,33a3,3,0,0,0,0,.42v1.25h-.47c0-.07,0-2.49,0-2.62H44l1.06,1.73h0c0-.14,0-.28,0-.42V32.08h.46C45.61,32.16,45.61,34.58,45.59,34.7Z"/><path class="cls-2" d="M48.51,32.79l-.51.1s0,0,0-.06a.58.58,0,0,0-.44-.35.78.78,0,0,0-.64.16.71.71,0,0,0-.25.5,1.5,1.5,0,0,0,0,.56.73.73,0,0,0,.91.58,1.28,1.28,0,0,0,.38-.16A.12.12,0,0,0,48,34c0-.09,0-.17,0-.27h-.6c0-.15,0-.29,0-.43h1.13a.34.34,0,0,1,0,.1v.85a.15.15,0,0,1-.08.16,1.9,1.9,0,0,1-.75.31,1.47,1.47,0,0,1-.69,0,1.14,1.14,0,0,1-.82-.7,1.6,1.6,0,0,1,0-1.25,1.11,1.11,0,0,1,.95-.71,1.7,1.7,0,0,1,.71.05.88.88,0,0,1,.61.59Z"/><path class="cls-2" d="M36.83,33.37c0-.13,0-.28.06-.42a1.13,1.13,0,0,1,1-.91,1.52,1.52,0,0,1,.6,0,1.13,1.13,0,0,1,.82.84,1.74,1.74,0,0,1,0,1,1.13,1.13,0,0,1-.95.86,1.55,1.55,0,0,1-.74-.06,1.14,1.14,0,0,1-.77-.91C36.85,33.64,36.85,33.51,36.83,33.37Zm2,0c0-.13,0-.24,0-.35A.71.71,0,0,0,37.44,33a1.37,1.37,0,0,0,0,.85.68.68,0,0,0,.7.49.67.67,0,0,0,.64-.52A2.79,2.79,0,0,0,38.86,33.4Z"/><path class="cls-2" d="M40.38,33.22l.08-.09.91-1a.17.17,0,0,1,.16-.07h.58v0l-1,1,1,1.61h-.67l-.73-1.23-.07.06-.28.28a.29.29,0,0,0-.09.23v.65h-.52V32.07h.52v1.14Z"/><path class="cls-2" d="M28.14,32.07h1.93v.44H28.66v.59H30v.43H28.66v.73h1.46v.42h-2Z"/><path class="cls-2" d="M20.89,32.07h.56l1.06,2.63h-.57l-.24-.6h-.95c-.11,0-.11,0-.15.1s-.11.33-.17.49h-.56Zm.29.63h0l-.34,1h.72Z"/><path class="cls-2" d="M16.37,32.07h.52s0,.07,0,.1v1.41a3.55,3.55,0,0,1,0,.46.74.74,0,0,1-.64.67,1.71,1.71,0,0,1-.78,0,.75.75,0,0,1-.62-.7,3.71,3.71,0,0,1,0-.47V32.18s0-.07,0-.11h.51v1.47c0,.11,0,.22,0,.33a.42.42,0,0,0,.37.41.63.63,0,0,0,.36,0,.36.36,0,0,0,.28-.3,2.28,2.28,0,0,0,0-.26V32.07Z"/><path class="cls-2" d="M27.64,32.79l-.5.12s0,0,0-.06a.6.6,0,0,0-1-.22.7.7,0,0,0-.21.42,1.68,1.68,0,0,0,0,.74.6.6,0,0,0,.44.49.56.56,0,0,0,.68-.32l.08-.21h.06l.44.14a.74.74,0,0,0,0,.14,1.07,1.07,0,0,1-1.22.7,1.17,1.17,0,0,1-1-1.05,2.1,2.1,0,0,1,0-.79,1.16,1.16,0,0,1,1.3-.87,1.12,1.12,0,0,1,.39.1.93.93,0,0,1,.52.61Z"/><path class="cls-2" d="M8.64,32.07h.5c0,.08,0,2.45,0,2.62H8.64Z"/><path class="cls-2" d="M42.47,34.69V32.07H43c0,.08,0,2.45,0,2.62Z"/></svg>