<svg id="Layer_1" data-name="Layer 1" xmlns="http://www.w3.org/2000/svg" viewBox="0 0 54.29 48"><defs><style>.cls-1{fill:#282f39;}.cls-2{fill:#fff;}</style></defs><rect class="cls-1" width="54.29" height="48"/><polygon class="cls-2" points="24.61 22.77 20.57 22.77 20.57 19.32 18.01 19.32 18.01 28.68 20.57 28.68 20.57 24.93 24.61 24.93 24.61 28.68 27.16 28.68 27.16 19.32 24.61 19.32 24.61 22.77"/><path class="cls-2" d="M32.91,19.07a4.53,4.53,0,0,0-4.71,4.86c0,3,1.87,5,4.79,5,2.33,0,3.93-1.07,4.53-3.1H34.76a1.62,1.62,0,0,1-1.71,1.11,2,2,0,0,1-2.18-2.14h6.65c0-.33,0-.45,0-.6C37.54,21,35.75,19.07,32.91,19.07ZM30.85,22.9a2,2,0,0,1,2-1.92,1.88,1.88,0,0,1,2,1.92Z"/><path class="cls-2" d="M41.9,19.24c-.91.18-3.23.88-3.23,4.42v5h2.59V24.53c0-1.53.21-2.25.85-2.72a2.59,2.59,0,0,1,1.61-.48,3.7,3.7,0,0,1,.71.07V19.28A5.41,5.41,0,0,0,41.9,19.24Z"/><path class="cls-2" d="M49.55,19.07c-2.91,0-4.77,1.93-4.77,4.92a4.53,4.53,0,0,0,4.77,4.91c2.87,0,4.74-1.93,4.74-4.91S52.42,19.07,49.55,19.07Zm0,7.88c-1.37,0-2.16-1.11-2.16-3s.78-3,2.16-3,2.14,1.08,2.14,2.94S50.91,27,49.55,27Z"/><polygon class="cls-2" points="11 18.17 6.99 15.21 6.99 23.64 11 20.86 11 18.17"/><polygon class="cls-2" points="11 30.22 11 24.43 6.99 27.31 11 30.22"/><polygon class="cls-2" points="0 29.88 4.01 32.79 4.01 20.74 0 17.78 0 29.88"/></svg>