<?xml version="1.0" encoding="utf-8"?>
<!-- Generator: Adobe Illustrator 26.0.1, SVG Export Plug-In . SVG Version: 6.00 Build 0)  -->
<svg version="1.1" id="Layer_1" xmlns:v="https://vecta.io/nano"
	 xmlns="http://www.w3.org/2000/svg" xmlns:xlink="http://www.w3.org/1999/xlink" x="0px" y="0px" viewBox="0 0 90.2 12.5"
	 style="enable-background:new 0 0 90.2 12.5;" xml:space="preserve">
<style type="text/css">
	.st0{fill:#FFFFFF;}
</style>
<g>
	<path class="st0" d="M12.2,12.5c-3,0.1-6.1-0.6-8.8-2C2.5,10,1.6,9.3,0.9,8.6c-1.2-1.3-1.2-3.4,0-4.7c1-1.2,2.3-2,3.7-2.5
		c5-1.9,10.4-1.8,15.4,0.2c1.2,0.4,2.3,1.2,3.1,2.1c1.4,1.4,1.5,3.6,0.1,5c0,0-0.1,0.1-0.1,0.1c-1.2,1.3-2.8,2.2-4.5,2.6
		c-1,0.3-2.1,0.6-3.1,0.7C14.4,12.3,13.3,12.4,12.2,12.5z M16,11c0.2,0,0.3,0,0.5,0c1.8-0.3,3.4-0.9,4.9-1.9
		c2.5-1.8,2.5-4.2-0.1-5.9c-0.5-0.3-0.7-0.2-0.9,0.3c-1,2.6-2.4,5-4.1,7.2C16.1,10.8,16.1,10.9,16,11z M8.2,1.5
		c-0.1,0-0.3-0.1-0.4-0.1C5.7,1.7,3.7,2.6,2.1,4C0.8,5,0.6,6.8,1.5,8.1c0.2,0.2,0.3,0.4,0.5,0.5C2.3,8.8,2.6,9,2.9,9.2
		c0.6,0.4,0.7,0.4,1-0.3C4.9,6.4,6.3,4.1,8,1.9C8.1,1.8,8.1,1.6,8.2,1.5z M18.7,2.1c-0.2-0.1-0.4-0.2-0.6-0.3c-2-0.6-4-0.8-6.1-0.8
		c-0.5,0-1,0.2-1.4,0.6c-0.5,0.8-0.9,1.7-1.1,2.6c-0.2,0.7,0.2,1.1,0.9,1.2c0.3,0.1,0.6,0.1,0.8,0C13.7,4.9,16,4,18,2.6
		C18.2,2.5,18.4,2.3,18.7,2.1z M5.7,10.4c0.2,0.1,0.3,0.2,0.5,0.3c2,0.6,4.1,0.9,6.2,0.8c0.6-0.1,1.1-0.4,1.4-0.8
		c0.5-0.7,0.8-1.4,1-2.2C15,7.6,14.5,7,13.6,7c-0.3,0-0.7,0-1,0.1c-2.2,0.5-4.2,1.4-6.1,2.6C6.2,9.9,6,10.1,5.7,10.4L5.7,10.4z
		 M86,10.6h-2V7.9h-3.6c-0.1,0-0.3,0.3-0.3,0.5v2.1h-2V9.9V3.7c0-1.3,0.6-1.9,1.9-1.9h5.5c0.3,0,0.6,0,0.6,0.5v8
		C86.1,10.4,86,10.5,86,10.6z M83.9,3.7h-3.3c-0.2,0.1-0.4,0.2-0.5,0.5C79.8,5.7,80,6,81.6,6H82C84.2,6,84.2,6,83.9,3.7z M68,10.6
		V9.1V2.4c0-0.4,0.1-0.6,0.6-0.6h5.7c0.9-0.1,1.6,0.5,1.7,1.4c0,0.1,0,0.2,0,0.3V9c0.1,0.8-0.5,1.5-1.3,1.6c0,0-0.1,0-0.1,0L68,10.6
		z M70.1,6.2v2c0,0.4,0.1,0.6,0.6,0.6h2.6c0.5,0,0.7-0.2,0.7-0.7V4.3c0-0.5-0.3-0.7-0.8-0.7h-2.6c-0.4,0-0.6,0.1-0.5,0.5
		C70.1,4.9,70.1,5.5,70.1,6.2L70.1,6.2z M47.9,10.6V9.8V2.6c0-0.7,0.2-0.9,0.9-0.8c0.4,0,0.8,0,1.2,0v0.8v5.6c0,0.5,0.2,0.7,0.6,0.6
		h2.5c0.6,0,0.8-0.2,0.8-0.8V2.4c0-0.5,0.1-0.7,0.6-0.6c1.7,0,1.4-0.2,1.4,1.4v5.4c0,1.5-0.6,2.1-2.1,2.1L47.9,10.6z M60,10.6h-2
		c0-0.1,0-0.3,0-0.4c0-2.6,0-5.2,0-7.8c0-0.4,0.2-0.6,0.6-0.6h5.7c0.9-0.1,1.6,0.5,1.7,1.4c0,0.1,0,0.2,0,0.2v7c0,0,0,0.1-0.1,0.2
		H64V9.9V4.5c0-0.6-0.2-0.9-0.8-0.9c-0.8,0-1.6,0-2.4,0c-0.5,0-0.6,0.2-0.6,0.6v5.8C60.1,10.2,60,10.4,60,10.6z M30.8,10.6h-2V1.8
		h1.7c0.1,0,0.3,0.3,0.3,0.5v2.3c0,0.4,0.1,0.6,0.5,0.6h2.8c0.5,0,0.5-0.2,0.5-0.6V2.3c0-0.4,0.1-0.5,0.5-0.5c1.9,0,1.5-0.2,1.6,1.5
		v6.6c0,0.6-0.2,0.8-0.8,0.7c-1.3,0-1.3,0-1.3-1.3V7.6c0-0.6-0.2-0.6-0.6-0.6h-2.7c-0.5,0-0.7,0.1-0.6,0.6
		C30.7,7.7,30.8,10.6,30.8,10.6z M43.4,10.6h-2V8.2c0-0.4-0.2-0.8-0.4-1.2l-2.8-4.6l-0.4-0.7H40c0.2,0,0.3,0.3,0.4,0.5l1.9,3
		l0.4-0.5l1.6-2.5c0.1-0.2,0.3-0.3,0.5-0.4H47l-0.4,0.7l-2.8,4.4c-0.3,0.4-0.5,1-0.5,1.5C43.4,9.1,43.4,9.8,43.4,10.6z M90.2,10.6
		h-2V10V2.5c0-0.5,0.2-0.7,0.7-0.7c1.4,0,1.4,0,1.4,1.4L90.2,10.6L90.2,10.6z"/>
</g>
</svg>
