<svg id="Layer_1" data-name="Layer 1" xmlns="http://www.w3.org/2000/svg" viewBox="0 0 86.61 48"><defs><style>.cls-1{fill:#282f39;}.cls-2{fill:#fff;fill-rule:evenodd;}</style></defs><rect class="cls-1" width="86.61" height="48"/><path class="cls-2" d="M81,21.25H77.4c-.59,0-.76.19-.76.91v2H81Zm1.88-1.59v8.68H81V25.85H76.64v2.49H74.75v-6.8c0-1.21.49-1.88,1.89-1.88Zm-10,1.87v4.7c0,1.5-.85,2.11-1.89,2.11H65V19.66h6A1.66,1.66,0,0,1,72.87,21.53ZM71,22.06a.75.75,0,0,0-.8-.81H66.91v5.43h3.25c.74,0,.8-.48.8-.84Zm-44.42-2.4h1.89v3.42h4.22V19.66h1.89v8.68H32.65V24.8H28.43v3.54H26.54Zm11.24,0,2.36,3.55,2.34-3.55h2.29l-3.68,5.55v3.13H39.2V25.21l-3.71-5.55Zm17.59,0h6.08c.87,0,1.71.12,1.69,1.87v6.81H61.25V22.16c0-.75-.09-.91-.68-.91H57.26v7.09H55.37Zm31.24,0v8.68H84.72V19.66ZM45.72,28.34H51.8c1.21,0,1.71-.35,1.68-2.09V19.66H51.6v6.2c0,.74-.09.83-.68.83H47.61v-7H45.72Z"/><path class="cls-2" d="M13.22,25.29a3.41,3.41,0,0,1-.66,2.27,2.13,2.13,0,0,1-1.93,1.11,19.54,19.54,0,0,1-5.34-.82.33.33,0,0,1-.19-.13.22.22,0,0,1,.08-.25A15.75,15.75,0,0,1,10.34,25a5.27,5.27,0,0,1,2.14-.3A.93.93,0,0,1,13.22,25.29Zm6.32-3.68a3,3,0,0,1,1.37,2.84c-.43,1.72-2.3,2.63-3.79,3.22a11.63,11.63,0,0,1-2.52.63c-.06,0-.15,0-.16-.08l0-.1a22.37,22.37,0,0,0,3.06-4.63c.39-.73.75-1.48,1.08-2.21a.36.36,0,0,1,.15-.11A1.77,1.77,0,0,1,19.54,21.61ZM7.43,19.78l0,.1a28.68,28.68,0,0,0-4.17,6.88c-.22.21-.43-.07-.63-.16a3.07,3.07,0,0,1-1.67-3c.42-1.66,2.14-2.55,3.57-3.16a14.15,14.15,0,0,1,2.65-.72C7.26,19.7,7.38,19.69,7.43,19.78Zm9.06.33c.1.06.22.08.29.18s-.06.2-.12.27a15,15,0,0,1-4.76,2.3,5.67,5.67,0,0,1-2.66.37.84.84,0,0,1-.55-.41,2.47,2.47,0,0,1,.36-1.9c.37-.72,1-1.56,1.92-1.57A20.33,20.33,0,0,1,16.49,20.11Zm2.4.06c1.47.8,3.13,2.22,3,4.1S20,27.24,18.56,28a19.46,19.46,0,0,1-14.62.32A6.63,6.63,0,0,1,.17,25a3.36,3.36,0,0,1,1.08-3.58c2.05-1.86,4.66-2.5,7.34-2.87a19.72,19.72,0,0,1,8.59.86A13.58,13.58,0,0,1,18.89,20.17Z"/></svg>