<?xml version="1.0" encoding="utf-8"?>
<!-- Generator: Adobe Illustrator 26.0.1, SVG Export Plug-In . SVG Version: 6.00 Build 0)  -->
<svg version="1.1" id="Layer_1" xmlns:v="https://vecta.io/nano"
	 xmlns="http://www.w3.org/2000/svg" xmlns:xlink="http://www.w3.org/1999/xlink" x="0px" y="0px" viewBox="0 0 185.1 106.7"
	 style="enable-background:new 0 0 185.1 106.7;" xml:space="preserve">
<style type="text/css">
	.st0{fill-rule:evenodd;clip-rule:evenodd;fill:#FFFFFF;}
	.st1{fill-rule:evenodd;clip-rule:evenodd;fill:#FDFFFE;}
	.st2{fill-rule:evenodd;clip-rule:evenodd;fill:#F15829;}
</style>
<g>
	<path class="st0" d="M100.7,28.8c0.1-0.2,0.2-0.3,0.3-0.4l6.5,5.7c2-2.8,3.1-6.2,3.1-9.8c0-2-0.3-3.8-0.9-5.6c0-0.1,0-0.1-0.1-0.2
		c0-0.1-0.1-0.3-0.2-0.3c-0.3-0.9-0.8-1.8-1.3-2.7c-0.1-0.1-0.1-0.2-0.2-0.3c0-0.1-0.1-0.2-0.2-0.3c-0.5-0.8-1-1.5-1.6-2.1
		c-0.1-0.1-0.1-0.2-0.2-0.2c0-0.1-0.1-0.1-0.2-0.2c-0.5-0.6-1.2-1.2-1.8-1.7c-0.3-0.2-0.5-0.3-0.8-0.5c-0.2-0.2-0.3-0.3-0.5-0.3l0,0
		c-0.3-0.2-0.4-0.3-0.7-0.4l0,0c-0.1-0.1-0.2-0.1-0.3-0.2l0,0c-0.1-0.1-0.2-0.1-0.3-0.2c-1-0.5-2.1-0.9-3.2-1.3
		c-0.1,0-0.2-0.1-0.3-0.1s-0.2,0-0.3-0.1c-1.4-0.3-2.7-0.5-4.3-0.5c-9.4,0-17,7.5-17,16.9c0,1,0.1,2,0.3,3v0.1
		c0,0.2,0.1,0.3,0.1,0.4c0.2,0.9,0.5,1.9,0.9,2.8c0,0.1,0.1,0.2,0.1,0.3c0.1,0.1,0.1,0.3,0.2,0.3c0.2,0.4,0.3,0.8,0.6,1.1
		c0,0.1,0.1,0.2,0.1,0.3c0.1,0.1,0.1,0.2,0.2,0.3c0.6,1.1,1.4,2.1,2.2,3.1c0,0.1,0.1,0.1,0.2,0.2c0,0.1,0.1,0.1,0.2,0.2
		c0.1,0.1,0.1,0.1,0.2,0.2c4.3,4.4,10.4,5.8,16,4.5L93,36.3c-0.3-0.2-0.5-0.3-0.9-0.4c-0.9-0.2-1.6-0.4-2.4-0.7
		c-0.6-0.4-1.2-0.9-1.7-1.5l-1.2-1.1L86,31.9c0.9-0.9,2-1.5,2.2-2.8c0-0.1,0.2-0.2,0.3-0.2l1.1-0.9c0.6-0.4,0.9-1,0.9-1.7
		c0-0.1,0-0.2,0-0.3l0,0c0-0.1,0.2-0.3,0.3-0.3l0,0l0,0l1.9-2l1.4-0.2c0,0.3-0.1,0.5-0.3,0.8c-0.1,0.1-0.1,0.2-0.1,0.3
		c-0.1,0.1-0.1,0.3-0.1,0.3l0,0c0,0.1,0,0.2,0,0.3c0,0.4,0.1,0.9,0.3,1.2l0.3,0.6l1.8,3.1c0.1,0.2,0.4,0.3,0.7,0.4
		c0-0.3,0-0.5-0.1-0.8l-1.9-3.3c0-0.1-0.1-0.1-0.1-0.2c-0.3-0.5-0.6-1-0.4-1.6v-0.1l0.1-0.2l0.2-0.4l0.8-1.8c0.4-1,0.6-1.3,0.3-1.7
		c-0.1-0.1-0.2-0.2-0.3-0.3c-0.1-0.1-0.1-0.1-0.2-0.2c-0.1-0.1-0.3-0.2-0.3-0.3l-0.2-0.1c-0.4-0.4-1-0.5-1.5-0.2l-1.5,0.8
		c-0.5,0.3-1.3,0.3-1.7-0.3l-0.8-0.7c-0.3-0.2-0.4-0.6-0.2-0.9c0.1-0.1,0.2-0.2,0.3-0.2l3.4-2.8c0.4-0.4,1-0.4,1.5-0.1
		c1.5,1,2.9,2,4.4,2.9c0.3,0.1,0.4,0.3,0.6,0.5c0.1,0.1,0.1,0.1,0.1,0.2c0.1,0.1,0.1,0.2,0.2,0.3c0.1,0.2,0.2,0.4,0.2,0.6l0.3,2.4
		v0.3l0,0v0.2l0.3,3c0.3,1.7-0.1,3.5-1.1,5c-0.2,0.3-0.4,0.6-0.6,0.9c-0.3,0.4-0.3,0.7,0.1,1l4.1,3.8l1.6,1.5
		c0.1-0.1,0.3-0.2,0.3-0.3c-1.5-1.5-2.9-2.8-4.4-4.3c-0.4-0.4-1-0.8-1.1-1.2s0.4-0.9,0.8-1.5L100.7,28.8z M87,29.6l-1,1l-0.1,0.1
		c-0.3,0.3-0.8,0.2-0.9-0.1c-0.7-0.6-1.3-1.3-2-1.9c-0.6-0.6-1.2-1.1-1.8-1.7c-0.1-0.1-0.2-0.1-0.2-0.2c-0.2-0.3-0.2-0.5-0.1-0.8
		c0-0.1,0.2-0.3,0.3-0.3l0.3-0.3l0.3-0.3l0.1-0.2c0.5-0.5,0.8-0.7,1.2-0.4c0.1,0,0.1,0.1,0.2,0.1c0.1,0.1,0.2,0.2,0.3,0.3l0.1,0.1
		l1.5,1.5c0.1,0.1,0.2,0.2,0.2,0.3l0,0l0.4,0.4l0.1,0.1l0.3,0.2l0.2,0.2l0.7,0.7C87.4,28.7,87.4,29.2,87,29.6z M89.8,26.2
		c0,0.1,0,0.2,0,0.3c0,0.2-0.2,0.3-0.3,0.3c-0.3,0.3-0.6,0.6-0.9,0.9c-0.4,0.5-0.7,0.5-1.2,0.1L87,27.5l-0.2-0.2l-0.3-0.2l-1.3-1.3
		h-0.1l-0.9-0.9L84,24.5l-0.1-0.1l-0.7-0.6c-0.1-0.1-0.2-0.1-0.2-0.2c-0.3-0.3-0.2-0.8,0.2-1l0.9-1l0.1-0.1c0.3-0.3,0.8-0.2,1,0.1
		l1.7,1.6l0.2,0.1l0.3,0.3l2.1,2c0.1,0,0.1,0.1,0.2,0.2c0,0,0,0.1,0.1,0.1C89.8,26,89.8,26.1,89.8,26.2z M93.6,19.9
		c0.5-0.3,0.8,0,0.9,0.3c0,0.1,0.1,0.1,0.1,0.2c0,0,0,0,0,0.1c0,0.1,0.1,0.2,0.1,0.3c0,0.2,0,0.4-0.1,0.6c-0.3,0.4-0.7,0.9-1,1.2
		c0,0.1-0.1,0.1-0.2,0.2c-0.3,0.2-0.7,0.2-0.9-0.2l-0.7-0.7l-0.3-0.3l-0.2-0.2L91.1,21L93.6,19.9z M90.8,21.7
		c0.1,0.1,0.1,0.1,0.2,0.2l0.3,0.3c0.1,0.1,0.3,0.2,0.3,0.3l0.1,0.1c0.3,0.3,0.3,0.9-0.1,1.1l-0.9,0.9c0,0.1-0.1,0.1-0.2,0.2
		c-0.3,0.3-0.8,0.2-1-0.2l-1.3-1.3l-0.3-0.3l-0.2-0.2l-0.3-0.3h-0.1l-2.1-2c-0.1,0-0.1-0.1-0.2-0.2c-0.3-0.3-0.2-0.8,0.2-0.9l0.9-1
		c0-0.1,0.1-0.1,0.2-0.2c0.3-0.3,0.9-0.3,1.1,0.1C88.6,19.5,89.7,20.6,90.8,21.7z M90.4,16.2L88.2,18c0-0.9,0.9-1.3,1.4-1.9
		c0.2-0.2,0.6-0.2,0.9-0.2V16.2z"/>
	<path class="st0" d="M98.9,17l2.1-2.3l0.6-0.7c1.5,0.7,3.3,0.3,4.4-1c1.2-1.5,1.6-3.3,1-5.1l-2.5,2.8L102,10l-0.7-2.7l2.5-2.8
		c-2.4-0.7-4.9,0.8-5.6,3.2c-0.3,1-0.2,2.1,0.2,3l0.1-0.1l-3.4,3.9C95,14.5,98.9,17,98.9,17z"/>
	<path class="st0" d="M99.1,17.3l-0.3-0.3l2.7-3.2l0.2,0.1c1.5,0.7,3.2,0.3,4.1-0.9c1-1.2,1.4-2.8,1-4.4l-2.2,2.6l-2.7-0.7l-0.8-2.9
		l2.2-2.6c-1.5-0.3-3,0.3-4,1.5c-1.1,1.2-1.4,3-0.7,4.4h-0.1l0.2,0.2l-0.4,0.3l0,0l-3.1,3.5l-0.3-0.4l3.2-3.7
		c-0.9-2.5,0.3-5.2,2.7-6.2c0.9-0.3,2.1-0.4,3.1-0.2l0.4,0.1l-2.7,3l0.7,2.3l2.2,0.6l2.7-3l0.2,0.4c0.6,1.9,0.2,3.9-1.1,5.4
		c-1,1.4-2.9,1.8-4.4,1.2l-0.5,0.5L99.1,17.3L99.1,17.3z"/>
	<path class="st0" d="M81.9,29.7l-0.3-0.3L81.1,30l-2.4,2.6l-2.1,2.3c-0.4,0.4-0.6,0.9-0.6,1.5s0.2,1.1,0.7,1.5
		c0.9,0.8,2.1,0.8,2.9-0.1l0,0l1.6-1.7l3.4-3.7L81.9,29.7z M77.3,36.7c-0.1-0.3,0.1-0.7,0.3-0.9c0.3-0.1,0.7,0,0.9,0.3
		c0.2,0.3,0,0.8-0.3,0.9l0,0C77.9,37.2,77.5,37,77.3,36.7z"/>
	<path class="st0" d="M77.9,35.5c-0.1,0-0.3,0-0.3,0.1c-0.3,0.1-0.4,0.3-0.5,0.5c-0.1,0.3-0.1,0.5,0,0.7c0.2,0.3,0.4,0.6,0.9,0.6
		l0,0c0.3,0,0.6-0.2,0.8-0.4c0.1-0.2,0.2-0.3,0.2-0.5C78.8,35.9,78.4,35.5,77.9,35.5z M78.1,36.8c-0.3,0.1-0.5,0-0.6-0.3
		c0-0.1,0-0.3,0-0.3c0.1-0.1,0.2-0.2,0.3-0.3c0.1,0,0.1,0,0.2,0l0,0c0.2,0,0.3,0.1,0.4,0.3c0,0.1,0,0.1,0,0.2
		C78.4,36.6,78.3,36.8,78.1,36.8z M77.9,35.5c-0.1,0-0.3,0-0.3,0.1c-0.3,0.1-0.4,0.3-0.5,0.5c-0.1,0.3-0.1,0.5,0,0.7
		c0.2,0.3,0.4,0.6,0.9,0.6l0,0c0.3,0,0.6-0.2,0.8-0.4c0.1-0.2,0.2-0.3,0.2-0.5C78.8,35.9,78.4,35.5,77.9,35.5z M78.1,36.8
		c-0.3,0.1-0.5,0-0.6-0.3c0-0.1,0-0.3,0-0.3c0.1-0.1,0.2-0.2,0.3-0.3c0.1,0,0.1,0,0.2,0l0,0c0.2,0,0.3,0.1,0.4,0.3
		c0,0.1,0,0.1,0,0.2C78.4,36.6,78.3,36.8,78.1,36.8z M77.9,35.5c-0.1,0-0.3,0-0.3,0.1c-0.3,0.1-0.4,0.3-0.5,0.5
		c-0.1,0.3-0.1,0.5,0,0.7c0.2,0.3,0.4,0.6,0.9,0.6l0,0c0.3,0,0.6-0.2,0.8-0.4c0.1-0.2,0.2-0.3,0.2-0.5
		C78.8,35.9,78.4,35.5,77.9,35.5z M78.1,36.8c-0.3,0.1-0.5,0-0.6-0.3c0-0.1,0-0.3,0-0.3c0.1-0.1,0.2-0.2,0.3-0.3c0.1,0,0.1,0,0.2,0
		l0,0c0.2,0,0.3,0.1,0.4,0.3c0,0.1,0,0.1,0,0.2C78.4,36.6,78.3,36.8,78.1,36.8z M77.9,35.5c-0.1,0-0.3,0-0.3,0.1
		c-0.3,0.1-0.4,0.3-0.5,0.5c-0.1,0.3-0.1,0.5,0,0.7c0.2,0.3,0.4,0.6,0.9,0.6l0,0c0.3,0,0.6-0.2,0.8-0.4c0.1-0.2,0.2-0.3,0.2-0.5
		C78.8,35.9,78.4,35.5,77.9,35.5z M78.1,36.8c-0.3,0.1-0.5,0-0.6-0.3c0-0.1,0-0.3,0-0.3c0.1-0.1,0.2-0.2,0.3-0.3c0.1,0,0.1,0,0.2,0
		l0,0c0.2,0,0.3,0.1,0.4,0.3c0,0.1,0,0.1,0,0.2C78.4,36.6,78.3,36.8,78.1,36.8z M77.9,35.5c-0.1,0-0.3,0-0.3,0.1
		c-0.3,0.1-0.4,0.3-0.5,0.5c-0.1,0.3-0.1,0.5,0,0.7c0.2,0.3,0.4,0.6,0.9,0.6l0,0c0.3,0,0.6-0.2,0.8-0.4c0.1-0.2,0.2-0.3,0.2-0.5
		C78.8,35.9,78.4,35.5,77.9,35.5z M78.1,36.8c-0.3,0.1-0.5,0-0.6-0.3c0-0.1,0-0.3,0-0.3c0.1-0.1,0.2-0.2,0.3-0.3c0.1,0,0.1,0,0.2,0
		l0,0c0.2,0,0.3,0.1,0.4,0.3c0,0.1,0,0.1,0,0.2C78.4,36.6,78.3,36.8,78.1,36.8z M77.9,35.5c-0.1,0-0.3,0-0.3,0.1
		c-0.3,0.1-0.4,0.3-0.5,0.5c-0.1,0.3-0.1,0.5,0,0.7c0.2,0.3,0.4,0.6,0.9,0.6l0,0c0.3,0,0.6-0.2,0.8-0.4c0.1-0.2,0.2-0.3,0.2-0.5
		C78.8,35.9,78.4,35.5,77.9,35.5z M78.1,36.8c-0.3,0.1-0.5,0-0.6-0.3c0-0.1,0-0.3,0-0.3c0.1-0.1,0.2-0.2,0.3-0.3c0.1,0,0.1,0,0.2,0
		l0,0c0.2,0,0.3,0.1,0.4,0.3c0,0.1,0,0.1,0,0.2C78.4,36.6,78.3,36.8,78.1,36.8z M77.9,35.5c-0.1,0-0.3,0-0.3,0.1
		c-0.3,0.1-0.4,0.3-0.5,0.5c-0.1,0.3-0.1,0.5,0,0.7c0.2,0.3,0.4,0.6,0.9,0.6l0,0c0.3,0,0.6-0.2,0.8-0.4c0.1-0.2,0.2-0.3,0.2-0.5
		C78.8,35.9,78.4,35.5,77.9,35.5z M78.1,36.8c-0.3,0.1-0.5,0-0.6-0.3c0-0.1,0-0.3,0-0.3c0.1-0.1,0.2-0.2,0.3-0.3c0.1,0,0.1,0,0.2,0
		l0,0c0.2,0,0.3,0.1,0.4,0.3c0,0.1,0,0.1,0,0.2C78.4,36.6,78.3,36.8,78.1,36.8z M77.9,35.5c-0.1,0-0.3,0-0.3,0.1
		c-0.3,0.1-0.4,0.3-0.5,0.5c-0.1,0.3-0.1,0.5,0,0.7c0.2,0.3,0.4,0.6,0.9,0.6l0,0c0.3,0,0.6-0.2,0.8-0.4c0.1-0.2,0.2-0.3,0.2-0.5
		C78.8,35.9,78.4,35.5,77.9,35.5z M78.1,36.8c-0.3,0.1-0.5,0-0.6-0.3c0-0.1,0-0.3,0-0.3c0.1-0.1,0.2-0.2,0.3-0.3c0.1,0,0.1,0,0.2,0
		l0,0c0.2,0,0.3,0.1,0.4,0.3c0,0.1,0,0.1,0,0.2C78.4,36.6,78.3,36.8,78.1,36.8z M77.9,35.5c-0.1,0-0.3,0-0.3,0.1
		c-0.3,0.1-0.4,0.3-0.5,0.5c-0.1,0.3-0.1,0.5,0,0.7c0.2,0.3,0.4,0.6,0.9,0.6l0,0c0.3,0,0.6-0.2,0.8-0.4c0.1-0.2,0.2-0.3,0.2-0.5
		C78.8,35.9,78.4,35.5,77.9,35.5z M78.1,36.8c-0.3,0.1-0.5,0-0.6-0.3c0-0.1,0-0.3,0-0.3c0.1-0.1,0.2-0.2,0.3-0.3c0.1,0,0.1,0,0.2,0
		l0,0c0.2,0,0.3,0.1,0.4,0.3c0,0.1,0,0.1,0,0.2C78.4,36.6,78.3,36.8,78.1,36.8z M77.9,35.5c-0.1,0-0.3,0-0.3,0.1
		c-0.3,0.1-0.4,0.3-0.5,0.5c-0.1,0.3-0.1,0.5,0,0.7c0.2,0.3,0.4,0.6,0.9,0.6l0,0c0.3,0,0.6-0.2,0.8-0.4c0.1-0.2,0.2-0.3,0.2-0.5
		C78.8,35.9,78.4,35.5,77.9,35.5z M78.1,36.8c-0.3,0.1-0.5,0-0.6-0.3c0-0.1,0-0.3,0-0.3c0.1-0.1,0.2-0.2,0.3-0.3c0.1,0,0.1,0,0.2,0
		l0,0c0.2,0,0.3,0.1,0.4,0.3c0,0.1,0,0.1,0,0.2C78.4,36.6,78.3,36.8,78.1,36.8z M77.9,35.5c-0.1,0-0.3,0-0.3,0.1
		c-0.3,0.1-0.4,0.3-0.5,0.5c-0.1,0.3-0.1,0.5,0,0.7c0.2,0.3,0.4,0.6,0.9,0.6l0,0c0.3,0,0.6-0.2,0.8-0.4c0.1-0.2,0.2-0.3,0.2-0.5
		C78.8,35.9,78.4,35.5,77.9,35.5z M78.1,36.8c-0.3,0.1-0.5,0-0.6-0.3c0-0.1,0-0.3,0-0.3c0.1-0.1,0.2-0.2,0.3-0.3c0.1,0,0.1,0,0.2,0
		l0,0c0.2,0,0.3,0.1,0.4,0.3c0,0.1,0,0.1,0,0.2C78.4,36.6,78.3,36.8,78.1,36.8z M77.9,35.5c-0.1,0-0.3,0-0.3,0.1
		c-0.3,0.1-0.4,0.3-0.5,0.5c-0.1,0.3-0.1,0.5,0,0.7c0.2,0.3,0.4,0.6,0.9,0.6l0,0c0.3,0,0.6-0.2,0.8-0.4c0.1-0.2,0.2-0.3,0.2-0.5
		C78.8,35.9,78.4,35.5,77.9,35.5z M78.1,36.8c-0.3,0.1-0.5,0-0.6-0.3c0-0.1,0-0.3,0-0.3c0.1-0.1,0.2-0.2,0.3-0.3c0.1,0,0.1,0,0.2,0
		l0,0c0.2,0,0.3,0.1,0.4,0.3c0,0.1,0,0.1,0,0.2C78.4,36.6,78.3,36.8,78.1,36.8z M77.9,35.5c-0.1,0-0.3,0-0.3,0.1
		c-0.3,0.1-0.4,0.3-0.5,0.5c-0.1,0.3-0.1,0.5,0,0.7c0.2,0.3,0.4,0.6,0.9,0.6l0,0c0.3,0,0.6-0.2,0.8-0.4c0.1-0.2,0.2-0.3,0.2-0.5
		C78.8,35.9,78.4,35.5,77.9,35.5z M78.1,36.8c-0.3,0.1-0.5,0-0.6-0.3c0-0.1,0-0.3,0-0.3c0.1-0.1,0.2-0.2,0.3-0.3c0.1,0,0.1,0,0.2,0
		l0,0c0.2,0,0.3,0.1,0.4,0.3c0,0.1,0,0.1,0,0.2C78.4,36.6,78.3,36.8,78.1,36.8z M77.9,35.5c-0.1,0-0.3,0-0.3,0.1
		c-0.3,0.1-0.4,0.3-0.5,0.5c-0.1,0.3-0.1,0.5,0,0.7c0.2,0.3,0.4,0.6,0.9,0.6l0,0c0.3,0,0.6-0.2,0.8-0.4c0.1-0.2,0.2-0.3,0.2-0.5
		C78.8,35.9,78.4,35.5,77.9,35.5z M78.1,36.8c-0.3,0.1-0.5,0-0.6-0.3c0-0.1,0-0.3,0-0.3c0.1-0.1,0.2-0.2,0.3-0.3c0.1,0,0.1,0,0.2,0
		l0,0c0.2,0,0.3,0.1,0.4,0.3c0,0.1,0,0.1,0,0.2C78.4,36.6,78.3,36.8,78.1,36.8z M77.9,35.5c-0.1,0-0.3,0-0.3,0.1
		c-0.3,0.1-0.4,0.3-0.5,0.5c-0.1,0.3-0.1,0.5,0,0.7c0.2,0.3,0.4,0.6,0.9,0.6l0,0c0.3,0,0.6-0.2,0.8-0.4c0.1-0.2,0.2-0.3,0.2-0.5
		C78.8,35.9,78.4,35.5,77.9,35.5z M78.1,36.8c-0.3,0.1-0.5,0-0.6-0.3c0-0.1,0-0.3,0-0.3c0.1-0.1,0.2-0.2,0.3-0.3c0.1,0,0.1,0,0.2,0
		l0,0c0.2,0,0.3,0.1,0.4,0.3c0,0.1,0,0.1,0,0.2C78.4,36.6,78.3,36.8,78.1,36.8z M77.9,35.5c-0.1,0-0.3,0-0.3,0.1
		c-0.3,0.1-0.4,0.3-0.5,0.5c-0.1,0.3-0.1,0.5,0,0.7c0.2,0.3,0.4,0.6,0.9,0.6l0,0c0.3,0,0.6-0.2,0.8-0.4c0.1-0.2,0.2-0.3,0.2-0.5
		C78.8,35.9,78.4,35.5,77.9,35.5z M78.1,36.8c-0.3,0.1-0.5,0-0.6-0.3c0-0.1,0-0.3,0-0.3c0.1-0.1,0.2-0.2,0.3-0.3c0.1,0,0.1,0,0.2,0
		l0,0c0.2,0,0.3,0.1,0.4,0.3c0,0.1,0,0.1,0,0.2C78.4,36.6,78.3,36.8,78.1,36.8z M77.9,35.5c-0.1,0-0.3,0-0.3,0.1
		c-0.3,0.1-0.4,0.3-0.5,0.5c-0.1,0.3-0.1,0.5,0,0.7c0.2,0.3,0.4,0.6,0.9,0.6l0,0c0.3,0,0.6-0.2,0.8-0.4c0.1-0.2,0.2-0.3,0.2-0.5
		C78.8,35.9,78.4,35.5,77.9,35.5z M78.1,36.8c-0.3,0.1-0.5,0-0.6-0.3c0-0.1,0-0.3,0-0.3c0.1-0.1,0.2-0.2,0.3-0.3c0.1,0,0.1,0,0.2,0
		l0,0c0.2,0,0.3,0.1,0.4,0.3c0,0.1,0,0.1,0,0.2C78.4,36.6,78.3,36.8,78.1,36.8z M77.9,35.5c-0.1,0-0.3,0-0.3,0.1
		c-0.3,0.1-0.4,0.3-0.5,0.5c-0.1,0.3-0.1,0.5,0,0.7c0.2,0.3,0.4,0.6,0.9,0.6l0,0c0.3,0,0.6-0.2,0.8-0.4c0.1-0.2,0.2-0.3,0.2-0.5
		C78.8,35.9,78.4,35.5,77.9,35.5z M78.1,36.8c-0.3,0.1-0.5,0-0.6-0.3c0-0.1,0-0.3,0-0.3c0.1-0.1,0.2-0.2,0.3-0.3c0.1,0,0.1,0,0.2,0
		l0,0c0.2,0,0.3,0.1,0.4,0.3c0,0.1,0,0.1,0,0.2C78.4,36.6,78.3,36.8,78.1,36.8z M82.2,29.5l-0.3-0.3l-0.2-0.2l0,0l-0.1,0.1l0,0
		l-0.4,0.4l-0.6,0.6l-2,2.1l-2.2,2.4c-0.9,0.9-0.9,2.4,0.1,3.3c0.4,0.4,1,0.7,1.6,0.7l0,0c0.7,0,1.3-0.3,1.7-0.7l0,0l1.6-1.7
		l3.6-3.8L82.2,29.5z M76.8,37.6c-0.7-0.7-0.8-1.7-0.2-2.5l0,0l0.2-0.1l2.1-2.3l2.7-3l2.7,2.6l-3.2,3.4l-1.6,1.8
		c-0.3,0.3-0.9,0.6-1.4,0.6C77.6,38.1,77.1,38,76.8,37.6z M77.9,35.5c-0.1,0-0.3,0-0.3,0.1c-0.3,0.1-0.4,0.3-0.5,0.5
		c-0.1,0.3-0.1,0.5,0,0.7c0.2,0.3,0.4,0.6,0.9,0.6l0,0c0.3,0,0.6-0.2,0.8-0.4c0.1-0.2,0.2-0.3,0.2-0.5
		C78.8,35.9,78.4,35.5,77.9,35.5z M78.1,36.8c-0.3,0.1-0.5,0-0.6-0.3c0-0.1,0-0.3,0-0.3c0.1-0.1,0.2-0.2,0.3-0.3c0.1,0,0.1,0,0.2,0
		l0,0c0.2,0,0.3,0.1,0.4,0.3c0,0.1,0,0.1,0,0.2C78.4,36.6,78.3,36.8,78.1,36.8z M77.9,35.5c-0.1,0-0.3,0-0.3,0.1
		c-0.3,0.1-0.4,0.3-0.5,0.5c-0.1,0.3-0.1,0.5,0,0.7c0.2,0.3,0.4,0.6,0.9,0.6l0,0c0.3,0,0.6-0.2,0.8-0.4c0.1-0.2,0.2-0.3,0.2-0.5
		C78.8,35.9,78.4,35.5,77.9,35.5z M78.1,36.8c-0.3,0.1-0.5,0-0.6-0.3c0-0.1,0-0.3,0-0.3c0.1-0.1,0.2-0.2,0.3-0.3c0.1,0,0.1,0,0.2,0
		l0,0c0.2,0,0.3,0.1,0.4,0.3c0,0.1,0,0.1,0,0.2C78.4,36.6,78.3,36.8,78.1,36.8z M77.9,35.5c-0.1,0-0.3,0-0.3,0.1
		c-0.3,0.1-0.4,0.3-0.5,0.5c-0.1,0.3-0.1,0.5,0,0.7c0.2,0.3,0.4,0.6,0.9,0.6l0,0c0.3,0,0.6-0.2,0.8-0.4c0.1-0.2,0.2-0.3,0.2-0.5
		C78.8,35.9,78.4,35.5,77.9,35.5z M78.1,36.8c-0.3,0.1-0.5,0-0.6-0.3c0-0.1,0-0.3,0-0.3c0.1-0.1,0.2-0.2,0.3-0.3c0.1,0,0.1,0,0.2,0
		l0,0c0.2,0,0.3,0.1,0.4,0.3c0,0.1,0,0.1,0,0.2C78.4,36.6,78.3,36.8,78.1,36.8z M77.9,35.5c-0.1,0-0.3,0-0.3,0.1
		c-0.3,0.1-0.4,0.3-0.5,0.5c-0.1,0.3-0.1,0.5,0,0.7c0.2,0.3,0.4,0.6,0.9,0.6l0,0c0.3,0,0.6-0.2,0.8-0.4c0.1-0.2,0.2-0.3,0.2-0.5
		C78.8,35.9,78.4,35.5,77.9,35.5z M78.1,36.8c-0.3,0.1-0.5,0-0.6-0.3c0-0.1,0-0.3,0-0.3c0.1-0.1,0.2-0.2,0.3-0.3c0.1,0,0.1,0,0.2,0
		l0,0c0.2,0,0.3,0.1,0.4,0.3c0,0.1,0,0.1,0,0.2C78.4,36.6,78.3,36.8,78.1,36.8z M77.9,35.5c-0.1,0-0.3,0-0.3,0.1
		c-0.3,0.1-0.4,0.3-0.5,0.5c-0.1,0.3-0.1,0.5,0,0.7c0.2,0.3,0.4,0.6,0.9,0.6l0,0c0.3,0,0.6-0.2,0.8-0.4c0.1-0.2,0.2-0.3,0.2-0.5
		C78.8,35.9,78.4,35.5,77.9,35.5z M78.1,36.8c-0.3,0.1-0.5,0-0.6-0.3c0-0.1,0-0.3,0-0.3c0.1-0.1,0.2-0.2,0.3-0.3c0.1,0,0.1,0,0.2,0
		l0,0c0.2,0,0.3,0.1,0.4,0.3c0,0.1,0,0.1,0,0.2C78.4,36.6,78.3,36.8,78.1,36.8z M77.9,35.5c-0.1,0-0.3,0-0.3,0.1
		c-0.3,0.1-0.4,0.3-0.5,0.5c-0.1,0.3-0.1,0.5,0,0.7c0.2,0.3,0.4,0.6,0.9,0.6l0,0c0.3,0,0.6-0.2,0.8-0.4c0.1-0.2,0.2-0.3,0.2-0.5
		C78.8,35.9,78.4,35.5,77.9,35.5z M78.1,36.8c-0.3,0.1-0.5,0-0.6-0.3c0-0.1,0-0.3,0-0.3c0.1-0.1,0.2-0.2,0.3-0.3c0.1,0,0.1,0,0.2,0
		l0,0c0.2,0,0.3,0.1,0.4,0.3c0,0.1,0,0.1,0,0.2C78.4,36.6,78.3,36.8,78.1,36.8z M77.9,35.5c-0.1,0-0.3,0-0.3,0.1
		c-0.3,0.1-0.4,0.3-0.5,0.5c-0.1,0.3-0.1,0.5,0,0.7c0.2,0.3,0.4,0.6,0.9,0.6l0,0c0.3,0,0.6-0.2,0.8-0.4c0.1-0.2,0.2-0.3,0.2-0.5
		C78.8,35.9,78.4,35.5,77.9,35.5z M78.1,36.8c-0.3,0.1-0.5,0-0.6-0.3c0-0.1,0-0.3,0-0.3c0.1-0.1,0.2-0.2,0.3-0.3c0.1,0,0.1,0,0.2,0
		l0,0c0.2,0,0.3,0.1,0.4,0.3c0,0.1,0,0.1,0,0.2C78.4,36.6,78.3,36.8,78.1,36.8z M77.9,35.5c-0.1,0-0.3,0-0.3,0.1
		c-0.3,0.1-0.4,0.3-0.5,0.5c-0.1,0.3-0.1,0.5,0,0.7c0.2,0.3,0.4,0.6,0.9,0.6l0,0c0.3,0,0.6-0.2,0.8-0.4c0.1-0.2,0.2-0.3,0.2-0.5
		C78.8,35.9,78.4,35.5,77.9,35.5z M78.1,36.8c-0.3,0.1-0.5,0-0.6-0.3c0-0.1,0-0.3,0-0.3c0.1-0.1,0.2-0.2,0.3-0.3c0.1,0,0.1,0,0.2,0
		l0,0c0.2,0,0.3,0.1,0.4,0.3c0,0.1,0,0.1,0,0.2C78.4,36.6,78.3,36.8,78.1,36.8z M77.9,35.5c-0.1,0-0.3,0-0.3,0.1
		c-0.3,0.1-0.4,0.3-0.5,0.5c-0.1,0.3-0.1,0.5,0,0.7c0.2,0.3,0.4,0.6,0.9,0.6l0,0c0.3,0,0.6-0.2,0.8-0.4c0.1-0.2,0.2-0.3,0.2-0.5
		C78.8,35.9,78.4,35.5,77.9,35.5z M78.1,36.8c-0.3,0.1-0.5,0-0.6-0.3c0-0.1,0-0.3,0-0.3c0.1-0.1,0.2-0.2,0.3-0.3c0.1,0,0.1,0,0.2,0
		l0,0c0.2,0,0.3,0.1,0.4,0.3c0,0.1,0,0.1,0,0.2C78.4,36.6,78.3,36.8,78.1,36.8z M77.9,35.5c-0.1,0-0.3,0-0.3,0.1
		c-0.3,0.1-0.4,0.3-0.5,0.5c-0.1,0.3-0.1,0.5,0,0.7c0.2,0.3,0.4,0.6,0.9,0.6l0,0c0.3,0,0.6-0.2,0.8-0.4c0.1-0.2,0.2-0.3,0.2-0.5
		C78.8,35.9,78.4,35.5,77.9,35.5z M78.1,36.8c-0.3,0.1-0.5,0-0.6-0.3c0-0.1,0-0.3,0-0.3c0.1-0.1,0.2-0.2,0.3-0.3c0.1,0,0.1,0,0.2,0
		l0,0c0.2,0,0.3,0.1,0.4,0.3c0,0.1,0,0.1,0,0.2C78.4,36.6,78.3,36.8,78.1,36.8z M77.9,35.5c-0.1,0-0.3,0-0.3,0.1
		c-0.3,0.1-0.4,0.3-0.5,0.5c-0.1,0.3-0.1,0.5,0,0.7c0.2,0.3,0.4,0.6,0.9,0.6l0,0c0.3,0,0.6-0.2,0.8-0.4c0.1-0.2,0.2-0.3,0.2-0.5
		C78.8,35.9,78.4,35.5,77.9,35.5z M78.1,36.8c-0.3,0.1-0.5,0-0.6-0.3c0-0.1,0-0.3,0-0.3c0.1-0.1,0.2-0.2,0.3-0.3c0.1,0,0.1,0,0.2,0
		l0,0c0.2,0,0.3,0.1,0.4,0.3c0,0.1,0,0.1,0,0.2C78.4,36.6,78.3,36.8,78.1,36.8z M77.9,35.5c-0.1,0-0.3,0-0.3,0.1
		c-0.3,0.1-0.4,0.3-0.5,0.5c-0.1,0.3-0.1,0.5,0,0.7c0.2,0.3,0.4,0.6,0.9,0.6l0,0c0.3,0,0.6-0.2,0.8-0.4c0.1-0.2,0.2-0.3,0.2-0.5
		C78.8,35.9,78.4,35.5,77.9,35.5z M78.1,36.8c-0.3,0.1-0.5,0-0.6-0.3c0-0.1,0-0.3,0-0.3c0.1-0.1,0.2-0.2,0.3-0.3c0.1,0,0.1,0,0.2,0
		l0,0c0.2,0,0.3,0.1,0.4,0.3c0,0.1,0,0.1,0,0.2C78.4,36.6,78.3,36.8,78.1,36.8z M77.9,35.5c-0.1,0-0.3,0-0.3,0.1
		c-0.3,0.1-0.4,0.3-0.5,0.5c-0.1,0.3-0.1,0.5,0,0.7c0.2,0.3,0.4,0.6,0.9,0.6l0,0c0.3,0,0.6-0.2,0.8-0.4c0.1-0.2,0.2-0.3,0.2-0.5
		C78.8,35.9,78.4,35.5,77.9,35.5z M78.1,36.8c-0.3,0.1-0.5,0-0.6-0.3c0-0.1,0-0.3,0-0.3c0.1-0.1,0.2-0.2,0.3-0.3c0.1,0,0.1,0,0.2,0
		l0,0c0.2,0,0.3,0.1,0.4,0.3c0,0.1,0,0.1,0,0.2C78.4,36.6,78.3,36.8,78.1,36.8z M77.9,35.5c-0.1,0-0.3,0-0.3,0.1
		c-0.3,0.1-0.4,0.3-0.5,0.5c-0.1,0.3-0.1,0.5,0,0.7c0.2,0.3,0.4,0.6,0.9,0.6l0,0c0.3,0,0.6-0.2,0.8-0.4c0.1-0.2,0.2-0.3,0.2-0.5
		C78.8,35.9,78.4,35.5,77.9,35.5z M78.1,36.8c-0.3,0.1-0.5,0-0.6-0.3c0-0.1,0-0.3,0-0.3c0.1-0.1,0.2-0.2,0.3-0.3c0.1,0,0.1,0,0.2,0
		l0,0c0.2,0,0.3,0.1,0.4,0.3c0,0.1,0,0.1,0,0.2C78.4,36.6,78.3,36.8,78.1,36.8z M77.9,35.5c-0.1,0-0.3,0-0.3,0.1
		c-0.3,0.1-0.4,0.3-0.5,0.5c-0.1,0.3-0.1,0.5,0,0.7c0.2,0.3,0.4,0.6,0.9,0.6l0,0c0.3,0,0.6-0.2,0.8-0.4c0.1-0.2,0.2-0.3,0.2-0.5
		C78.8,35.9,78.4,35.5,77.9,35.5z M78.1,36.8c-0.3,0.1-0.5,0-0.6-0.3c0-0.1,0-0.3,0-0.3c0.1-0.1,0.2-0.2,0.3-0.3c0.1,0,0.1,0,0.2,0
		l0,0c0.2,0,0.3,0.1,0.4,0.3c0,0.1,0,0.1,0,0.2C78.4,36.6,78.3,36.8,78.1,36.8z M77.9,35.5c-0.1,0-0.3,0-0.3,0.1
		c-0.3,0.1-0.4,0.3-0.5,0.5c-0.1,0.3-0.1,0.5,0,0.7c0.2,0.3,0.4,0.6,0.9,0.6l0,0c0.3,0,0.6-0.2,0.8-0.4c0.1-0.2,0.2-0.3,0.2-0.5
		C78.8,35.9,78.4,35.5,77.9,35.5z M78.1,36.8c-0.3,0.1-0.5,0-0.6-0.3c0-0.1,0-0.3,0-0.3c0.1-0.1,0.2-0.2,0.3-0.3c0.1,0,0.1,0,0.2,0
		l0,0c0.2,0,0.3,0.1,0.4,0.3c0,0.1,0,0.1,0,0.2C78.4,36.6,78.3,36.8,78.1,36.8z M77.9,35.5c-0.1,0-0.3,0-0.3,0.1
		c-0.3,0.1-0.4,0.3-0.5,0.5c-0.1,0.3-0.1,0.5,0,0.7c0.2,0.3,0.4,0.6,0.9,0.6l0,0c0.3,0,0.6-0.2,0.8-0.4c0.1-0.2,0.2-0.3,0.2-0.5
		C78.8,35.9,78.4,35.5,77.9,35.5z M78.1,36.8c-0.3,0.1-0.5,0-0.6-0.3c0-0.1,0-0.3,0-0.3c0.1-0.1,0.2-0.2,0.3-0.3c0.1,0,0.1,0,0.2,0
		l0,0c0.2,0,0.3,0.1,0.4,0.3c0,0.1,0,0.1,0,0.2C78.4,36.6,78.3,36.8,78.1,36.8z M77.9,35.5c-0.1,0-0.3,0-0.3,0.1
		c-0.3,0.1-0.4,0.3-0.5,0.5c-0.1,0.3-0.1,0.5,0,0.7c0.2,0.3,0.4,0.6,0.9,0.6l0,0c0.3,0,0.6-0.2,0.8-0.4c0.1-0.2,0.2-0.3,0.2-0.5
		C78.8,35.9,78.4,35.5,77.9,35.5z M78.1,36.8c-0.3,0.1-0.5,0-0.6-0.3c0-0.1,0-0.3,0-0.3c0.1-0.1,0.2-0.2,0.3-0.3c0.1,0,0.1,0,0.2,0
		l0,0c0.2,0,0.3,0.1,0.4,0.3c0,0.1,0,0.1,0,0.2C78.4,36.6,78.3,36.8,78.1,36.8z M77.9,35.5c-0.1,0-0.3,0-0.3,0.1
		c-0.3,0.1-0.4,0.3-0.5,0.5c-0.1,0.3-0.1,0.5,0,0.7c0.2,0.3,0.4,0.6,0.9,0.6l0,0c0.3,0,0.6-0.2,0.8-0.4c0.1-0.2,0.2-0.3,0.2-0.5
		C78.8,35.9,78.4,35.5,77.9,35.5z M78.1,36.8c-0.3,0.1-0.5,0-0.6-0.3c0-0.1,0-0.3,0-0.3c0.1-0.1,0.2-0.2,0.3-0.3c0.1,0,0.1,0,0.2,0
		l0,0c0.2,0,0.3,0.1,0.4,0.3c0,0.1,0,0.1,0,0.2C78.4,36.6,78.3,36.8,78.1,36.8z M77.9,35.5c-0.1,0-0.3,0-0.3,0.1
		c-0.3,0.1-0.4,0.3-0.5,0.5c-0.1,0.3-0.1,0.5,0,0.7c0.2,0.3,0.4,0.6,0.9,0.6l0,0c0.3,0,0.6-0.2,0.8-0.4c0.1-0.2,0.2-0.3,0.2-0.5
		C78.8,35.9,78.4,35.5,77.9,35.5z M78.1,36.8c-0.3,0.1-0.5,0-0.6-0.3c0-0.1,0-0.3,0-0.3c0.1-0.1,0.2-0.2,0.3-0.3c0.1,0,0.1,0,0.2,0
		l0,0c0.2,0,0.3,0.1,0.4,0.3c0,0.1,0,0.1,0,0.2C78.4,36.6,78.3,36.8,78.1,36.8z M77.9,35.5c-0.1,0-0.3,0-0.3,0.1
		c-0.3,0.1-0.4,0.3-0.5,0.5c-0.1,0.3-0.1,0.5,0,0.7c0.2,0.3,0.4,0.6,0.9,0.6l0,0c0.3,0,0.6-0.2,0.8-0.4c0.1-0.2,0.2-0.3,0.2-0.5
		C78.8,35.9,78.4,35.5,77.9,35.5z M78.1,36.8c-0.3,0.1-0.5,0-0.6-0.3c0-0.1,0-0.3,0-0.3c0.1-0.1,0.2-0.2,0.3-0.3c0.1,0,0.1,0,0.2,0
		l0,0c0.2,0,0.3,0.1,0.4,0.3c0,0.1,0,0.1,0,0.2C78.4,36.6,78.3,36.8,78.1,36.8z"/>
	<path class="st0" d="M83,28.8h-0.2L82.3,29l-0.5,0.2l-0.8,0.3l-3.2,1.3L73,32.6l-1.3-3.3l5-2l2.8-1.1l2-0.8l-0.3,0.3
		c-0.1,0.1-0.2,0.2-0.3,0.3c-0.1,0.3-0.1,0.5,0.1,0.8c0.1,0.1,0.1,0.2,0.2,0.2C81.9,27.6,82.4,28.2,83,28.8z"/>
	<path class="st1" d="M86.6,27.1l0.3,0.2l-0.7,0.3l-0.3-0.2l-0.1-0.1l-0.4-0.4l0,0c-0.1-0.1-0.1-0.2-0.2-0.3l-1.5-1.5L83.6,25
		c-0.1-0.1-0.2-0.2-0.3-0.3l0.7-0.3l0.3,0.3l0.9,0.9h0.1L86.6,27.1z"/>
	<path class="st0" d="M113.3,15l-1.3-0.2l-2.2-0.3l0,0l-1.8,0.7l-8.4,3.2l-0.3,0.2c0.1,0.1,0.1,0.2,0.2,0.3c0.1,0.2,0.2,0.4,0.2,0.6
		l0.3,2.4v0.3l0,0l9.7-3.8l1.5-0.5l2.4-2.9H113.3z M111.2,17.3l-1-2.4l2.1,0.2l0,0l0.3,0.6l-0.1,0.1L111.2,17.3z"/>
	<path class="st0" d="M112,14.8L112,14.8l0.2,0.3l0,0l0,0l0.3,0.6l-0.1,0.1l0.1,0.2l0.8-1l0.1-0.1H112z M99.8,18.8
		c0-0.1-0.1-0.2-0.2-0.3c0-0.1-0.1-0.2-0.1-0.2c-0.3-0.6-0.7-0.9-0.8-0.9l-5.9-3.6l-5.1,2.3L84,17.9l-4.7,8l0.3,0.3l0.1,0.1l0.3,0.3
		l2.2,2.3l0.2,0.2l0,0l0.3,0.3l3.6,3.7l0.6-0.5L86,31.7c0.9-0.9,2-1.5,2.2-2.8c0-0.1,0.2-0.2,0.3-0.2l1.1-0.9c0.6-0.4,0.9-1,0.9-1.7
		c0-0.1,0-0.2,0-0.3l0,0c0-0.1,0.2-0.3,0.3-0.3l0,0l0,0l1.9-2l1.4-0.2c0,0.3-0.1,0.5-0.3,0.8c-0.1,0.1-0.1,0.2-0.1,0.3
		c-0.1,0.1-0.1,0.3-0.1,0.3l0,0c0,0.1,0,0.2,0,0.3c0,0.4,0.1,0.9,0.3,1.2l0.3,0.6l0.6-0.4c-0.3-0.5-0.6-1-0.4-1.6v-0.1l0.1-0.2
		l0.2-0.4l0.8-1.8c0.4-1,0.6-1.3,0.3-1.7c-0.1-0.1-0.2-0.2-0.3-0.3c-0.1-0.1-0.1-0.1-0.2-0.2c-0.1-0.1-0.3-0.2-0.3-0.3l-0.2-0.1
		c-0.4-0.4-1-0.5-1.5-0.2l-1.5,0.8c-0.5,0.3-1.3,0.3-1.7-0.3l-0.8-0.7c-0.3-0.2-0.4-0.6-0.2-0.9c0.1-0.1,0.2-0.2,0.3-0.2l3.4-2.8
		c0.4-0.4,1-0.4,1.5-0.1c1.5,1,2.9,2,4.4,2.9c0.3,0.1,0.4,0.3,0.6,0.5c0.1,0.1,0.1,0.1,0.1,0.2c0.1,0.1,0.1,0.2,0.2,0.3
		c0.1,0.2,0.2,0.4,0.2,0.6l0.3,2.4v0.3l0.3-0.3c0-0.1,0-0.1,0-0.2C100.2,20.4,100,19.5,99.8,18.8z M87,29.6l-1,1l-0.1,0.1
		c-0.3,0.3-0.8,0.2-0.9-0.1c-0.7-0.6-1.3-1.3-2-1.9c-0.6-0.6-1.2-1.1-1.8-1.7c-0.1-0.1-0.2-0.1-0.2-0.2c-0.2-0.3-0.2-0.5-0.1-0.8
		c0-0.1,0.2-0.3,0.3-0.3l0.3-0.3l0.3-0.3l0.1-0.2c0.5-0.5,0.8-0.7,1.2-0.4c0.1,0,0.1,0.1,0.2,0.1c0.1,0.1,0.2,0.2,0.3,0.3l0.1,0.1
		l1.5,1.5c0.1,0.1,0.2,0.2,0.2,0.3l0,0l0.4,0.4l0.1,0.1l0.3,0.2l0.2,0.2l0.7,0.7C87.4,28.7,87.4,29.2,87,29.6z M89.8,26.2
		c0,0.1,0,0.2,0,0.3c0,0.2-0.2,0.3-0.3,0.3c-0.3,0.3-0.6,0.6-0.9,0.9c-0.4,0.5-0.7,0.5-1.2,0.1L87,27.5l-0.2-0.2l-0.3-0.2l-1.3-1.3
		h-0.1l-0.9-0.9L84,24.5l-0.1-0.1l-0.7-0.6c-0.1-0.1-0.2-0.1-0.2-0.2c-0.3-0.3-0.2-0.8,0.2-1l0.9-1l0.1-0.1c0.3-0.3,0.8-0.2,1,0.1
		l1.7,1.6l0.2,0.1l0.3,0.3l2.1,2c0.1,0,0.1,0.1,0.2,0.2c0,0,0,0.1,0.1,0.1C89.8,26,89.8,26.1,89.8,26.2z M93.6,19.9
		c0.5-0.3,0.8,0,0.9,0.3c0,0.1,0.1,0.1,0.1,0.2c0,0,0,0,0,0.1c0,0.1,0.1,0.2,0.1,0.3c0,0.2,0,0.4-0.1,0.6c-0.3,0.4-0.7,0.9-1,1.2
		c0,0.1-0.1,0.1-0.2,0.2c-0.3,0.2-0.7,0.2-0.9-0.2l-0.7-0.7l-0.3-0.3l-0.2-0.2L91.1,21L93.6,19.9z M90.8,21.7
		c0.1,0.1,0.1,0.1,0.2,0.2l0.3,0.3c0.1,0.1,0.3,0.2,0.3,0.3l0.1,0.1c0.3,0.3,0.3,0.9-0.1,1.1l-0.9,0.9c0,0.1-0.1,0.1-0.2,0.2
		c-0.3,0.3-0.8,0.2-1-0.2l-1.3-1.3l-0.3-0.3l-0.2-0.2l-0.3-0.3h-0.1l-2.1-2c-0.1,0-0.1-0.1-0.2-0.2c-0.3-0.3-0.2-0.8,0.2-0.9l0.9-1
		c0-0.1,0.1-0.1,0.2-0.2c0.3-0.3,0.9-0.3,1.1,0.1C88.6,19.5,89.7,20.6,90.8,21.7z M90.4,16.2L88.2,18c0-0.9,0.9-1.3,1.4-1.9
		c0.2-0.2,0.6-0.2,0.9-0.2V16.2z"/>
	<path class="st0" d="M83.2,29.2l-0.5,0.2l-0.5,0.2l-0.3,0.1l-0.9,0.3l-0.5,0.2L78,31l-5,1.9l-1.6-3.7l5.3-2.1l2.7-1.1l2.3-0.9
		l-0.3,0.3l-0.3,0.3c-0.1,0.1-0.2,0.2-0.3,0.3l-1.1,0.4l-3,1.2l-4.7,1.8l1.1,2.7l4.4-1.7l3.8-1.5l0,0h0.1l0.5-0.2l0.5-0.2
		c0,0.1,0.1,0.2,0.2,0.2C82.9,29,83.1,29.1,83.2,29.2z"/>
	<polygon class="st0" points="86.9,27.3 87,27.5 86.4,27.7 86.2,27.5 85.9,27.4 86.6,27.1 	"/>
	<path class="st0" d="M90.5,25.8L90.5,25.8c0,0.1,0,0.2,0,0.3l-0.8,0.3c0-0.1,0-0.2,0-0.3c0-0.1,0-0.2-0.1-0.3l1.1-0.4l0,0
		C90.7,25.6,90.5,25.7,90.5,25.8z"/>
	<path class="st0" d="M84,24.5l0.3,0.3l-0.7,0.3l-0.1-0.1c-0.1-0.1-0.2-0.2-0.3-0.3c-0.1,0-0.1-0.1-0.2-0.1l0.7-0.3L84,24.5z"/>
	<polygon class="st0" points="87.9,23.1 88.2,23.3 87.5,23.6 87.1,23.3 87,23.2 87.7,22.9 	"/>
	<path class="st0" d="M91.7,21.6l0.3,0.3l-0.6,0.3l-0.3-0.3c-0.1-0.1-0.1-0.1-0.2-0.2L91.7,21.6L91.7,21.6z"/>
	<path class="st0" d="M93.7,24.3l0.9-0.3l-0.2,0.4l-0.1,0.2v0.1L93.6,25c0-0.1,0-0.2,0-0.3l0,0C93.6,24.5,93.6,24.5,93.7,24.3z"/>
	<path class="st0" d="M95.4,20.1c0.1,0.1,0.2,0.2,0.3,0.3l-0.9,0.3c0-0.1,0-0.2-0.1-0.3c0,0,0,0,0-0.1s-0.1-0.1-0.1-0.2l0.7-0.3
		C95.3,20,95.4,20.1,95.4,20.1z"/>
	<path class="st0" d="M114.1,14.7l-2.7,3.2l-1.7,0.7l-9.7,3.8v-0.2l0,0V22l0.3-0.2l9.2-3.6l1.3-0.5l0.3-0.1l0.2-0.3l0,0l1.3-1.5
		l0.1-0.1l0.4-0.5l-0.7-0.1l0,0l-2.1-0.2H110l-0.3,0.1l-1.4,0.5l-8.4,3.2L99.6,19c0-0.1-0.1-0.2-0.2-0.3c0-0.1-0.1-0.2-0.1-0.2
		l0.3-0.2l8.4-3.2l1.9-0.8L114.1,14.7z"/>
	<polygon class="st0" points="111.2,17.3 112.4,15.7 111.2,17.3 111,17.5 109.8,14.9 110.1,14.9 	"/>
	<path class="st0" d="M112.2,15.1l-2.1-0.3L112.2,15.1z"/>
	<path class="st2" d="M109.8,14.9l1.1,2.7L109.8,14.9L109.8,14.9z"/>
	<polygon class="st0" points="111.2,17.4 110.6,17.6 109.5,15 109.8,14.9 110.1,14.8 110.1,14.9 111.2,17.3 111.2,17.3 	"/>
	<path class="st0" d="M117.7,62.3l-0.4-0.8h2.1l0.4,0.8H117.7z M116.4,59.6h2l0.4,0.8h-2.1L116.4,59.6z M113.6,62.3L113.6,62.3
		l-0.3-0.8h2.2l0.3,0.8H113.6z M112.5,59.6h2l0.3,0.8h-2.1L112.5,59.6z M111.7,57.5h1.9l0.3,0.8H112C112,58.3,111.7,57.5,111.7,57.5
		z M109.4,62.3L109.4,62.3l-0.2-0.8h2.2l0.3,0.8H109.4z M108.6,59.6h2.1l0.3,0.8h-2.1L108.6,59.6z M108,57.5h1.9l0.3,0.8h-2
		L108,57.5z M105.2,62.3L105.2,62.3l-0.2-0.8h2.2l0.2,0.8H105.2z M101,62.3L101,62.3l-0.1-0.8h2.2l0.1,0.8H101z M100.8,59.6h3.9
		l-0.3-2.1h1.9l0.8,2.8h-6.2C100.9,60.4,100.8,59.6,100.8,59.6z M100.6,57.6L100.6,57.6l0.1,0.8h2l-0.1-0.8H100.6z M80.1,62.3
		L80.1,62.3l0.3-0.8h18.6v0.8H80.1z M79.1,60.4H77l0.4-0.8h2L79.1,60.4z M78.1,62.3h-2.2l0.4-0.8h2.1L78.1,62.3z M75.2,60.4h-2
		l0.5-0.8h2L75.2,60.4z M74,62.3h-2.2l0.5-0.8h2.1L74,62.3z M71.1,60.4h-2l0.6-0.8h1.9L71.1,60.4z M69.7,62.3h-2.1l0.6-0.8h2.1
		L69.7,62.3z M71.4,57.5h1.7l-0.5,0.9h-1.8L71.4,57.5z M75.1,57.5h1.8l-0.5,0.8h-1.8L75.1,57.5z M78.7,57.5h1.8l-0.3,0.8h-1.9
		L78.7,57.5z M81.4,59.6h2.1l-0.3,0.8h-2.1L81.4,59.6z M82.3,57.5h1.9L84,58.2h-2L82.3,57.5z M85.2,59.6h2.1L87,60.4H85L85.2,59.6
		L85.2,59.6z M86,57.6h1.9l-0.3,0.8h-1.9L86,57.6L86,57.6z M89.1,59.6h2.1l-0.2,0.8h-2.1L89.1,59.6L89.1,59.6z M89.6,57.6h1.9
		l-0.1,0.8h-1.9L89.6,57.6L89.6,57.6z M92.9,59.6H95l-0.1,0.8h-2.1L92.9,59.6L92.9,59.6z M93.3,57.6h1.9v0.8h-2L93.3,57.6L93.3,57.6
		z M96.9,59.6h2.1v0.8h-2.1L96.9,59.6L96.9,59.6z M97,57.6h2v0.8h-2V57.6L97,57.6z M117.1,57.6L117.1,57.6l0.4,0.8h-1.9l-0.3-0.8
		H117.1z M118.7,56.9L118.7,56.9c-0.2-0.2-0.4-0.3-0.7-0.3H70.4c-0.3,0-0.4,0.1-0.6,0.3L65,62.4c-0.3,0.3-0.3,0.9,0.1,1.1
		c0.2,0.1,0.3,0.2,0.5,0.2H122c0.3,0,0.6-0.2,0.7-0.4c0.2-0.3,0.1-0.6-0.1-0.9L118.7,56.9L118.7,56.9z M83.3,54.1
		c-0.8,0.8,0.4,1.2,0.4,1.2h19.8c0,0,1.2-0.4,0.4-1.2c-0.8-0.8-2.8-1.3-3.1-4.6v-2.7H86.4v2.7C86.2,52.7,84,53.3,83.3,54.1
		L83.3,54.1z"/>
	<path class="st0" d="M101.2,44.6L101.2,44.6L101.2,44.6L101.2,44.6z"/>
	<path class="st0" d="M88.1,18.1L88.1,18.1L88.1,18.1L88.1,18.1z M91.1,21L91.1,21L91.1,21L91.1,21z"/>
	<path class="st0" d="M0,102.1l3.3-4.8c2.4,2.5,5.7,3.9,9.1,3.9s5-1.5,5-3.2c0-5-16.5-1.5-16.5-12.3c0-4.8,4.1-8.8,10.9-8.8
		c4.1-0.2,8.1,1.3,11.2,4l-3.4,4.6c-2.3-2.1-5.3-3.2-8.4-3.2c-2.6,0-4,1.1-4,2.8c0,4.5,16.5,1.5,16.5,12.2c0,5.3-3.8,9.2-11.5,9.2
		C6.7,106.7,2.7,104.8,0,102.1L0,102.1z M41.1,106.2l-5.5-8l-2.5,2.7v5.3h-5.5V77.4h5.5v17.2l7.9-9.3h6.7l-8.2,9.4l8.5,11.4
		L41.1,106.2L41.1,106.2z M94.5,106.2V77.4h6.1v28.8H94.5L94.5,106.2z M120.2,106.2V93.6c0-2.9-1.5-3.9-3.8-3.9
		c-1.9,0-3.6,0.9-4.7,2.4v14.1h-5.5V85.3h5.5V88c1.9-2.1,4.5-3.2,7.3-3.2c4.6,0,6.8,2.6,6.8,6.6v14.7L120.2,106.2z M145.4,99.4V92
		c-1.1-1.5-2.8-2.4-4.7-2.4c-3.1,0-5.3,2.5-5.3,6s2.1,6.1,5.3,6.1C142.5,101.8,144.2,100.9,145.4,99.4L145.4,99.4z M145.4,106.2
		L145.4,106.2v-2.7c-1.5,2-3.9,3.2-6.4,3.2c-5.2,0-9.2-4-9.2-10.9c0-6.8,3.9-10.9,9.2-10.9c2.5,0,4.9,1.2,6.4,3.2V77.4h5.5v28.8
		H145.4z M156.3,106.2V85.3h5.5v20.8L156.3,106.2L156.3,106.2z M155.8,79.8L155.8,79.8c0-1.8,1.5-3.2,3.2-3.2s3.2,1.5,3.2,3.2l0,0
		c0,1.8-1.5,3.2-3.2,3.2S155.8,81.6,155.8,79.8L155.8,79.8z M179.6,101.2v-2.6c-1.1-1.3-2.7-1.9-4.4-1.8c-2.1,0-3.9,1.2-3.9,3.2
		s1.8,3.1,3.9,3.1C176.9,103.1,178.5,102.4,179.6,101.2z M179.6,106.2L179.6,106.2V104c-1.7,1.8-4.1,2.8-6.6,2.7
		c-3.3,0-7.2-2.2-7.2-6.9c0-4.9,3.9-6.7,7.2-6.7c2.5-0.1,4.9,0.8,6.6,2.6v-2.6c0-2.1-1.8-3.5-4.6-3.5c-2.2,0-4.4,0.9-6,2.5l-2.1-3.8
		c2.5-2.2,5.8-3.3,9.1-3.3c4.8,0,9.1,1.9,9.1,7.9v13.4L179.6,106.2z"/>
	<path class="st0" d="M53.4,80.3l-4,5.5h1.3v20.3h5.5V85.9h1.3L53.4,80.3L53.4,80.3z"/>
	<path class="st0" d="M64.3,72.8l-4,5.5h1.3v27.9H67V78.3h1.3L64.3,72.8L64.3,72.8z"/>
	<path class="st0" d="M75.2,72.8l-4,5.5h1.3v27.9H78V78.3h1.3L75.2,72.8L75.2,72.8z"/>
	<path id="B_00000162326877397599817720000012321425644631397253_" class="st0" d="M70.1,1.5c-0.9,0-1.7,0.8-1.7,1.7v40.3
		c0,0.9,0.8,1.7,1.7,1.7h47.5c0.9,0,1.7-0.8,1.7-1.7V3.2c0-0.9-0.8-1.7-1.7-1.7L70.1,1.5z M117.5,46.9H70.1c-1.8,0-3.3-1.5-3.3-3.2
		V3.2c0-1.8,1.5-3.2,3.3-3.2h47.5c1.8,0,3.3,1.5,3.3,3.3v40.2C120.8,45.4,119.4,46.9,117.5,46.9L117.5,46.9L117.5,46.9z"/>
</g>
</svg>
