<svg id="Layer_1" data-name="Layer 1" xmlns="http://www.w3.org/2000/svg" viewBox="0 0 42.62 48"><defs><style>.cls-1{fill:#282f39;}.cls-2{fill:#fff;fill-rule:evenodd;}</style></defs><rect class="cls-1" width="42.62" height="48"/><path class="cls-2" d="M19.79,18.49l-.27.29,0,0a.18.18,0,0,1-.26,0l-.52-.51c-.17-.15-.32-.3-.48-.46a.12.12,0,0,1-.05,0,.17.17,0,0,1,0-.19s0-.06.07-.09l.09-.09.06-.07,0,0c.13-.14.21-.18.32-.11l0,0,.07.06,0,0,.43.41s0,.05.05.06h0l.12.12h0l.06.06.05,0,.18.18A.21.21,0,0,1,19.79,18.49Zm.73-.92a.13.13,0,0,1,0,.06.14.14,0,0,1-.07.1c-.08.09-.17.17-.24.26s-.2.14-.33,0l-.09-.09-.05,0-.06-.06-.35-.34h0L19,17.22,19,17.14l0,0-.17-.17-.05-.05a.2.2,0,0,1,.05-.28l.26-.27s0,0,0,0a.19.19,0,0,1,.28,0l.46.44,0,0,.08.08.55.53,0,0v0A.12.12,0,0,1,20.52,17.57Zm1-1.69a.2.2,0,0,1,.27.09l0,0h0a.22.22,0,0,1,0,.08.2.2,0,0,1,0,.15,3,3,0,0,1-.28.33l0,0a.17.17,0,0,1-.23,0l-.18-.18L21,16.34l0,0-.11-.1Zm-.75.49s0,0,0,0l.08.08.09.08,0,0a.21.21,0,0,1,0,.29l-.25.26s0,0-.05.05a.2.2,0,0,1-.28-.05l-.35-.34L20,16.74l0,0-.09-.09h0l-.56-.54a.08.08,0,0,1,0,0,.18.18,0,0,1,0-.25l.26-.28s0,0,0,0a.22.22,0,0,1,.29,0Zm-.13-1.49-.59.51c0-.26.23-.35.36-.5s.16,0,.23-.06Zm2.78,3.4s.05-.07.08-.13l1.74,1.55a4.51,4.51,0,0,0,.84-2.64,4.69,4.69,0,0,0-.25-1.51l0-.05,0-.09a4.57,4.57,0,0,0-.35-.7.16.16,0,0,0,0-.07.43.43,0,0,1,0-.07A5.7,5.7,0,0,0,25,14L24.9,14l0,0a4.32,4.32,0,0,0-.5-.45l-.2-.15-.14-.1h0a1.08,1.08,0,0,0-.18-.11h0l-.08,0h0l-.09,0a4.14,4.14,0,0,0-.84-.35l-.07,0-.07,0a4.68,4.68,0,0,0-1.14-.14A4.57,4.57,0,0,0,17,17.05a4.25,4.25,0,0,0,.07.8v0a.5.5,0,0,1,0,.12,4.69,4.69,0,0,0,.24.75.19.19,0,0,0,0,.07.3.3,0,0,0,0,.08,2.92,2.92,0,0,0,.14.31l0,.06,0,.07a5.22,5.22,0,0,0,.6.82l0,0,.05,0,.05.06a4.59,4.59,0,0,0,4.29,1.22l-1.2-1.23a.52.52,0,0,0-.23-.1,3.75,3.75,0,0,1-.65-.2,2.44,2.44,0,0,1-.46-.39l-.32-.31-.23-.21c.24-.25.55-.4.6-.76,0,0,0,0,.07-.05l.31-.25a.57.57,0,0,0,.25-.47v-.06h0s0-.06.06-.09h0l.51-.53.36-.06a.79.79,0,0,1-.06.22.09.09,0,0,0,0,.07.16.16,0,0,0,0,.09h0v.06a.54.54,0,0,0,.08.33l.09.15.49.83c0,.06.12.08.18.12a.5.5,0,0,0,0-.21l-.47-.82s0,0,0,0a.51.51,0,0,1-.12-.44,0,0,0,0,1,0,0l0,0,0-.1.22-.5c.12-.26.16-.34.07-.46L22,16s0,0-.05,0l-.09-.08,0,0a.32.32,0,0,0-.42,0l-.42.2a.37.37,0,0,1-.46-.07l-.2-.19a.19.19,0,0,1-.05-.25.18.18,0,0,1,.07-.05l.92-.77a.29.29,0,0,1,.39,0c.4.27.79.53,1.19.78a.5.5,0,0,1,.15.14.1.1,0,0,1,0,.05.2.2,0,0,1,0,.08.42.42,0,0,1,0,.16l.08.63v.15l.1.79A1.67,1.67,0,0,1,23,18.69c-.06.08-.11.16-.17.23s-.07.18,0,.27l1.11,1,.44.4.09-.07-1.18-1.15c-.11-.11-.28-.21-.29-.33s.12-.25.19-.38Z"/><path class="cls-2" d="M23,15.11l.55-.62.16-.18A1,1,0,0,0,24.85,14a1.43,1.43,0,0,0,.28-1.39l-.66.76-.66-.17-.2-.72.66-.75a1.22,1.22,0,0,0-1.5.85,1.19,1.19,0,0,0,.05.81l0,0-.92,1Z"/><path class="cls-2" d="M23,15.17l-.1-.1.74-.84,0,0A.93.93,0,0,0,24.82,14a1.36,1.36,0,0,0,.28-1.18l-.6.69-.74-.19-.22-.79.6-.69a1.14,1.14,0,0,0-1.07.38,1.1,1.1,0,0,0-.18,1.2h0l0,0-.1.11h0L22,14.5l-.1-.1.86-1a1.3,1.3,0,0,1,.73-1.68,1.35,1.35,0,0,1,.82,0l.11,0-.71.81.17.63.59.15.71-.81,0,.12a1.51,1.51,0,0,1-.3,1.44,1,1,0,0,1-1.2.32l-.13.15-.54.62Z"/><path class="cls-2" d="M18.39,18.5l-.07-.07-.15.16-.64.68-.57.61a.54.54,0,0,0-.16.39.59.59,0,0,0,.18.42.55.55,0,0,0,.78,0h0l.43-.46.93-1Zm-1.22,1.9a.18.18,0,1,1,.33-.13.2.2,0,0,1-.1.25v0A.17.17,0,0,1,17.17,20.4Z"/><path class="cls-2" d="M17.32,20.08l-.09,0a.21.21,0,0,0-.13.13.23.23,0,0,0,0,.2.24.24,0,0,0,.22.15h0a.24.24,0,0,0,.24-.25A.25.25,0,0,0,17.32,20.08Zm.05.36a.14.14,0,0,1-.16-.07.17.17,0,0,1,0-.1.13.13,0,0,1,.07-.06,0,0,0,0,1,0,0h0a.12.12,0,0,1,.11.08.06.06,0,0,1,0,0A.13.13,0,0,1,17.37,20.44Zm-.05-.36-.09,0a.21.21,0,0,0-.13.13.23.23,0,0,0,0,.2.24.24,0,0,0,.22.15h0a.24.24,0,0,0,.24-.25A.25.25,0,0,0,17.32,20.08Zm.05.36a.14.14,0,0,1-.16-.07.17.17,0,0,1,0-.1.13.13,0,0,1,.07-.06,0,0,0,0,1,0,0h0a.12.12,0,0,1,.11.08.06.06,0,0,1,0,0A.13.13,0,0,1,17.37,20.44Zm-.05-.36-.09,0a.21.21,0,0,0-.13.13.23.23,0,0,0,0,.2.24.24,0,0,0,.22.15h0a.24.24,0,0,0,.24-.25A.25.25,0,0,0,17.32,20.08Zm.05.36a.14.14,0,0,1-.16-.07.17.17,0,0,1,0-.1.13.13,0,0,1,.07-.06,0,0,0,0,1,0,0h0a.12.12,0,0,1,.11.08.06.06,0,0,1,0,0A.13.13,0,0,1,17.37,20.44Zm-.05-.36-.09,0a.21.21,0,0,0-.13.13.23.23,0,0,0,0,.2.24.24,0,0,0,.22.15h0a.24.24,0,0,0,.24-.25A.25.25,0,0,0,17.32,20.08Zm.05.36a.14.14,0,0,1-.16-.07.17.17,0,0,1,0-.1.13.13,0,0,1,.07-.06,0,0,0,0,1,0,0h0a.12.12,0,0,1,.11.08.06.06,0,0,1,0,0A.13.13,0,0,1,17.37,20.44Zm-.05-.36-.09,0a.21.21,0,0,0-.13.13.23.23,0,0,0,0,.2.24.24,0,0,0,.22.15h0a.24.24,0,0,0,.24-.25A.25.25,0,0,0,17.32,20.08Zm.05.36a.14.14,0,0,1-.16-.07.17.17,0,0,1,0-.1.13.13,0,0,1,.07-.06,0,0,0,0,1,0,0h0a.12.12,0,0,1,.11.08.06.06,0,0,1,0,0A.13.13,0,0,1,17.37,20.44Zm-.05-.36-.09,0a.21.21,0,0,0-.13.13.23.23,0,0,0,0,.2.24.24,0,0,0,.22.15h0a.24.24,0,0,0,.24-.25A.25.25,0,0,0,17.32,20.08Zm.05.36a.14.14,0,0,1-.16-.07.17.17,0,0,1,0-.1.13.13,0,0,1,.07-.06,0,0,0,0,1,0,0h0a.12.12,0,0,1,.11.08.06.06,0,0,1,0,0A.13.13,0,0,1,17.37,20.44Zm-.05-.36-.09,0a.21.21,0,0,0-.13.13.23.23,0,0,0,0,.2.24.24,0,0,0,.22.15h0a.24.24,0,0,0,.24-.25A.25.25,0,0,0,17.32,20.08Zm.05.36a.14.14,0,0,1-.16-.07.17.17,0,0,1,0-.1.13.13,0,0,1,.07-.06,0,0,0,0,1,0,0h0a.12.12,0,0,1,.11.08.06.06,0,0,1,0,0A.13.13,0,0,1,17.37,20.44Zm-.05-.36-.09,0a.21.21,0,0,0-.13.13.23.23,0,0,0,0,.2.24.24,0,0,0,.22.15h0a.24.24,0,0,0,.24-.25A.25.25,0,0,0,17.32,20.08Zm.05.36a.14.14,0,0,1-.16-.07.17.17,0,0,1,0-.1.13.13,0,0,1,.07-.06,0,0,0,0,1,0,0h0a.12.12,0,0,1,.11.08.06.06,0,0,1,0,0A.13.13,0,0,1,17.37,20.44Zm-.05-.36-.09,0a.21.21,0,0,0-.13.13.23.23,0,0,0,0,.2.24.24,0,0,0,.22.15h0a.24.24,0,0,0,.24-.25A.25.25,0,0,0,17.32,20.08Zm.05.36a.14.14,0,0,1-.16-.07.17.17,0,0,1,0-.1.13.13,0,0,1,.07-.06,0,0,0,0,1,0,0h0a.12.12,0,0,1,.11.08.06.06,0,0,1,0,0A.13.13,0,0,1,17.37,20.44Zm-.05-.36-.09,0a.21.21,0,0,0-.13.13.23.23,0,0,0,0,.2.24.24,0,0,0,.22.15h0a.24.24,0,0,0,.24-.25A.25.25,0,0,0,17.32,20.08Zm.05.36a.14.14,0,0,1-.16-.07.17.17,0,0,1,0-.1.13.13,0,0,1,.07-.06,0,0,0,0,1,0,0h0a.12.12,0,0,1,.11.08.06.06,0,0,1,0,0A.13.13,0,0,1,17.37,20.44Zm1.09-2-.08-.08-.06,0h0l0,0-.11.12-.16.16-.53.57-.59.64a.64.64,0,0,0,0,.9.63.63,0,0,0,.43.17h0a.64.64,0,0,0,.46-.19v0l.44-.46,1-1ZM17,20.65A.51.51,0,0,1,17,20h0l0,0,.57-.61.75-.8.73.69-.88.93-.44.47a.48.48,0,0,1-.36.16A.48.48,0,0,1,17,20.65Zm.3-.57-.09,0a.21.21,0,0,0-.13.13.23.23,0,0,0,0,.2.24.24,0,0,0,.22.15h0a.24.24,0,0,0,.24-.25A.25.25,0,0,0,17.32,20.08Zm.05.36a.14.14,0,0,1-.16-.07.17.17,0,0,1,0-.1.13.13,0,0,1,.07-.06,0,0,0,0,1,0,0h0a.12.12,0,0,1,.11.08.06.06,0,0,1,0,0A.13.13,0,0,1,17.37,20.44Zm-.05-.36-.09,0a.21.21,0,0,0-.13.13.23.23,0,0,0,0,.2.24.24,0,0,0,.22.15h0a.24.24,0,0,0,.24-.25A.25.25,0,0,0,17.32,20.08Zm.05.36a.14.14,0,0,1-.16-.07.17.17,0,0,1,0-.1.13.13,0,0,1,.07-.06,0,0,0,0,1,0,0h0a.12.12,0,0,1,.11.08.06.06,0,0,1,0,0A.13.13,0,0,1,17.37,20.44Zm-.05-.36-.09,0a.21.21,0,0,0-.13.13.23.23,0,0,0,0,.2.24.24,0,0,0,.22.15h0a.24.24,0,0,0,.24-.25A.25.25,0,0,0,17.32,20.08Zm.05.36a.14.14,0,0,1-.16-.07.17.17,0,0,1,0-.1.13.13,0,0,1,.07-.06,0,0,0,0,1,0,0h0a.12.12,0,0,1,.11.08.06.06,0,0,1,0,0A.13.13,0,0,1,17.37,20.44Zm-.05-.36-.09,0a.21.21,0,0,0-.13.13.23.23,0,0,0,0,.2.24.24,0,0,0,.22.15h0a.24.24,0,0,0,.24-.25A.25.25,0,0,0,17.32,20.08Zm.05.36a.14.14,0,0,1-.16-.07.17.17,0,0,1,0-.1.13.13,0,0,1,.07-.06,0,0,0,0,1,0,0h0a.12.12,0,0,1,.11.08.06.06,0,0,1,0,0A.13.13,0,0,1,17.37,20.44Zm-.05-.36-.09,0a.21.21,0,0,0-.13.13.23.23,0,0,0,0,.2.24.24,0,0,0,.22.15h0a.24.24,0,0,0,.24-.25A.25.25,0,0,0,17.32,20.08Zm.05.36a.14.14,0,0,1-.16-.07.17.17,0,0,1,0-.1.13.13,0,0,1,.07-.06,0,0,0,0,1,0,0h0a.12.12,0,0,1,.11.08.06.06,0,0,1,0,0A.13.13,0,0,1,17.37,20.44Zm-.05-.36-.09,0a.21.21,0,0,0-.13.13.23.23,0,0,0,0,.2.24.24,0,0,0,.22.15h0a.24.24,0,0,0,.24-.25A.25.25,0,0,0,17.32,20.08Zm.05.36a.14.14,0,0,1-.16-.07.17.17,0,0,1,0-.1.13.13,0,0,1,.07-.06,0,0,0,0,1,0,0h0a.12.12,0,0,1,.11.08.06.06,0,0,1,0,0A.13.13,0,0,1,17.37,20.44Zm-.05-.36-.09,0a.21.21,0,0,0-.13.13.23.23,0,0,0,0,.2.24.24,0,0,0,.22.15h0a.24.24,0,0,0,.24-.25A.25.25,0,0,0,17.32,20.08Zm.05.36a.14.14,0,0,1-.16-.07.17.17,0,0,1,0-.1.13.13,0,0,1,.07-.06,0,0,0,0,1,0,0h0a.12.12,0,0,1,.11.08.06.06,0,0,1,0,0A.13.13,0,0,1,17.37,20.44Zm-.05-.36-.09,0a.21.21,0,0,0-.13.13.23.23,0,0,0,0,.2.24.24,0,0,0,.22.15h0a.24.24,0,0,0,.24-.25A.25.25,0,0,0,17.32,20.08Zm.05.36a.14.14,0,0,1-.16-.07.17.17,0,0,1,0-.1.13.13,0,0,1,.07-.06,0,0,0,0,1,0,0h0a.12.12,0,0,1,.11.08.06.06,0,0,1,0,0A.13.13,0,0,1,17.37,20.44Zm-.05-.36-.09,0a.21.21,0,0,0-.13.13.23.23,0,0,0,0,.2.24.24,0,0,0,.22.15h0a.24.24,0,0,0,.24-.25A.25.25,0,0,0,17.32,20.08Zm.05.36a.14.14,0,0,1-.16-.07.17.17,0,0,1,0-.1.13.13,0,0,1,.07-.06,0,0,0,0,1,0,0h0a.12.12,0,0,1,.11.08.06.06,0,0,1,0,0A.13.13,0,0,1,17.37,20.44Zm-.05-.36-.09,0a.21.21,0,0,0-.13.13.23.23,0,0,0,0,.2.24.24,0,0,0,.22.15h0a.24.24,0,0,0,.24-.25A.25.25,0,0,0,17.32,20.08Zm.05.36a.14.14,0,0,1-.16-.07.17.17,0,0,1,0-.1.13.13,0,0,1,.07-.06,0,0,0,0,1,0,0h0a.12.12,0,0,1,.11.08.06.06,0,0,1,0,0A.13.13,0,0,1,17.37,20.44Zm-.05-.36-.09,0a.21.21,0,0,0-.13.13.23.23,0,0,0,0,.2.24.24,0,0,0,.22.15h0a.24.24,0,0,0,.24-.25A.25.25,0,0,0,17.32,20.08Zm.05.36a.14.14,0,0,1-.16-.07.17.17,0,0,1,0-.1.13.13,0,0,1,.07-.06,0,0,0,0,1,0,0h0a.12.12,0,0,1,.11.08.06.06,0,0,1,0,0A.13.13,0,0,1,17.37,20.44Zm-.05-.36-.09,0a.21.21,0,0,0-.13.13.23.23,0,0,0,0,.2.24.24,0,0,0,.22.15h0a.24.24,0,0,0,.24-.25A.25.25,0,0,0,17.32,20.08Zm.05.36a.14.14,0,0,1-.16-.07.17.17,0,0,1,0-.1.13.13,0,0,1,.07-.06,0,0,0,0,1,0,0h0a.12.12,0,0,1,.11.08.06.06,0,0,1,0,0A.13.13,0,0,1,17.37,20.44Zm-.05-.36-.09,0a.21.21,0,0,0-.13.13.23.23,0,0,0,0,.2.24.24,0,0,0,.22.15h0a.24.24,0,0,0,.24-.25A.25.25,0,0,0,17.32,20.08Zm.05.36a.14.14,0,0,1-.16-.07.17.17,0,0,1,0-.1.13.13,0,0,1,.07-.06,0,0,0,0,1,0,0h0a.12.12,0,0,1,.11.08.06.06,0,0,1,0,0A.13.13,0,0,1,17.37,20.44Z"/><path class="cls-2" d="M18.71,18.27l-.06,0-.14.05-.13,0-.2.08-.87.34L16,19.31l-.34-.9L17,17.88l.76-.29.53-.2-.09.09s-.06.05-.07.09a.17.17,0,0,0,0,.19.12.12,0,0,0,.05,0C18.39,18,18.54,18.12,18.71,18.27Z"/><path class="cls-2" d="M19.46,17.91h0Z"/><path class="cls-2" d="M19.73,17.88l-.19.07-.06-.06h0l-.12-.12h0s0,0-.05-.06l-.43-.41,0,0-.07-.06.19-.07.08.08.26.25h0l.35.34Z"/><path class="cls-2" d="M22,16.48l-.22.5,0,.1-.24.09a.16.16,0,0,1,0-.09.09.09,0,0,1,0-.07.79.79,0,0,0,.06-.22l-.36.06-.51.53h0s-.06.06-.06.09h0l-.21.08a.12.12,0,0,0,0-.08v0l0,0-.55-.53-.08-.08.19-.07.08.07.35.34a.2.2,0,0,0,.28.05s0,0,.05-.05l.25-.26a.21.21,0,0,0,0-.29l0,0-.09-.08-.08-.08.19-.07.08.07.18.18a.17.17,0,0,0,.23,0l0,0a3,3,0,0,0,.28-.33.2.2,0,0,0,0-.15.22.22,0,0,0,0-.08h0L22,16l.07.07C22.2,16.14,22.16,16.22,22,16.48Z"/><path class="cls-2" d="M26.85,14.56l-.34,0-.6-.08h0l-.49.19-2.25.87-.1,0a.2.2,0,0,1,0,.08.42.42,0,0,1,0,.16l.08.63v.08h0l2.6-1,.41-.16.65-.77Zm-.57.62L26,14.54l.55.05.07.18Z"/><path class="cls-2" d="M23.2,15.59l0-.08,0-.06a1,1,0,0,0-.2-.24l-1.6-1L20,14.87l-1,.47-1.26,2.14.08.08,0,0,.08.09.59.61.05.06h0l.07.08,1,1,.17-.14-.23-.21c.24-.25.55-.4.6-.76,0,0,0,0,.07-.05l.31-.25a.57.57,0,0,0,.25-.47v-.06h0s0-.06.06-.09h0l.51-.53.36-.06a.79.79,0,0,1-.06.22.09.09,0,0,0,0,.07.16.16,0,0,0,0,.09h0v.06a.54.54,0,0,0,.08.33l.09.15.16-.12a.51.51,0,0,1-.12-.44,0,0,0,0,1,0,0l0,0,0-.1.22-.5c.12-.26.16-.34.07-.46L22,16s0,0-.05,0l-.09-.08,0,0a.32.32,0,0,0-.42,0l-.42.2a.37.37,0,0,1-.46-.07l-.2-.19a.19.19,0,0,1-.05-.25.18.18,0,0,1,.07-.05l.92-.77a.29.29,0,0,1,.39,0c.4.27.79.53,1.19.78a.5.5,0,0,1,.15.14.1.1,0,0,1,0,.05.2.2,0,0,1,0,.08.42.42,0,0,1,0,.16l.08.63v.08l.08-.07a.11.11,0,0,1,0-.05A2.18,2.18,0,0,0,23.2,15.59Zm-3.41,2.9-.27.29,0,0a.18.18,0,0,1-.26,0l-.52-.51c-.17-.15-.32-.3-.48-.46a.12.12,0,0,1-.05,0,.17.17,0,0,1,0-.19s0-.06.07-.09l.09-.09.06-.07,0,0c.13-.14.21-.18.32-.11l0,0,.07.06,0,0,.43.41s0,.05.05.06h0l.12.12h0l.06.06.05,0,.18.18A.21.21,0,0,1,19.79,18.49Zm.73-.92a.13.13,0,0,1,0,.06.14.14,0,0,1-.07.1c-.08.09-.17.17-.24.26s-.2.14-.33,0l-.09-.09-.05,0-.06-.06-.35-.34h0L19,17.22,19,17.14l0,0-.17-.17-.05-.05a.2.2,0,0,1,.05-.28l.26-.27s0,0,0,0a.19.19,0,0,1,.28,0l.46.44,0,0,.08.08.55.53,0,0v0A.12.12,0,0,1,20.52,17.57Zm1-1.69a.2.2,0,0,1,.27.09l0,0h0a.22.22,0,0,1,0,.08.2.2,0,0,1,0,.15,3,3,0,0,1-.28.33l0,0a.17.17,0,0,1-.23,0l-.18-.18L21,16.34l0,0-.11-.1Zm-.75.49s0,0,0,0l.08.08.09.08,0,0a.21.21,0,0,1,0,.29l-.25.26s0,0-.05.05a.2.2,0,0,1-.28-.05l-.35-.34L20,16.74l0,0-.09-.09h0l-.56-.54a.08.08,0,0,1,0,0,.18.18,0,0,1,0-.25l.26-.28s0,0,0,0a.22.22,0,0,1,.29,0Zm-.13-1.49-.59.51c0-.26.23-.35.36-.5s.16,0,.23-.06Zm5.84-.37h0l0,.07h0l.07.18,0,.06.2-.27v0Z"/><path class="cls-2" d="M19.46,17.91h0Z"/><polygon class="cls-2" points="19.78 17.92 19.59 17.99 19.54 17.95 19.48 17.89 19.67 17.82 19.73 17.88 19.78 17.92"/><path class="cls-2" d="M20.5,17.49l.29-.11h0s-.06.06-.06.09h0v.06l-.22.08a.13.13,0,0,0,0-.06A.12.12,0,0,0,20.5,17.49Z"/><path class="cls-2" d="M21.82,17l0,.1,0,0a0,0,0,0,0,0,0l-.21.08v-.06h0a.16.16,0,0,1,0-.09Z"/><path class="cls-2" d="M18.74,18.37l-.15.06-.13.05-.07,0-.22.09-.15.05-.67.26L16,19.41l-.43-1L17,17.85l.73-.29.62-.24-.06.07-.09.09s-.06.05-.07.09l-.29.11-.82.32-1.25.49.31.72,1.18-.46,1-.39h0l.14-.06.14-.05s0,0,0,.06S18.73,18.34,18.74,18.37Z"/><path class="cls-2" d="M19,17.22l-.18.07,0,0-.07-.06,0,0,.19-.07,0,0Z"/><polygon class="cls-2" points="20.08 16.82 19.89 16.89 19.81 16.81 19.77 16.78 19.96 16.7 20 16.74 20.08 16.82"/><path class="cls-2" d="M21,16.34l.08.07-.19.08-.08-.08s0,0,0,0L21,16.3Z"/><path class="cls-2" d="M22.11,16l-.24.09a.22.22,0,0,0,0-.08h0l0,0L22,15.9s0,0,.05,0Z"/><path class="cls-2" d="M27.05,14.49l-.73.88-.46.18-2.62,1v-.05h0v-.08l.1,0,2.48-1,.34-.13.07,0,.06-.07h0l.34-.41,0,0,.11-.14-.19,0h0L26,14.54h-.09l-.08,0-.37.15-2.26.88-.09,0a.2.2,0,0,0,0-.08.1.1,0,0,0,0-.05l.11-.05,2.24-.88.51-.19Z"/><polygon class="cls-2" points="26.28 15.18 26.62 14.77 26.28 15.18 26.22 15.25 25.91 14.53 26 14.54 26.28 15.18"/><polygon class="cls-2" points="26.55 14.59 26 14.54 26.55 14.59 26.55 14.59"/><polygon class="cls-2" points="26.64 14.75 26.62 14.77 26.55 14.59 26.56 14.59 26.64 14.75"/><path class="cls-2" d="M25.91,14.53l.31.72-.31-.72Z"/><polygon class="cls-2" points="26.3 15.22 26.22 15.25 26.14 15.28 25.84 14.56 25.99 14.5 26 14.54 26.28 15.18 26.28 15.18 26.3 15.22"/><path class="cls-2" d="M24.36,25.07c-.2-.21-.76-.36-.82-1.24v-.71H19.6v.71c-.06.88-.62,1-.82,1.24h0c-.2.2.12.32.12.32h5.35S24.57,25.27,24.36,25.07Zm5,2.28L28.3,25.82h0a.21.21,0,0,0-.18-.09H15.28a.21.21,0,0,0-.16.08l-1.28,1.52a.22.22,0,0,0,0,.31.24.24,0,0,0,.13.05h15.2a.23.23,0,0,0,.18-.35ZM27.88,26l.13.21H27.5L27.4,26Zm-5.44,0H23v.21h-.53Zm0,.56H23v.21h-.58ZM21.47,26H22v.21h-.54Zm-.08.56h.55v.21h-.57Zm-.9-.56H21l0,.21h-.51Zm-.14.56h.55l0,.21h-.58ZM19.5,26H20l-.06.21h-.52Zm-.2.56h.54l-.06.21h-.55ZM18.52,26H19l-.08.21h-.52Zm-.26.56h.54l-.08.21h-.56ZM17.54,26H18l-.1.21h-.5Zm-1,0H17l-.12.21h-.5Zm-1,0H16l-.14.21h-.48Zm-.46,1.31h-.56l.16-.21h.55Zm.39-.54H15l.17-.21h.51Zm.75.54h-.58l.14-.21h.56Zm.32-.54H16l.15-.21h.52Zm.81.54h-.59l.12-.21h.57Zm.27-.54H17.1l.12-.21h.53Zm5.37.54H17.91l.1-.21h5ZM23.44,26H24l0,.21h-.53Zm0,.56h1.05l-.1-.56h.51l.21.77H23.5Zm.05.75v-.21h.61l0,.21Zm1.13,0,0-.21h.6l.05.21ZM25.42,26h.51l.07.21h-.52Zm.16.56h.55l.08.21h-.57Zm.21.75-.05-.21h.59l.08.21ZM26.41,26h.5l.1.21h-.52Zm.22.56h.54l.1.21h-.56Zm.29.75-.08-.21h.59l.1.21Zm.76-.75h.54l.12.21h-.55Zm.38.75L28,27.11h.58l.12.21Z"/><path id="B" class="cls-2" d="M28,10.51H15.21a.88.88,0,0,0-.89.88V22.25a.9.9,0,0,0,.89.89H28a.88.88,0,0,0,.89-.9V11.4A.89.89,0,0,0,28,10.51Zm.46,11.74a.46.46,0,0,1-.46.46H15.21a.47.47,0,0,1-.46-.46V11.39a.47.47,0,0,1,.46-.46H28a.46.46,0,0,1,.46.46Z"/><path id="B-2" data-name="B" class="cls-2" d="M28,10.51H15.21a.88.88,0,0,0-.89.88V22.25a.9.9,0,0,0,.89.89H28a.88.88,0,0,0,.89-.9V11.4A.89.89,0,0,0,28,10.51Zm.46,11.74a.46.46,0,0,1-.46.46H15.21a.47.47,0,0,1-.46-.46V11.39a.47.47,0,0,1,.46-.46H28a.46.46,0,0,1,.46.46Z"/><path class="cls-2" d="M20.06,15.41h0v0Zm.81.78h0ZM19.45,17.9Z"/><path class="cls-2" d="M0,36.43l.77-1.1a2.89,2.89,0,0,0,2.1.9c.78,0,1.15-.34,1.15-.73,0-1.15-3.8-.35-3.8-2.84,0-1.1,1-2,2.5-2a3.7,3.7,0,0,1,2.58.93l-.78,1a2.86,2.86,0,0,0-1.93-.72c-.59,0-.92.26-.92.65,0,1.05,3.79.34,3.79,2.81,0,1.21-.87,2.13-2.64,2.13a3.81,3.81,0,0,1-2.81-1Zm9.47.94L8.2,35.52l-.58.62v1.23H6.37V30.74H7.62v4l1.82-2.14H11L9.09,34.74,11,37.37Zm12.3,0V30.74h1.4v6.63Zm5.9,0v-2.9c0-.67-.34-.9-.88-.9a1.4,1.4,0,0,0-1.08.56v3.24H24.45v-4.8h1.26v.62a2.21,2.21,0,0,1,1.67-.74A1.39,1.39,0,0,1,28.94,34v3.39Zm5.8-1.55v-1.7a1.4,1.4,0,0,0-1.08-.55,1.4,1.4,0,0,0,0,2.78,1.35,1.35,0,0,0,1.08-.54Zm0,1.55h0v-.61a1.86,1.86,0,0,1-1.48.73c-1.2,0-2.12-.92-2.12-2.52A2.21,2.21,0,0,1,32,32.46a1.83,1.83,0,0,1,1.48.73V30.74h1.27v6.63Zm2.51,0v-4.8h1.27v4.8Zm-.11-6.07h0a.75.75,0,0,1,1.5,0h0a.75.75,0,1,1-1.5,0Zm5.49,4.91v-.59a1.26,1.26,0,0,0-1-.43c-.49,0-.9.27-.9.73s.41.71.9.71A1.25,1.25,0,0,0,41.36,36.21Zm0,1.16h0v-.51a1.92,1.92,0,0,1-1.51.62,1.58,1.58,0,0,1-1.66-1.58,1.52,1.52,0,0,1,1.66-1.55,1.94,1.94,0,0,1,1.51.58v-.6c0-.49-.42-.81-1-.81a2,2,0,0,0-1.38.57l-.5-.89a3.1,3.1,0,0,1,2.1-.75c1.09,0,2.09.44,2.09,1.82v3.1Z"/><path class="cls-2" d="M12.3,31.42l-.93,1.27h.3v4.68h1.26V32.69h.3l-.93-1.27Z"/><path class="cls-2" d="M14.81,29.68,13.88,31h.3v6.42h1.26V31h.3l-.93-1.27Z"/><path class="cls-2" d="M17.31,29.68,16.39,31h.29v6.42h1.26V31h.3l-.93-1.27Z"/></svg>