<?xml version="1.0" encoding="utf-8"?>
<!-- Generator: Adobe Illustrator 26.0.1, SVG Export Plug-In . SVG Version: 6.00 Build 0)  -->
<svg version="1.1" id="Layer_1" xmlns:v="https://vecta.io/nano"
	 xmlns="http://www.w3.org/2000/svg" xmlns:xlink="http://www.w3.org/1999/xlink" x="0px" y="0px" viewBox="0 0 417.5 83.4"
	 style="enable-background:new 0 0 417.5 83.4;" xml:space="preserve">
<style type="text/css">
	.st0{fill:#FFFFFF;}
</style>
<g id="Group_1" transform="translate(-116 -234)">
	<path id="Catapultyourcareer" class="st0" d="M251.5,306.4c0-0.3-0.1-0.6-0.3-0.8c-0.2-0.3-0.4-0.5-0.6-0.7
		c-0.2-0.2-0.5-0.3-0.8-0.4c-0.3-0.1-0.6-0.2-0.9-0.2c-0.5,0-1,0.1-1.5,0.3c-0.4,0.2-0.7,0.5-1,0.9c-0.3,0.4-0.5,0.8-0.6,1.3
		c-0.1,0.5-0.2,1-0.2,1.5c0,0.5,0.1,1,0.2,1.5c0.1,0.5,0.3,0.9,0.6,1.3c0.3,0.4,0.6,0.7,1,0.9c0.5,0.2,1,0.4,1.5,0.3
		c0.7,0,1.4-0.2,1.9-0.7c0.5-0.5,0.8-1.2,0.8-1.9h2.5c-0.1,0.7-0.2,1.4-0.5,2c-0.3,0.6-0.6,1.1-1.1,1.5c-0.5,0.4-1,0.8-1.6,1
		c-0.6,0.2-1.3,0.3-2,0.3c-0.8,0-1.7-0.1-2.5-0.5c-0.7-0.3-1.3-0.7-1.8-1.3c-0.5-0.6-0.9-1.2-1.2-2c-0.3-0.8-0.4-1.6-0.4-2.4
		c0-0.8,0.1-1.7,0.4-2.5c0.3-0.7,0.6-1.4,1.2-2c0.5-0.6,1.1-1,1.8-1.3c1.4-0.6,2.9-0.6,4.3-0.2c0.6,0.2,1.1,0.5,1.6,0.8
		c0.5,0.4,0.9,0.8,1.1,1.3c0.3,0.6,0.5,1.2,0.6,1.8L251.5,306.4z M255.6,308.3c0-0.5,0.2-1,0.4-1.4c0.2-0.4,0.6-0.7,0.9-0.9
		c0.4-0.2,0.8-0.4,1.3-0.5c0.5-0.1,0.9-0.1,1.4-0.1c0.4,0,0.9,0,1.3,0.1c0.4,0.1,0.8,0.2,1.2,0.4c0.4,0.2,0.7,0.4,0.9,0.7
		c0.3,0.4,0.4,0.8,0.4,1.3v4.5c0,0.4,0,0.7,0.1,1.1c0,0.3,0.1,0.6,0.2,0.8h-2.4c0-0.1-0.1-0.3-0.1-0.4c0-0.1,0-0.3-0.1-0.4
		c-0.4,0.4-0.8,0.7-1.3,0.8c-0.5,0.2-1,0.2-1.6,0.2c-0.4,0-0.8,0-1.2-0.2c-0.3-0.1-0.7-0.3-0.9-0.5c-0.3-0.2-0.5-0.5-0.6-0.8
		c-0.2-0.4-0.2-0.8-0.2-1.2c0-0.4,0.1-0.8,0.3-1.2c0.2-0.3,0.4-0.6,0.7-0.8c0.3-0.2,0.6-0.3,0.9-0.4c0.3-0.1,0.7-0.2,1.1-0.2
		c0.4-0.1,0.7-0.1,1.1-0.1c0.3,0,0.6-0.1,0.9-0.2c0.2,0,0.4-0.1,0.6-0.3c0.2-0.1,0.2-0.3,0.2-0.6c0-0.2,0-0.4-0.1-0.6
		c-0.1-0.1-0.2-0.3-0.3-0.4c-0.1-0.1-0.3-0.1-0.5-0.2c-0.2,0-0.4,0-0.6,0c-0.4,0-0.8,0.1-1.1,0.3c-0.3,0.3-0.5,0.6-0.5,1
		L255.6,308.3z M261.1,310.1c-0.1,0.1-0.2,0.2-0.4,0.2c-0.2,0.1-0.3,0.1-0.5,0.1c-0.2,0-0.4,0.1-0.5,0.1s-0.4,0-0.6,0.1
		c-0.2,0-0.4,0.1-0.5,0.1c-0.2,0.1-0.3,0.1-0.5,0.2c-0.1,0.1-0.2,0.2-0.3,0.4c-0.1,0.2-0.1,0.4-0.1,0.6c0,0.2,0,0.4,0.1,0.5
		c0.1,0.1,0.2,0.3,0.3,0.3c0.1,0.1,0.3,0.1,0.5,0.2c0.2,0,0.4,0.1,0.6,0.1c0.4,0,0.8-0.1,1.1-0.2c0.2-0.1,0.4-0.3,0.6-0.6
		c0.1-0.2,0.2-0.4,0.2-0.7c0-0.2,0-0.4,0-0.5L261.1,310.1z M268.3,305.7h1.7v1.6h-1.7v4.3c-0.1,0.4,0.1,0.9,0.5,1c0.2,0,0.3,0,0.5,0
		c0.1,0,0.3,0,0.4,0c0.1,0,0.2,0,0.4-0.1v1.8c-0.2,0-0.4,0.1-0.7,0.1c-0.2,0-0.5,0-0.7,0c-0.4,0-0.7,0-1-0.1c-0.3,0-0.6-0.1-0.9-0.3
		c-0.3-0.1-0.5-0.4-0.6-0.6c-0.2-0.3-0.2-0.7-0.2-1.1v-5.1h-1.4v-1.6h1.4v-2.6h2.4V305.7z M271.1,308.3c0-0.5,0.2-1,0.4-1.4
		c0.2-0.4,0.6-0.7,0.9-0.9c0.4-0.2,0.8-0.4,1.3-0.5c0.5-0.1,0.9-0.1,1.4-0.1c0.4,0,0.9,0,1.3,0.1c0.4,0.1,0.8,0.2,1.2,0.4
		c0.4,0.2,0.7,0.4,0.9,0.7c0.3,0.4,0.4,0.8,0.4,1.3v4.5c0,0.4,0,0.7,0.1,1.1c0,0.3,0.1,0.6,0.2,0.8h-2.4c0-0.1-0.1-0.3-0.1-0.4
		c0-0.1-0.1-0.3-0.1-0.4c-0.4,0.4-0.8,0.7-1.3,0.8c-0.5,0.2-1,0.2-1.6,0.2c-0.4,0-0.8,0-1.2-0.2c-0.3-0.1-0.7-0.3-0.9-0.5
		c-0.3-0.2-0.5-0.5-0.6-0.8c-0.2-0.4-0.2-0.8-0.2-1.2c0-0.4,0.1-0.8,0.3-1.2c0.2-0.3,0.4-0.6,0.7-0.8c0.3-0.2,0.6-0.3,0.9-0.4
		c0.3-0.1,0.7-0.2,1.1-0.2c0.4-0.1,0.7-0.1,1.1-0.1c0.3,0,0.6-0.1,0.9-0.2c0.2,0,0.4-0.1,0.6-0.3c0.2-0.1,0.2-0.3,0.2-0.6
		c0-0.2,0-0.4-0.1-0.6c-0.1-0.1-0.2-0.3-0.3-0.4c-0.1-0.1-0.3-0.1-0.5-0.2c-0.2,0-0.4,0-0.6,0c-0.4,0-0.8,0.1-1.1,0.3
		c-0.3,0.3-0.5,0.6-0.5,1L271.1,308.3z M276.5,310.1c-0.1,0.1-0.2,0.2-0.4,0.2c-0.2,0.1-0.3,0.1-0.5,0.1c-0.2,0-0.4,0.1-0.5,0.1
		s-0.4,0-0.6,0.1c-0.2,0-0.4,0.1-0.5,0.1c-0.2,0.1-0.3,0.1-0.5,0.2c-0.1,0.1-0.2,0.2-0.3,0.4c-0.1,0.2-0.1,0.4-0.1,0.6
		c0,0.2,0,0.4,0.1,0.5c0.1,0.1,0.2,0.3,0.3,0.3c0.1,0.1,0.3,0.1,0.5,0.2c0.2,0,0.4,0.1,0.6,0.1c0.4,0,0.8-0.1,1.1-0.2
		c0.2-0.1,0.4-0.3,0.6-0.6c0.1-0.2,0.2-0.4,0.2-0.7c0-0.2,0-0.4,0-0.5L276.5,310.1z M285.1,312.8c0.3,0,0.7-0.1,1-0.2
		c0.3-0.2,0.5-0.4,0.6-0.6c0.2-0.3,0.3-0.6,0.3-0.9c0.1-0.3,0.1-0.7,0.1-1c0-0.3,0-0.7-0.1-1c-0.1-0.3-0.2-0.6-0.4-0.9
		c-0.2-0.3-0.4-0.5-0.6-0.6c-0.3-0.2-0.6-0.3-1-0.2c-0.3,0-0.7,0.1-1,0.2c-0.3,0.2-0.5,0.4-0.6,0.6c-0.2,0.3-0.3,0.6-0.3,0.9
		c-0.1,0.3-0.1,0.7-0.1,1c0,0.3,0,0.7,0.1,1c0.1,0.3,0.2,0.6,0.4,0.9C283.9,312.5,284.5,312.8,285.1,312.8L285.1,312.8z
		 M280.8,305.7h2.3v1.1h0c0.3-0.4,0.6-0.8,1.1-1c0.5-0.2,1-0.3,1.5-0.3c0.6,0,1.2,0.1,1.8,0.4c0.5,0.2,0.9,0.6,1.2,1
		c0.3,0.4,0.6,0.9,0.7,1.5c0.2,0.6,0.2,1.2,0.2,1.8c0,0.6-0.1,1.1-0.2,1.7c-0.1,0.5-0.4,1-0.7,1.4c-0.3,0.4-0.7,0.7-1.2,1
		c-0.5,0.3-1.1,0.4-1.7,0.4c-0.5,0-1-0.1-1.5-0.3c-0.4-0.2-0.8-0.5-1.1-1h0v4.1h-2.4V305.7z M299.1,314.3h-2.3v-1.2h-0.1
		c-0.3,0.5-0.7,0.9-1.2,1.1c-0.5,0.2-1,0.3-1.5,0.3c-0.5,0-1.1-0.1-1.6-0.3c-0.4-0.1-0.7-0.4-1-0.7c-0.2-0.3-0.4-0.7-0.5-1.1
		c-0.1-0.5-0.1-1-0.1-1.5v-5.3h2.4v4.9c0,0.6,0.1,1.1,0.3,1.6c0.3,0.4,0.7,0.6,1.2,0.5c0.5,0,1.1-0.2,1.4-0.6
		c0.3-0.6,0.5-1.2,0.4-1.9v-4.5h2.4L299.1,314.3z M301,302.4h2.4v11.9H301V302.4z M308.2,305.7h1.7v1.6h-1.7v4.3
		c-0.1,0.4,0.1,0.9,0.5,1c0.2,0,0.3,0,0.5,0c0.1,0,0.3,0,0.4,0c0.1,0,0.2,0,0.4-0.1v1.8c-0.2,0-0.4,0.1-0.7,0.1c-0.2,0-0.5,0-0.7,0
		c-0.3,0-0.7,0-1-0.1c-0.3,0-0.6-0.1-0.9-0.3c-0.3-0.1-0.5-0.4-0.6-0.6c-0.2-0.3-0.2-0.7-0.2-1.1v-5.1h-1.4v-1.6h1.4v-2.6h2.4V305.7
		z M320,315.4c-0.2,0.6-0.6,1.1-1.1,1.5c-0.6,0.3-1.2,0.5-1.9,0.5c-0.2,0-0.5,0-0.7,0c-0.2,0-0.5,0-0.7-0.1v-2l0.7,0.1
		c0.2,0,0.5,0,0.7,0c0.3,0,0.5-0.1,0.7-0.4c0.1-0.2,0.2-0.5,0.2-0.7c0-0.2,0-0.4-0.1-0.5l-3-8.1h2.5l2,5.9h0l1.9-5.9h2.5L320,315.4z
		 M326.6,310c0,0.3,0,0.7,0.1,1c0.1,0.3,0.2,0.6,0.3,0.9c0.2,0.3,0.4,0.5,0.6,0.6c0.3,0.2,0.7,0.2,1,0.2c0.4,0,0.7-0.1,1-0.2
		c0.3-0.2,0.5-0.4,0.7-0.6c0.2-0.3,0.3-0.6,0.3-0.9c0.1-0.3,0.1-0.7,0.1-1c0-0.3,0-0.7-0.1-1c-0.1-0.3-0.2-0.6-0.3-0.9
		c-0.2-0.3-0.4-0.5-0.7-0.6c-0.3-0.2-0.7-0.3-1-0.2c-0.7,0-1.3,0.3-1.6,0.9c-0.2,0.3-0.3,0.6-0.3,0.9
		C326.6,309.3,326.6,309.7,326.6,310L326.6,310z M324.2,310c0-0.6,0.1-1.3,0.3-1.9c0.4-1.1,1.2-1.9,2.3-2.4c0.6-0.2,1.2-0.3,1.8-0.3
		c0.6,0,1.3,0.1,1.8,0.3c1.1,0.4,1.9,1.3,2.3,2.4c0.2,0.6,0.3,1.2,0.3,1.9c0,0.6-0.1,1.3-0.3,1.9c-0.2,0.5-0.5,1-0.9,1.4
		c-0.4,0.4-0.9,0.7-1.4,0.9c-0.6,0.2-1.2,0.3-1.8,0.3c-0.6,0-1.3-0.1-1.8-0.3c-0.5-0.2-1-0.5-1.4-0.9c-0.4-0.4-0.7-0.9-0.9-1.4
		C324.3,311.3,324.2,310.6,324.2,310L324.2,310z M342.8,314.3h-2.3v-1.2h0c-0.3,0.5-0.7,0.9-1.2,1.1c-0.5,0.2-1,0.3-1.5,0.3
		c-0.5,0-1.1-0.1-1.6-0.3c-0.4-0.1-0.7-0.4-1-0.7c-0.2-0.3-0.4-0.7-0.5-1.1c-0.1-0.5-0.1-1-0.1-1.5v-5.3h2.4v4.9
		c0,0.6,0.1,1.1,0.3,1.6c0.3,0.4,0.7,0.6,1.2,0.5c0.5,0,1.1-0.2,1.4-0.6c0.3-0.6,0.5-1.2,0.4-1.9v-4.5h2.4V314.3z M344.6,305.7h2.3
		v1.6h0c0.1-0.3,0.3-0.5,0.5-0.7c0.2-0.2,0.4-0.4,0.7-0.6c0.2-0.2,0.5-0.3,0.8-0.4c0.3-0.1,0.6-0.1,0.9-0.1c0.2,0,0.3,0,0.5,0.1v2.2
		c-0.1,0-0.2,0-0.4-0.1c-0.1,0-0.3,0-0.5,0c-0.4,0-0.8,0.1-1.1,0.2c-0.3,0.1-0.5,0.3-0.7,0.6c-0.2,0.3-0.3,0.6-0.4,0.9
		c-0.1,0.4-0.1,0.7-0.1,1.1v3.9h-2.4L344.6,305.7z M361.6,308.7c-0.1-0.9-0.8-1.5-1.7-1.5c0,0,0,0-0.1,0c-0.3,0-0.7,0.1-1,0.3
		c-0.3,0.2-0.5,0.4-0.6,0.7c-0.2,0.3-0.3,0.6-0.3,0.9c-0.1,0.3-0.1,0.7-0.1,1c0,0.3,0,0.6,0.1,1c0.1,0.3,0.2,0.6,0.3,0.9
		c0.1,0.3,0.4,0.5,0.6,0.6c0.3,0.2,0.6,0.3,0.9,0.3c0.5,0,1-0.1,1.3-0.5c0.3-0.4,0.5-0.8,0.6-1.3h2.3c-0.1,1-0.6,2-1.3,2.6
		c-0.8,0.6-1.8,0.9-2.8,0.9c-0.6,0-1.2-0.1-1.8-0.3c-0.5-0.2-1-0.5-1.4-0.9c-0.4-0.4-0.7-0.9-0.9-1.4c-0.2-0.6-0.3-1.2-0.3-1.8
		c0-0.6,0.1-1.3,0.3-1.9c0.2-0.6,0.5-1.1,0.9-1.5c0.4-0.4,0.9-0.8,1.4-1c0.6-0.2,1.2-0.4,1.9-0.4c0.5,0,1,0.1,1.5,0.2
		c0.5,0.1,0.9,0.3,1.3,0.6c0.8,0.6,1.3,1.5,1.3,2.5L361.6,308.7z M365.3,308.3c0-0.5,0.2-1,0.4-1.4c0.2-0.4,0.6-0.7,0.9-0.9
		c0.4-0.2,0.8-0.4,1.3-0.5c0.5-0.1,0.9-0.1,1.4-0.1c0.4,0,0.9,0,1.3,0.1c0.4,0.1,0.8,0.2,1.2,0.4c0.4,0.2,0.7,0.4,0.9,0.7
		c0.3,0.4,0.4,0.8,0.4,1.3v4.5c0,0.4,0,0.7,0.1,1.1c0,0.3,0.1,0.6,0.2,0.8H371c0-0.1-0.1-0.3-0.1-0.4c0-0.1,0-0.3-0.1-0.4
		c-0.4,0.4-0.8,0.7-1.3,0.8c-0.5,0.2-1,0.2-1.6,0.2c-0.4,0-0.8,0-1.2-0.2c-0.3-0.1-0.7-0.3-0.9-0.5c-0.3-0.2-0.5-0.5-0.6-0.8
		c-0.2-0.4-0.2-0.8-0.2-1.2c0-0.4,0.1-0.8,0.3-1.2c0.2-0.3,0.4-0.6,0.7-0.8c0.3-0.2,0.6-0.3,0.9-0.4c0.3-0.1,0.7-0.2,1.1-0.2
		c0.4-0.1,0.7-0.1,1.1-0.1c0.3,0,0.6-0.1,0.9-0.2c0.2,0,0.4-0.1,0.6-0.3c0.2-0.1,0.2-0.3,0.2-0.6c0-0.2,0-0.4-0.1-0.6
		c-0.1-0.1-0.2-0.3-0.3-0.4c-0.1-0.1-0.3-0.1-0.5-0.2c-0.2,0-0.4,0-0.6,0c-0.4,0-0.8,0.1-1.1,0.3c-0.3,0.3-0.5,0.6-0.5,1
		L365.3,308.3z M370.8,310.1c-0.1,0.1-0.2,0.2-0.4,0.2c-0.2,0.1-0.3,0.1-0.5,0.1c-0.2,0-0.4,0.1-0.5,0.1c-0.2,0-0.4,0.1-0.6,0.1
		c-0.2,0-0.4,0.1-0.5,0.1c-0.2,0-0.3,0.1-0.5,0.2c-0.1,0.1-0.2,0.2-0.3,0.4c-0.1,0.2-0.1,0.4-0.1,0.6c0,0.2,0,0.4,0.1,0.5
		c0.1,0.1,0.2,0.3,0.3,0.3c0.1,0.1,0.3,0.1,0.5,0.2c0.2,0,0.4,0.1,0.6,0.1c0.4,0,0.8-0.1,1.1-0.2c0.2-0.1,0.4-0.3,0.6-0.6
		c0.1-0.2,0.2-0.4,0.2-0.7c0-0.2,0-0.4,0-0.5L370.8,310.1z M375,305.7h2.3v1.6h0c0.2-0.5,0.6-1,1.1-1.3c0.2-0.2,0.5-0.3,0.8-0.4
		c0.3-0.1,0.6-0.1,0.9-0.1c0.2,0,0.3,0,0.5,0.1v2.2c-0.1,0-0.2,0-0.4-0.1c-0.1,0-0.3,0-0.5,0c-0.4,0-0.8,0.1-1.1,0.2
		c-0.3,0.1-0.5,0.3-0.7,0.6c-0.2,0.3-0.3,0.6-0.4,0.9c-0.1,0.4-0.1,0.7-0.1,1.1v3.9H375L375,305.7z M387.3,309.1
		c-0.1-0.5-0.3-1-0.6-1.4c-0.3-0.3-0.8-0.5-1.3-0.5c-0.3,0-0.7,0.1-0.9,0.2c-0.2,0.1-0.4,0.3-0.6,0.5c-0.1,0.2-0.3,0.4-0.3,0.6
		c-0.1,0.2-0.1,0.4-0.1,0.6L387.3,309.1z M383.4,310.6c0,0.6,0.2,1.2,0.6,1.7c0.8,0.6,1.9,0.7,2.8,0.2c0.3-0.2,0.5-0.4,0.6-0.8h2.1
		c-0.2,0.9-0.8,1.7-1.5,2.2c-0.8,0.5-1.6,0.7-2.5,0.7c-0.6,0-1.3-0.1-1.8-0.3c-0.5-0.2-1-0.5-1.4-0.9c-0.4-0.4-0.7-0.9-0.9-1.4
		c-0.2-0.6-0.3-1.2-0.3-1.8c0-0.6,0.1-1.2,0.3-1.8c0.4-1.1,1.2-2,2.3-2.4c0.6-0.2,1.2-0.4,1.8-0.4c0.7,0,1.3,0.1,1.9,0.4
		c0.5,0.3,1,0.7,1.3,1.1c0.4,0.5,0.6,1,0.8,1.6c0.2,0.6,0.2,1.3,0.2,1.9L383.4,310.6z M396.9,309.1c-0.1-0.5-0.3-1-0.6-1.4
		c-0.3-0.3-0.8-0.5-1.3-0.5c-0.3,0-0.7,0.1-0.9,0.2c-0.2,0.1-0.4,0.3-0.6,0.5c-0.1,0.2-0.3,0.4-0.3,0.6c-0.1,0.2-0.1,0.4-0.1,0.6
		L396.9,309.1z M393,310.6c0,0.6,0.2,1.2,0.6,1.7c0.8,0.6,1.9,0.7,2.8,0.2c0.3-0.2,0.5-0.4,0.6-0.8h2.1c-0.2,0.9-0.8,1.7-1.5,2.2
		c-0.8,0.5-1.6,0.7-2.5,0.7c-0.6,0-1.3-0.1-1.8-0.3c-0.5-0.2-1-0.5-1.4-0.9c-0.4-0.4-0.7-0.9-0.9-1.4c-0.2-0.6-0.3-1.2-0.3-1.8
		c0-0.6,0.1-1.2,0.3-1.8c0.4-1.1,1.2-2,2.3-2.4c0.6-0.2,1.2-0.4,1.8-0.4c0.7,0,1.3,0.1,1.9,0.4c0.5,0.3,1,0.7,1.3,1.1
		c0.4,0.5,0.6,1,0.8,1.6c0.2,0.6,0.2,1.3,0.2,1.9L393,310.6z M400.7,305.7h2.3v1.6h0c0.2-0.5,0.6-1,1.1-1.3c0.2-0.2,0.5-0.3,0.8-0.4
		c0.3-0.1,0.6-0.1,0.9-0.1c0.2,0,0.3,0,0.5,0.1v2.2c-0.1,0-0.2,0-0.4-0.1c-0.1,0-0.3,0-0.5,0c-0.4,0-0.8,0.1-1.1,0.2
		c-0.3,0.1-0.5,0.3-0.7,0.6c-0.2,0.3-0.3,0.6-0.4,0.9c-0.1,0.4-0.1,0.7-0.1,1.1v3.9h-2.4V305.7z"/>
	<path id="Line" class="st0" d="M116,309.3h120.5v-1.7H116V309.3z"/>
	<path id="Line-Copy" class="st0" d="M413,309.3h120.5v-1.7H413V309.3z"/>
	<path id="Combined-Shape" class="st0" d="M263.2,252.6c5.2,0,8,2.2,9.5,2.2c1.9,0,1.1-1.5,2.1-1.5c0.4,0,0.6,0.2,0.7,1l1,10.4
		c0.1,1,0.2,1.5,0.2,1.8c0,0.4-0.2,0.6-0.4,0.6c-0.6,0-0.6-1.2-1.5-3.4c-2.4-6.1-5.4-9.8-11.5-9.8c-3.9,0-7,1.7-7,5.9
		c0,9.1,22.4,4,22.4,19c0,7.3-6.2,13-14.5,13c-5.5,0-8.1-2.5-10.2-2.5c-2.2,0-1.8,1.9-2.8,1.9c-0.3,0-0.4-0.1-0.4-0.5v-15.3
		c0-0.7,0.2-0.8,0.6-0.8c0.6,0,0.6,0.8,0.8,2c1.3,7,4.1,14,12.1,14c5.6,0,8.8-2.9,8.8-7.1c0-11.2-22.1-5.7-22.1-19.4
		C250.8,257.4,256.3,252.6,263.2,252.6z M148.1,252.6c0.3,0,0.4,0.2,0.6,1l1.8,10.1c0.1,0.7,0.2,1.3,0.3,2c0,0.3-0.1,0.5-0.4,0.5
		c0,0-0.1,0-0.1,0c-1.3,0-1.8-8.5-12.8-11.5v30.6c0,3.5,1.7,4.3,4.4,4.3c0.7,0,1,0.2,1,0.7c0,0.4-0.3,0.6-0.9,0.6
		c-3.1,0-6-0.1-8.6-0.1c-2.6,0-5.4,0.1-8.6,0.1c-0.6,0-0.9-0.2-0.9-0.6c0-0.6,0.3-0.7,1-0.7c2.7,0,4.4-0.8,4.4-4.3v-30.6
		c-10.9,3-11.5,11.5-12.8,11.5c-0.3,0-0.5-0.2-0.5-0.5c0,0,0-0.1,0-0.1c0.1-0.7,0.1-1.3,0.3-2l1.8-10.1c0.2-0.8,0.3-1,0.6-1
		c0.3,0,0.6,0.2,0.8,0.4c0.4,0.3,0.9,0.5,1.4,0.5h24.7c0.5,0,1-0.2,1.4-0.5C147.6,252.7,147.9,252.6,148.1,252.6z M166.3,253.3
		c0.9,0,1.1,0.3,1.1,0.7c0,1.5-4.7-0.6-4.7,3.8v28.6c0,4.4,4.7,2.3,4.7,3.8c0,0.4-0.2,0.7-1.1,0.7c-2.8,0-5.5-0.1-7.7-0.1
		s-4.9,0.1-7.7,0.1c-0.9,0-1.1-0.3-1.1-0.7c0-1.5,4.7,0.6,4.7-3.8v-28.6c0-4.4-4.7-2.3-4.7-3.8c0-0.4,0.2-0.7,1.1-0.7
		c2.8,0,5.5,0.1,7.7,0.1S163.5,253.3,166.3,253.3L166.3,253.3z M214.2,253.3c0.9,0,1.1,0.3,1.1,0.7c0,1.5-4.7-0.6-4.7,3.8v28.6
		c0,4.4,4.7,2.3,4.7,3.8c0,0.4-0.2,0.7-1.1,0.7c-2.8,0-5.5-0.1-7.7-0.1c-2.2,0-4.9,0.1-7.7,0.1c-0.9,0-1.1-0.3-1.1-0.7
		c0-1.5,4.7,0.6,4.7-3.8v-28.7h-0.1l-13.3,33c-0.1,0.1-0.2,0.2-0.4,0.2c-0.2,0-0.3-0.1-0.4-0.2l-13.1-31.5h-0.1v22.5
		c0,4.6,1.4,6.5,2.9,7.2c2,1,3,0.4,3,1.3c0,0.4-0.3,0.7-1.2,0.7c-1.4,0-3.2-0.1-5.4-0.1s-4,0.1-5.4,0.1c-0.9,0-1.2-0.3-1.2-0.7
		c0-0.9,1-0.3,3-1.3c1.5-0.8,2.9-2.6,2.9-7.2v-24.4c-0.9-1.7-2.7-2.7-4.6-2.7c-0.8-0.1-1-0.3-1-0.7c0-0.4,0.3-0.7,0.6-0.7
		c0,0,0.1,0,0.1,0c2,0,4.1,0.1,6.1,0.1h6.2l11,26.3l10.7-26.3h3.6C208.7,253.5,211.4,253.3,214.2,253.3L214.2,253.3z M244.8,253.3
		l2.8,10.5c0.1,0.5,0.3,0.9,0.3,1.4c0,0.3-0.2,0.4-0.6,0.4c-0.5,0-0.4-0.9-2.6-4.5c-2.6-4.3-6.2-6.6-12.8-6.6h-3v15.9h1.4
		c3.8,0,6.9-3,6.9-6.8c0,0,0,0,0,0c0.1-1.1,0.2-1.4,0.8-1.4c0.3,0,0.6,0.3,0.6,0.8V280c0,0.5-0.2,0.8-0.6,0.8
		c-0.6,0-0.7-0.3-0.8-1.4c-0.2-4.9-3-7.5-6.9-7.5H229v13.9c0,2.5,1,3.9,4.5,3.9c8.6,0,13.3-6.1,15-11.6c0.3-1,0.4-1.5,0.9-1.5
		c0.3,0,0.5,0.2,0.6,0.5c0,0,0,0.1,0,0.1c0,0.5-0.1,1.1-0.2,1.6l-2.4,12.3c-7.3-0.1-14.6-0.1-22.3-0.1c-2.2,0-4.9,0.1-7.7,0.1
		c-0.9,0-1.1-0.3-1.1-0.7c0-1.5,4.7,0.6,4.7-3.8v-28.6c0-4.4-4.7-2.3-4.7-3.8c0-0.4,0.2-0.7,1.1-0.7c2.8,0,5.5,0.1,7.7,0.1
		C231.8,253.5,238.3,253.4,244.8,253.3L244.8,253.3z"/>
	<path id="Combined-Shape-2" class="st0" d="M351.5,253.5c13.1,0,17,4,19.1,11.6h-13.9c-0.3-1.1-0.9-2-1.8-2.7
		c-1.2-0.8-2.7-1.2-4.2-1.2c-1.3-0.1-2.5,0.2-3.6,0.9c-0.7,0.5-1.1,1.3-1.1,2.1c0,0.9,0.6,1.8,1.4,2.1c2,0.7,4.1,1.2,6.3,1.3
		c3.7,0.3,7.4,1.1,10.9,2.3c2.2,0.8,4.1,2.3,5.4,4.2c1.2,1.8,1.9,3.9,1.9,6c0,2.3-0.7,4.5-2,6.4c-1.5,2.3-3.7,4-6.3,5
		c-3.7,1.4-7.7,2-11.7,1.9c-14.9,0-19.8-9.2-20.6-12.8h14.5c0.4,1.5,1.3,2.8,2.5,3.7c1.3,0.8,2.8,1.2,4.3,1.1
		c1.6,0.1,3.2-0.3,4.6-1.3c0.8-0.5,1.3-1.4,1.3-2.3c0-1.1-0.7-2-1.7-2.4c-2-0.7-4.1-1.2-6.3-1.5c-3.6-0.5-7.1-1.3-10.6-2.5
		c-2-0.8-3.7-2.1-5-3.8c-1.3-1.8-2.1-3.9-2-6.1c-0.1-2.4,0.7-4.7,2.2-6.5c1.6-1.9,3.7-3.3,6-4.1C344.5,253.9,348,253.4,351.5,253.5z
		 M395,253.5c17.4,0,19.8,10.7,21.1,15h-13.8c-0.3-1.5-1.2-2.8-2.4-3.7c-1.4-0.9-3-1.3-4.6-1.2c-2.3-0.1-4.4,0.9-5.9,2.6
		c-1.7,2.3-2.5,5.1-2.2,7.9c-0.2,2.6,0.6,5.1,2.2,7.2c1.4,1.6,3.5,2.5,5.7,2.4c1.7,0.1,3.4-0.5,4.8-1.5c1.4-1.2,2.5-2.8,2.9-4.5
		l13.9-0.1c-0.8,2.9-2,7.1-3.8,9.2c-1.7,2.1-6.2,6.7-17.1,6.7c-3.4,0.1-6.8-0.3-10.1-1.1c-2.6-0.7-4.9-1.9-7-3.7
		c-1.9-1.7-3.5-3.7-4.6-5.9c-1.2-2.9-1.8-6-1.7-9.1c-0.1-3.4,0.6-6.8,2-9.8c1-2,2.4-3.7,4-5.2c1.5-1.4,3.3-2.6,5.2-3.4
		C387.5,254,391.2,253.4,395,253.5z M308.2,253.5c3.5-0.1,7.1,0.2,10.6,0.7c2.5,0.4,4.8,1.5,6.7,3.1c1.4,1.3,2.4,2.8,2.9,4.6
		c0.7,1.8,1,3.7,1.1,5.7v16.9c0,1.4,0.1,2.8,0.3,4.2c0.4,1.4,0.9,2.7,1.5,3.9H316v-4.7c-1.6,1.7-3.6,3-5.7,4c-2.9,1.1-5.9,1.6-9,1.6
		c-4.6,0-8-1.1-10.4-3.2c-2.3-1.9-3.6-4.8-3.5-7.8c-0.1-2.6,0.8-5.2,2.6-7.2c1.7-1.9,4.8-3.3,9.4-4.2c5.5-1.1,9-1.9,10.7-2.3
		c1.8-0.5,3.5-1.1,5.2-1.7c0.1-1.4-0.3-2.7-1.1-3.8c-1.1-0.8-2.5-1.2-3.9-1.1c-1.9-0.1-3.7,0.3-5.4,1.2c-1.1,0.8-1.9,2-2.3,3.4h-14
		C288.5,259,297.1,253.5,308.2,253.5L308.2,253.5z M438.6,253.5c4.4-0.2,8.9,0.6,12.9,2.5c3.1,1.6,5.6,4.1,7.2,7.2
		c1.8,3.8,2.7,8,2.5,12.3v1.7h-29.3c0.1,1.9,0.8,3.7,1.9,5.2c1.4,1.6,3.4,2.5,5.5,2.5c1.4,0,2.9-0.4,4.1-1.1c1-0.6,1.9-1.5,2.6-2.4
		l14.4-0.3c-2.2,3.8-6.5,12.4-21.4,12.4c-4.1,0.2-8.2-0.5-11.9-2.1c-3-1.5-5.5-3.9-7.2-6.8c-2-3.3-3-7.1-2.9-10.9
		c-0.2-5.4,1.9-10.7,5.7-14.5C426.5,255.4,431.8,253.5,438.6,253.5L438.6,253.5z M489.8,253.5c3.5-0.2,7,1.1,9.5,3.6
		c2.3,2.4,3.4,6.1,3.4,11.2v24.3H488v-21c0.2-1.8-0.3-3.6-1.3-5.1c-1-1-2.3-1.6-3.7-1.5c-1.7,0-3.3,0.7-4.3,2
		c-1.1,1.3-1.7,3.8-1.7,7.2v18.3h-14.6v-38.2H476v6.2c1.7-2.2,3.8-4.1,6.2-5.4C484.5,254,487.1,253.4,489.8,253.5L489.8,253.5z
		 M523.3,242.4v12h8.1v10.7h-8.1v11.4c0,4.4,0.3,4.4,8.6,4.4v11.3c-16.2,0.3-19.1,0.5-22-4.5c-1-3-1.4-6.1-1.2-9.3v-13.4h-5.4v-10.7
		h5.4v-12L523.3,242.4z M315.2,274.4c-2,0.7-4.1,1.4-6.3,1.9c-2,0.4-4,1.2-5.6,2.3c-1.5,1.4-1.6,3.8-0.3,5.3
		c0.1,0.1,0.2,0.2,0.2,0.2c1,0.8,2.3,1.2,3.5,1.1c1.6,0,3.2-0.4,4.5-1.2c1.3-0.6,2.3-1.7,3-2.9c0.6-1.4,0.9-2.9,0.9-4.4L315.2,274.4
		z M439.2,262.2c-2.2-0.1-4.3,1-5.6,2.8c-1,1.5-1.6,3.3-1.7,5.1h14.4c0-2.2-0.9-4.4-2.3-6.1C442.7,262.8,441,262.1,439.2,262.2
		L439.2,262.2z"/>
	<path id="Path-2" class="st0" d="M489.6,234l-22.9,12.3h10.9v10.2L489.6,234z"/>
</g>
</svg>
