<svg id="Layer_1" data-name="Layer 1" xmlns="http://www.w3.org/2000/svg" viewBox="0 0 84.8 48"><defs><style>.cls-1{fill:#282f39;}.cls-2{fill:#fff;}</style></defs><rect class="cls-1" y="-0.18" width="84.8" height="48.35"/><g id="Group_1" data-name="Group 1"><path id="Catapultyourcareer" class="cls-2" d="M27.52,30.24a.49.49,0,0,0-.06-.17.77.77,0,0,0-.12-.13.65.65,0,0,0-.16-.09.43.43,0,0,0-.19,0,.67.67,0,0,0-.31.07.61.61,0,0,0-.2.19.83.83,0,0,0-.12.27,1.55,1.55,0,0,0,0,.31,1.36,1.36,0,0,0,0,.29.77.77,0,0,0,.12.26.61.61,0,0,0,.2.19.67.67,0,0,0,.31.07.5.5,0,0,0,.38-.15.72.72,0,0,0,.17-.39h.51a1.17,1.17,0,0,1-.1.41,1,1,0,0,1-.55.51,1.4,1.4,0,0,1-.41.06,1.2,1.2,0,0,1-.5-.09,1.15,1.15,0,0,1-.38-.27,1.23,1.23,0,0,1-.23-.4,1.2,1.2,0,0,1-.08-.49,1.24,1.24,0,0,1,.08-.51,1.13,1.13,0,0,1,.23-.4,1.17,1.17,0,0,1,.38-.28,1.33,1.33,0,0,1,.88,0,1.41,1.41,0,0,1,.32.17,1,1,0,0,1,.23.28.94.94,0,0,1,.11.37Zm.83.39a.54.54,0,0,1,.08-.28.65.65,0,0,1,.19-.18.82.82,0,0,1,.26-.1l.29,0,.27,0a.73.73,0,0,1,.25.08.45.45,0,0,1,.19.15.43.43,0,0,1,.07.25v.92a1.85,1.85,0,0,0,0,.23.33.33,0,0,0,.05.16h-.49a.31.31,0,0,1,0-.08s0-.06,0-.09a.62.62,0,0,1-.27.17,1.12,1.12,0,0,1-.32,0,.91.91,0,0,1-.23,0,.66.66,0,0,1-.19-.09.43.43,0,0,1-.13-.17.45.45,0,0,1,0-.23.43.43,0,0,1,.05-.25.47.47,0,0,1,.13-.15.82.82,0,0,1,.19-.09l.22-.05.21,0,.19,0a.31.31,0,0,0,.13-.06.13.13,0,0,0,0-.12.17.17,0,0,0,0-.12.16.16,0,0,0-.07-.07l-.1,0h-.12a.34.34,0,0,0-.22.07.26.26,0,0,0-.1.2Zm1.11.36-.07,0-.1,0h-.11l-.12,0-.11,0-.09,0-.06.08a.2.2,0,0,0,0,.11.22.22,0,0,0,0,.11.23.23,0,0,0,.07.07.14.14,0,0,0,.09,0h.11a.4.4,0,0,0,.22,0,.34.34,0,0,0,.12-.12.28.28,0,0,0,0-.13.41.41,0,0,0,0-.11Zm1.47-.9h.35v.32h-.35v.87a.16.16,0,0,0,.11.21.14.14,0,0,0,.09,0h.15v.38H31a.74.74,0,0,1-.21,0l-.18-.06a.34.34,0,0,1-.12-.12.54.54,0,0,1,0-.22v-1h-.29v-.32h.29v-.53h.48Zm.57.54a.54.54,0,0,1,.08-.28.55.55,0,0,1,.19-.18.82.82,0,0,1,.26-.1,1.43,1.43,0,0,1,.29,0l.27,0a.73.73,0,0,1,.25.08.43.43,0,0,1,.18.15.37.37,0,0,1,.07.25v.92a2,2,0,0,0,0,.23.33.33,0,0,0,0,.16h-.49l0-.08s0-.06,0-.09a.69.69,0,0,1-.27.17,1.12,1.12,0,0,1-.32,0,1,1,0,0,1-.24,0,.82.82,0,0,1-.19-.09.52.52,0,0,1-.12-.17.46.46,0,0,1,0-.23.7.7,0,0,1,0-.25.5.5,0,0,1,.14-.15.66.66,0,0,1,.19-.09l.22-.05.21,0,.19,0a.38.38,0,0,0,.13-.06.13.13,0,0,0,0-.12.27.27,0,0,0,0-.12.11.11,0,0,0-.06-.07l-.1,0H32.3a.39.39,0,0,0-.23.07.25.25,0,0,0-.09.2Zm1.11.36a.2.2,0,0,1-.08,0l-.1,0h-.11l-.11,0-.11,0-.09,0a.16.16,0,0,0-.06.08.2.2,0,0,0,0,.11.23.23,0,0,0,0,.11s0,.05.06.07a.17.17,0,0,0,.1,0h.11a.41.41,0,0,0,.22,0,.34.34,0,0,0,.12-.12.28.28,0,0,0,0-.13.41.41,0,0,0,0-.11Zm1.74.54a.34.34,0,0,0,.2,0,.53.53,0,0,0,.13-.13.36.36,0,0,0,.07-.18,1.06,1.06,0,0,0,0-.41.48.48,0,0,0-.07-.18.4.4,0,0,0-.13-.13.35.35,0,0,0-.2-.05.29.29,0,0,0-.2.05.37.37,0,0,0-.13.12.67.67,0,0,0-.07.18,1.11,1.11,0,0,0,0,.42.49.49,0,0,0,.08.18.35.35,0,0,0,.32.17Zm-.88-1.44h.46v.23h0a.47.47,0,0,1,.23-.21.73.73,0,0,1,.3-.07.85.85,0,0,1,.35.08.64.64,0,0,1,.25.21.85.85,0,0,1,.15.3,1.49,1.49,0,0,1,0,.36,1.33,1.33,0,0,1,0,.34.89.89,0,0,1-.15.29.68.68,0,0,1-.24.2.65.65,0,0,1-.34.07.8.8,0,0,1-.3-.06.61.61,0,0,1-.22-.2h0v.83h-.48Zm3.72,1.76h-.46V31.6h0a.53.53,0,0,1-.24.23.72.72,0,0,1-.29.06.7.7,0,0,1-.32-.05.48.48,0,0,1-.2-.14.67.67,0,0,1-.1-.23,1.53,1.53,0,0,1,0-.3V30.09H36v1a.61.61,0,0,0,.06.33.26.26,0,0,0,.24.11.35.35,0,0,0,.29-.12.66.66,0,0,0,.09-.39v-.92h.48Zm.38-2.43h.48v2.43h-.48Zm1.48.67h.35v.32h-.35v.87a.16.16,0,0,0,.11.21.14.14,0,0,0,.09,0h.15v.38h-.28a.74.74,0,0,1-.21,0,.48.48,0,0,1-.18-.06.34.34,0,0,1-.12-.12.54.54,0,0,1,0-.22v-1h-.29v-.32h.29v-.53h.49Zm2.39,2a.54.54,0,0,1-.21.3.68.68,0,0,1-.39.09h-.3v-.4h.28A.22.22,0,0,0,41,32a.23.23,0,0,0,0-.14.36.36,0,0,0,0-.11l-.61-1.65h.51l.4,1.21h0l.38-1.21h.5ZM42.77,31a1.49,1.49,0,0,0,0,.21.67.67,0,0,0,.07.18.53.53,0,0,0,.13.13.34.34,0,0,0,.2,0,.36.36,0,0,0,.21,0,.4.4,0,0,0,.13-.13.45.45,0,0,0,.07-.18,1.11,1.11,0,0,0,0-.42.45.45,0,0,0-.07-.18.37.37,0,0,0-.13-.12.42.42,0,0,0-.54.12.45.45,0,0,0-.07.18,1.49,1.49,0,0,0,0,.21Zm-.48,0a1,1,0,0,1,.06-.38.8.8,0,0,1,.47-.48,1,1,0,0,1,.37-.07,1.22,1.22,0,0,1,.38.07.8.8,0,0,1,.47.48,1.23,1.23,0,0,1,0,.76.79.79,0,0,1-.18.29.91.91,0,0,1-.29.19,1.21,1.21,0,0,1-.38.06,1,1,0,0,1-.37-.06.91.91,0,0,1-.29-.19.79.79,0,0,1-.18-.29,1,1,0,0,1-.06-.38Zm3.77.88h-.45V31.6h0a.59.59,0,0,1-.24.23.77.77,0,0,1-.3.06.7.7,0,0,1-.32-.05.47.47,0,0,1-.29-.37,1.53,1.53,0,0,1,0-.3V30.09h.48v1a.62.62,0,0,0,.07.33.25.25,0,0,0,.24.11.36.36,0,0,0,.29-.12.66.66,0,0,0,.08-.39v-.92h.48Zm.37-1.76h.46v.33h0a.38.38,0,0,1,.09-.15.49.49,0,0,1,.13-.12l.16-.08a.57.57,0,0,1,.18,0l.1,0v.45h-.17a.54.54,0,0,0-.22.05.35.35,0,0,0-.15.12.37.37,0,0,0-.08.18.78.78,0,0,0,0,.22v.79h-.48Zm3.47.62a.33.33,0,0,0-.35-.3h0a.35.35,0,0,0-.2.05.41.41,0,0,0-.12.14.4.4,0,0,0-.07.18.68.68,0,0,0,0,.2.62.62,0,0,0,0,.19.48.48,0,0,0,.06.18.4.4,0,0,0,.13.13.26.26,0,0,0,.19.05.38.38,0,0,0,.27-.09.54.54,0,0,0,.11-.26h.47a.85.85,0,0,1-.27.53.87.87,0,0,1-.58.18.91.91,0,0,1-.36-.06.77.77,0,0,1-.28-.19.84.84,0,0,1-.18-.28.91.91,0,0,1-.06-.36,1,1,0,0,1,.05-.38.83.83,0,0,1,.18-.3.69.69,0,0,1,.28-.2.93.93,0,0,1,.68,0,.62.62,0,0,1,.26.12.67.67,0,0,1,.27.5Zm.73-.08a.54.54,0,0,1,.08-.28.65.65,0,0,1,.19-.18.93.93,0,0,1,.26-.1,1.53,1.53,0,0,1,.3,0l.26,0a.73.73,0,0,1,.25.08.4.4,0,0,1,.19.15.43.43,0,0,1,.07.25v.92a1.85,1.85,0,0,0,0,.23.49.49,0,0,0,0,.16H51.8a.31.31,0,0,1,0-.08.28.28,0,0,1,0-.09.73.73,0,0,1-.28.17,1.1,1.1,0,0,1-.31,0,1,1,0,0,1-.24,0,.66.66,0,0,1-.19-.09.55.55,0,0,1-.13-.17.59.59,0,0,1,0-.23.43.43,0,0,1,.05-.25.4.4,0,0,1,.14-.15.56.56,0,0,1,.19-.09l.21-.05.22,0,.18,0a.31.31,0,0,0,.13-.06.17.17,0,0,0,0-.12.27.27,0,0,0,0-.12.16.16,0,0,0-.07-.07l-.1,0h-.12a.34.34,0,0,0-.22.07.25.25,0,0,0-.09.2Zm1.11.36-.07,0-.1,0h-.11l-.12,0-.1,0-.1,0-.06.08a.14.14,0,0,0,0,.11.22.22,0,0,0,0,.11l.06.07a.19.19,0,0,0,.1,0h.11a.41.41,0,0,0,.22,0,.34.34,0,0,0,.12-.12.28.28,0,0,0,0-.13.41.41,0,0,0,0-.11Zm.86-.9h.46v.33h0a.53.53,0,0,1,.22-.27.8.8,0,0,1,.16-.08.57.57,0,0,1,.18,0l.1,0v.45h-.17a.54.54,0,0,0-.22.05.35.35,0,0,0-.15.12.37.37,0,0,0-.08.18.78.78,0,0,0,0,.22v.79H52.6Zm2.51.69A.6.6,0,0,0,55,30.5a.3.3,0,0,0-.26-.09.43.43,0,0,0-.19,0,.27.27,0,0,0-.12.09.54.54,0,0,0-.07.13.36.36,0,0,0,0,.11Zm-.79.31a.54.54,0,0,0,.12.34.5.5,0,0,0,.56,0,.29.29,0,0,0,.13-.16h.43a.84.84,0,0,1-.31.45.86.86,0,0,1-.51.14,1,1,0,0,1-.38-.07.84.84,0,0,1-.28-.18.92.92,0,0,1-.18-.3,1.17,1.17,0,0,1,0-.74.84.84,0,0,1,.47-.49.94.94,0,0,1,.37-.07.89.89,0,0,1,.39.09.74.74,0,0,1,.27.23,1,1,0,0,1,.16.33,1.29,1.29,0,0,1,0,.39Zm2.74-.31a.7.7,0,0,0-.12-.28.33.33,0,0,0-.27-.09.43.43,0,0,0-.19,0,.27.27,0,0,0-.12.09.54.54,0,0,0-.07.13.36.36,0,0,0,0,.11Zm-.79.31a.54.54,0,0,0,.12.34.5.5,0,0,0,.56,0,.29.29,0,0,0,.13-.16h.43a.84.84,0,0,1-.31.45.86.86,0,0,1-.51.14,1,1,0,0,1-.38-.07.84.84,0,0,1-.28-.18.92.92,0,0,1-.18-.3,1.17,1.17,0,0,1,0-.74.87.87,0,0,1,.47-.49.94.94,0,0,1,.37-.07.89.89,0,0,1,.39.09.67.67,0,0,1,.27.23,1,1,0,0,1,.16.33,1.29,1.29,0,0,1,0,.39Zm1.56-1h.45v.33h0a.66.66,0,0,1,.22-.27.6.6,0,0,1,.16-.08.57.57,0,0,1,.18,0l.11,0v.45h-.18a.59.59,0,0,0-.22.05.35.35,0,0,0-.15.12.49.49,0,0,0-.08.18.78.78,0,0,0,0,.22v.79h-.48Z"/><path id="Line" class="cls-2" d="M0,30.83H24.47v-.34H0Z"/><path id="Line-Copy" class="cls-2" d="M60.33,30.83H84.8v-.34H60.33Z"/><path id="Combined-Shape" class="cls-2" d="M29.89,19.31a7.14,7.14,0,0,1,1.93.45c.4,0,.23-.32.43-.32s.12,0,.13.2l.21,2.12c0,.22,0,.32,0,.37s0,.11-.09.11-.12-.23-.3-.68c-.5-1.24-1.1-2-2.35-2-.79,0-1.42.34-1.42,1.2,0,1.83,4.55.81,4.55,3.85a2.74,2.74,0,0,1-2.95,2.64c-1.11,0-1.64-.52-2.07-.52s-.37.38-.56.38-.09,0-.09-.1V23.92c0-.14,0-.17.11-.17s.11.17.15.4c.27,1.43.83,2.85,2.47,2.85,1.15,0,1.8-.58,1.8-1.44,0-2.27-4.49-1.16-4.49-3.94A2.39,2.39,0,0,1,29.89,19.31Zm-23.36,0c.06,0,.09,0,.12.21L7,21.57a2.9,2.9,0,0,1,.06.41.1.1,0,0,1-.08.11H7c-.26,0-.37-1.73-2.59-2.33V26c0,.71.35.87.89.87.14,0,.21,0,.21.15s-.06.12-.18.12l-1.74,0-1.74,0c-.12,0-.18,0-.18-.12s.07-.15.2-.15c.55,0,.9-.15.9-.87V19.76C.53,20.36.42,22.09.16,22.09A.1.1,0,0,1,.06,22v0c0-.14,0-.28.05-.41l.37-2.05c0-.17.07-.21.13-.21a.19.19,0,0,1,.15.08.54.54,0,0,0,.3.1h5a.48.48,0,0,0,.29-.1A.21.21,0,0,1,6.53,19.31Zm3.7.15c.18,0,.22.06.22.15,0,.31-1-.13-1,.77v5.81c0,.9,1,.46,1,.78,0,.09,0,.14-.22.14l-1.56,0-1.56,0c-.18,0-.23-.05-.23-.14,0-.32,1,.12,1-.78V20.38c0-.89-1-.46-1-.77,0-.09,0-.15.23-.15.57,0,1.11,0,1.56,0s1,0,1.56,0Zm9.72,0c.17,0,.22.06.22.15,0,.31-1-.13-1,.77v5.81c0,.9,1,.46,1,.78,0,.09-.05.14-.22.14l-1.56,0-1.56,0c-.18,0-.23-.05-.23-.14,0-.32,1,.12,1-.78V20.36h0l-2.7,6.7a.11.11,0,0,1-.08,0,.16.16,0,0,1-.09,0L12,20.65h0v4.58c0,.94.3,1.31.6,1.47s.62.08.62.27-.06.14-.25.14l-1.1,0-1.1,0c-.19,0-.25-.05-.25-.14s.22-.06.62-.27.6-.53.6-1.47V20.28a1.06,1.06,0,0,0-.94-.55c-.15,0-.2-.05-.21-.13a.15.15,0,0,1,.13-.14h0l1.24,0h1.26l2.24,5.34,2.18-5.34h.73c.45,0,1,0,1.56,0Zm6.21,0,.56,2.14a1.63,1.63,0,0,1,.07.3c0,.05,0,.09-.11.09s-.09-.19-.53-.92a2.66,2.66,0,0,0-2.6-1.34h-.61V23h.29a1.39,1.39,0,0,0,1.4-1.38h0c0-.22,0-.28.15-.28s.12.06.12.16v3.43c0,.1,0,.16-.12.16s-.14-.06-.15-.28c-.05-1-.62-1.53-1.4-1.53h-.29v2.83c0,.51.21.78.92.78a3.14,3.14,0,0,0,3-2.35c.07-.22.08-.32.18-.32a.13.13,0,0,1,.12.11v0a3.06,3.06,0,0,1-.05.32l-.49,2.49-4.53,0-1.56,0c-.18,0-.23-.05-.23-.14,0-.32,1,.12,1-.78V20.38c0-.89-1-.46-1-.77,0-.09.05-.15.23-.15.57,0,1.11,0,1.56,0,1.39,0,2.71,0,4,0Z"/><path id="Combined-Shape-2" class="cls-2" d="M47.82,19.5c2.66,0,3.46.81,3.89,2.35H48.89a1,1,0,0,0-.36-.55,1.51,1.51,0,0,0-.85-.23,1.17,1.17,0,0,0-.73.18.51.51,0,0,0-.23.43.47.47,0,0,0,.29.44,4.94,4.94,0,0,0,1.27.26,8.31,8.31,0,0,1,2.2.47,2.4,2.4,0,0,1,1.11.85A2.05,2.05,0,0,1,52,24.92a2.35,2.35,0,0,1-.4,1.31,2.76,2.76,0,0,1-1.28,1,6,6,0,0,1-2.38.37c-3,0-4-1.86-4.18-2.6h3a1.39,1.39,0,0,0,.51.75,1.59,1.59,0,0,0,.88.23,1.44,1.44,0,0,0,.92-.26.57.57,0,0,0,.26-.47.53.53,0,0,0-.34-.5,6.2,6.2,0,0,0-1.27-.31,12.2,12.2,0,0,1-2.15-.5,2.22,2.22,0,0,1-1-.77,2.16,2.16,0,0,1,0-2.57,2.6,2.6,0,0,1,1.23-.83A6.47,6.47,0,0,1,47.82,19.5Zm8.84,0c3.54,0,4,2.17,4.3,3h-2.8a1.34,1.34,0,0,0-.48-.75,1.52,1.52,0,0,0-.93-.25,1.47,1.47,0,0,0-1.19.53,2.41,2.41,0,0,0-.46,1.6,2,2,0,0,0,.45,1.45,1.52,1.52,0,0,0,1.16.5,1.58,1.58,0,0,0,1-.3,1.71,1.71,0,0,0,.59-.92l2.83,0a5.59,5.59,0,0,1-.77,1.87,4.1,4.1,0,0,1-3.47,1.37,8.32,8.32,0,0,1-2-.23,3.67,3.67,0,0,1-1.42-.75,3.78,3.78,0,0,1-.92-1.21,4.3,4.3,0,0,1-.34-1.84,4.39,4.39,0,0,1,.41-2,3.64,3.64,0,0,1,.82-1.05,3.72,3.72,0,0,1,1.06-.69A6.07,6.07,0,0,1,56.66,19.5ZM39,19.5a12.88,12.88,0,0,1,2.15.15,2.79,2.79,0,0,1,1.35.62,2.23,2.23,0,0,1,.6.94,3.4,3.4,0,0,1,.22,1.15v3.42a4.11,4.11,0,0,0,.07.86,3.78,3.78,0,0,0,.3.79H40.62v-.95a3.71,3.71,0,0,1-1.16.8,4.78,4.78,0,0,1-1.83.33A3.06,3.06,0,0,1,35.52,27a2,2,0,0,1-.72-1.58,2.09,2.09,0,0,1,.52-1.45,3.47,3.47,0,0,1,1.91-.85c1.12-.23,1.84-.38,2.17-.47a10.17,10.17,0,0,0,1.06-.36,1.09,1.09,0,0,0-.23-.76,1.14,1.14,0,0,0-.8-.22,2,2,0,0,0-1.09.23,1.25,1.25,0,0,0-.46.69H35c0-1.58,1.74-2.69,4-2.69Zm26.48,0a5.82,5.82,0,0,1,2.63.5,3.45,3.45,0,0,1,1.46,1.47A5.33,5.33,0,0,1,70.12,24v.33h-6a1.89,1.89,0,0,0,.39,1.07,1.41,1.41,0,0,0,1.12.5,1.61,1.61,0,0,0,.83-.22,1.74,1.74,0,0,0,.52-.49L70,25.08a4.38,4.38,0,0,1-4.34,2.53,5.64,5.64,0,0,1-2.43-.44,3.53,3.53,0,0,1-1.46-1.38,4.12,4.12,0,0,1-.58-2.22,3.86,3.86,0,0,1,1.16-2.94,4.45,4.45,0,0,1,3.22-1.13Zm10.4,0a2.53,2.53,0,0,1,1.93.74,3.18,3.18,0,0,1,.7,2.26v4.93h-3V23.17a1.59,1.59,0,0,0-.27-1,1,1,0,0,0-.76-.3,1.08,1.08,0,0,0-.88.41,2.41,2.41,0,0,0-.33,1.47v3.72h-3V19.68h2.76v1.26a4.19,4.19,0,0,1,1.26-1.11,3.31,3.31,0,0,1,1.55-.33Zm6.82-2.27v2.45h1.63v2.16H82.74v2.33c0,.89.06.89,1.74.89v2.3c-3.29.07-3.88.11-4.47-.9a4.83,4.83,0,0,1-.25-1.88V21.84h-1.1V19.68h1.1V17.23ZM40.45,23.75c-.41.15-.83.27-1.27.39a2.92,2.92,0,0,0-1.15.47A.77.77,0,0,0,38,25.69l.05,0a1,1,0,0,0,.72.22,1.86,1.86,0,0,0,.92-.24,1.42,1.42,0,0,0,.6-.59,1.86,1.86,0,0,0,.18-.9Zm25.19-2.49a1.35,1.35,0,0,0-1.13.56,2,2,0,0,0-.34,1.05h2.92a2,2,0,0,0-.46-1.24,1.35,1.35,0,0,0-1-.37Z"/><path id="Path-2" class="cls-2" d="M75.88,15.53,71.23,18h2.21v2.06Z"/></g></svg>