<svg xmlns="http://www.w3.org/2000/svg" viewBox="0 0 36.47 49.21"><defs><style>.cls-1{fill:none;stroke:#f02f39;stroke-linecap:round;stroke-linejoin:round;stroke-width:0.21px;}</style></defs><g id="Layer_2" data-name="Layer 2"><g id="Layer_1-2" data-name="Layer 1"><path class="cls-1" d="M12.16,27.2h-1.4v4.56h.5l-.18.44v.44h-.32v.46h.32v.44h-.32V49.1h1.4V27.34a.76.76,0,0,1,0-.15Z"/><path class="cls-1" d="M24.3,27.2h0V49.1h1.41V33.54h-.32V33.1h.32v-.46h-.32V32.2l-.18-.44h.5V27.2H24.3Z"/><path class="cls-1" d="M18.46,18.66h-7.7v7.23h.5v.43l-.18.44,0-.1h1.09a5.46,5.46,0,0,1,5.42-4.79h1.21a5.46,5.46,0,0,1,5.42,4.79h1.09l0,.1-.18-.44v-.43h.5V18.66Z"/><rect class="cls-1" x="25.71" y="45.27" width="10.07" height="3.83"/><rect class="cls-1" x="25.71" y="44.13" width="10.07" height="1.14"/><rect class="cls-1" x="25.71" y="33.54" width="10.07" height="10.6"/><rect class="cls-1" x="25.39" y="33.1" width="10.8" height="0.44"/><rect class="cls-1" x="25.39" y="32.2" width="10.8" height="0.44"/><polygon class="cls-1" points="36.18 32.2 25.39 32.2 25.21 31.76 36.37 31.76 36.18 32.2"/><rect class="cls-1" x="25.39" y="26.76" width="10.8" height="0.44"/><rect class="cls-1" x="25.21" y="25.89" width="11.16" height="0.44"/><polygon class="cls-1" points="36.18 26.76 25.39 26.76 25.21 26.32 36.37 26.32 36.18 26.76"/><rect class="cls-1" x="25.71" y="32.64" width="10.07" height="0.46"/><rect class="cls-1" x="25.71" y="27.2" width="10.07" height="4.56"/><rect class="cls-1" x="25.71" y="18.66" width="10.07" height="7.22"/><rect class="cls-1" x="1.09" y="16.28" width="34.8" height="0.39"/><polygon class="cls-1" points="35.9 16.29 1.09 16.29 0.73 15.89 36.26 15.89 35.9 16.29"/><rect class="cls-1" x="1.85" y="12.31" width="33.3" height="3.59"/><rect class="cls-1" x="2.82" y="8.72" width="31.35" height="3.58"/><rect class="cls-1" x="5.29" y="3.09" width="26.42" height="5.63"/><rect class="cls-1" x="11.58" y="1.98" width="13.83" height="1.1"/><path class="cls-1" d="M23.43,2a7.4,7.4,0,0,0-9.86,0Z"/><rect class="cls-1" x="27.37" y="45.27" width="6.73" height="3.83"/><rect class="cls-1" x="27.37" y="44.13" width="6.73" height="1.14"/><rect class="cls-1" x="27.37" y="33.54" width="6.73" height="10.6"/><rect class="cls-1" x="27.05" y="33.1" width="7.46" height="0.44"/><rect class="cls-1" x="27.05" y="32.2" width="7.46" height="0.44"/><polygon class="cls-1" points="34.52 32.2 27.05 32.2 26.87 31.76 34.7 31.76 34.52 32.2"/><rect class="cls-1" x="27.05" y="26.76" width="7.46" height="0.44"/><rect class="cls-1" x="26.87" y="25.89" width="7.83" height="0.44"/><polygon class="cls-1" points="34.52 26.76 27.05 26.76 26.87 26.32 34.7 26.32 34.52 26.76"/><rect class="cls-1" x="27.05" y="23.6" width="7.46" height="0.44"/><polygon class="cls-1" points="34.52 23.6 27.05 23.6 26.87 23.16 34.7 23.16 34.52 23.6"/><rect class="cls-1" x="27.37" y="32.64" width="6.73" height="0.46"/><rect class="cls-1" x="27.37" y="27.2" width="6.73" height="4.56"/><rect class="cls-1" x="28.44" y="28.16" width="4.61" height="2.38"/><rect class="cls-1" x="27.37" y="24.04" width="6.73" height="1.85"/><rect class="cls-1" x="28.44" y="24.41" width="4.61" height="0.97"/><path class="cls-1" d="M32.41,20.81a1.58,1.58,0,1,1-1.57-1.58A1.57,1.57,0,0,1,32.41,20.81Z"/><path class="cls-1" d="M32,20.81a1.16,1.16,0,1,1-1.16-1.16A1.15,1.15,0,0,1,32,20.81Z"/><rect class="cls-1" x="1.6" y="16.68" width="33.8" height="1.3"/><rect class="cls-1" x="2.55" y="16.68" width="1.5" height="1.3"/><rect class="cls-1" x="5.32" y="16.68" width="1.5" height="1.3"/><rect class="cls-1" x="8.08" y="16.68" width="1.49" height="1.3"/><rect class="cls-1" x="10.84" y="16.68" width="1.49" height="1.3"/><rect class="cls-1" x="13.6" y="16.68" width="1.49" height="1.3"/><rect class="cls-1" x="16.37" y="16.68" width="1.49" height="1.3"/><rect class="cls-1" x="19.13" y="16.68" width="1.49" height="1.3"/><rect class="cls-1" x="21.89" y="16.68" width="1.49" height="1.3"/><rect class="cls-1" x="24.65" y="16.68" width="1.5" height="1.3"/><rect class="cls-1" x="27.42" y="16.68" width="1.5" height="1.3"/><rect class="cls-1" x="30.18" y="16.68" width="1.49" height="1.3"/><rect class="cls-1" x="32.94" y="16.68" width="1.49" height="1.3"/><polygon class="cls-1" points="35.77 18.66 1.2 18.66 0.96 17.98 36.02 17.98 35.77 18.66"/><path class="cls-1" d="M12.17,6a1.49,1.49,0,1,1-1.49-1.49A1.48,1.48,0,0,1,12.17,6Z"/><path class="cls-1" d="M27.8,6a1.49,1.49,0,1,1-1.49-1.49A1.49,1.49,0,0,1,27.8,6Z"/><rect class="cls-1" x="12.71" y="4.28" width="11.58" height="3.46"/><polygon class="cls-1" points="25.39 26.76 25.34 26.66 24.01 26.66 24.3 27.2 25.39 27.2 25.39 26.76"/><rect class="cls-1" x="24.3" y="27.2" width="1.4" height="0.31"/><rect class="cls-1" x="0.69" y="45.27" width="10.07" height="3.83"/><rect class="cls-1" x="0.69" y="44.13" width="10.07" height="1.14"/><rect class="cls-1" x="0.69" y="33.54" width="10.07" height="10.6"/><rect class="cls-1" x="0.28" y="33.1" width="10.8" height="0.44"/><rect class="cls-1" x="0.28" y="32.2" width="10.8" height="0.44"/><polygon class="cls-1" points="0.28 32.2 11.08 32.2 11.26 31.76 0.1 31.76 0.28 32.2"/><rect class="cls-1" x="0.28" y="26.76" width="10.8" height="0.44"/><rect class="cls-1" x="0.1" y="25.89" width="11.16" height="0.44"/><polygon class="cls-1" points="0.28 26.76 11.08 26.76 11.26 26.32 0.1 26.32 0.28 26.76"/><rect class="cls-1" x="0.69" y="32.64" width="10.07" height="0.46"/><rect class="cls-1" x="0.69" y="27.2" width="10.07" height="4.56"/><rect class="cls-1" x="0.69" y="18.66" width="10.07" height="7.22"/><rect class="cls-1" x="2.36" y="45.27" width="6.73" height="3.83"/><rect class="cls-1" x="2.36" y="44.13" width="6.73" height="1.14"/><rect class="cls-1" x="2.36" y="33.54" width="6.73" height="10.6"/><rect class="cls-1" x="1.95" y="33.1" width="7.46" height="0.44"/><rect class="cls-1" x="1.95" y="32.2" width="7.46" height="0.44"/><polygon class="cls-1" points="1.95 32.2 9.41 32.2 9.6 31.76 1.77 31.76 1.95 32.2"/><rect class="cls-1" x="1.95" y="26.76" width="7.46" height="0.44"/><rect class="cls-1" x="1.77" y="25.89" width="7.82" height="0.44"/><polygon class="cls-1" points="1.95 26.76 9.41 26.76 9.6 26.32 1.77 26.32 1.95 26.76"/><rect class="cls-1" x="1.95" y="23.6" width="7.46" height="0.44"/><polygon class="cls-1" points="1.95 23.6 9.41 23.6 9.6 23.16 1.77 23.16 1.95 23.6"/><rect class="cls-1" x="2.36" y="32.64" width="6.73" height="0.46"/><rect class="cls-1" x="2.36" y="27.2" width="6.73" height="4.56"/><rect class="cls-1" x="3.42" y="28.16" width="4.61" height="2.38"/><rect class="cls-1" x="2.36" y="24.04" width="6.73" height="1.85"/><rect class="cls-1" x="3.42" y="24.41" width="4.61" height="0.97"/><path class="cls-1" d="M4.06,20.81a1.57,1.57,0,1,0,1.57-1.58A1.57,1.57,0,0,0,4.06,20.81Z"/><path class="cls-1" d="M4.47,20.81a1.16,1.16,0,1,0,1.16-1.16A1.15,1.15,0,0,0,4.47,20.81Z"/><polygon class="cls-1" points="25.71 18.66 10.76 18.66 10.76 19.84 17.67 19.84 17.83 21.41 18.67 21.41 18.83 19.84 25.71 19.84 25.71 18.66"/><polygon class="cls-1" points="11.08 26.76 11.12 26.66 12.45 26.66 12.16 27.2 11.08 27.2 11.08 26.76"/><rect class="cls-1" x="10.76" y="27.2" width="1.4" height="0.31"/><path class="cls-1" d="M25.35,26.66l-.14-.34v-.44a6.25,6.25,0,0,0-6.32-5.49h-.11l-.11,1h-.84l-.1-1h-.15a6.25,6.25,0,0,0-6.32,5.49v.44l-.14.34h1.1a5.47,5.47,0,0,1,5.41-4.79h1.21a5.47,5.47,0,0,1,5.41,4.79Z"/></g></g></svg>