<svg xmlns="http://www.w3.org/2000/svg" width="272.053" height="54.312" viewBox="0 0 272.053 54.312">
  <g id="Group_1" data-name="Group 1" transform="translate(-116 -234)">
    <path id="Catapultyourcareer" d="M66.6,35.545a1.4,1.4,0,0,0-.2-.54,1.72,1.72,0,0,0-.382-.431,1.756,1.756,0,0,0-.518-.289,1.778,1.778,0,0,0-.605-.1,2,2,0,0,0-.981.224,1.853,1.853,0,0,0-.654.6,2.626,2.626,0,0,0-.365.856,4.264,4.264,0,0,0-.115.992,3.965,3.965,0,0,0,.115.954,2.577,2.577,0,0,0,.365.834,1.871,1.871,0,0,0,.654.594,2,2,0,0,0,.981.224,1.584,1.584,0,0,0,1.227-.48,2.218,2.218,0,0,0,.54-1.265h1.657a3.959,3.959,0,0,1-.338,1.319,3.162,3.162,0,0,1-.72,1,3.062,3.062,0,0,1-1.047.632,3.835,3.835,0,0,1-1.319.218,3.992,3.992,0,0,1-1.608-.311,3.445,3.445,0,0,1-1.2-.856,3.788,3.788,0,0,1-.752-1.281,4.7,4.7,0,0,1-.262-1.586,4.863,4.863,0,0,1,.262-1.619,3.889,3.889,0,0,1,.752-1.3,3.44,3.44,0,0,1,1.2-.872,4.174,4.174,0,0,1,2.824-.131,3.288,3.288,0,0,1,1.025.54,2.916,2.916,0,0,1,.747.878,3.138,3.138,0,0,1,.371,1.2Zm2.661,1.265a1.8,1.8,0,0,1,.273-.905,1.858,1.858,0,0,1,.611-.578,2.664,2.664,0,0,1,.834-.311,4.743,4.743,0,0,1,.932-.093,6.32,6.32,0,0,1,.861.06,2.634,2.634,0,0,1,.8.234,1.569,1.569,0,0,1,.589.485,1.355,1.355,0,0,1,.229.823V39.46a5.88,5.88,0,0,0,.044.731,1.32,1.32,0,0,0,.153.523h-1.57a2.212,2.212,0,0,1-.071-.267,2.342,2.342,0,0,1-.038-.278,2.02,2.02,0,0,1-.872.534,3.5,3.5,0,0,1-1.025.153,2.769,2.769,0,0,1-.752-.1,1.725,1.725,0,0,1-.611-.305,1.424,1.424,0,0,1-.409-.523,1.77,1.77,0,0,1-.147-.752,1.644,1.644,0,0,1,.169-.791,1.414,1.414,0,0,1,.436-.5,1.955,1.955,0,0,1,.611-.278,6.543,6.543,0,0,1,.692-.147q.349-.054.687-.087a4.127,4.127,0,0,0,.6-.1,1.045,1.045,0,0,0,.414-.191.419.419,0,0,0,.142-.365.823.823,0,0,0-.082-.4.6.6,0,0,0-.218-.229.859.859,0,0,0-.316-.109,2.589,2.589,0,0,0-.387-.027,1.175,1.175,0,0,0-.72.2.877.877,0,0,0-.305.654Zm3.576,1.145a.691.691,0,0,1-.245.136,2.489,2.489,0,0,1-.316.082q-.169.033-.354.054t-.371.054a2.808,2.808,0,0,0-.344.087,1.015,1.015,0,0,0-.294.147.7.7,0,0,0-.2.234.753.753,0,0,0-.076.36.727.727,0,0,0,.076.349.586.586,0,0,0,.207.224.876.876,0,0,0,.305.115,1.947,1.947,0,0,0,.36.033,1.369,1.369,0,0,0,.709-.153,1.021,1.021,0,0,0,.371-.365,1.168,1.168,0,0,0,.147-.431,2.962,2.962,0,0,0,.027-.349Zm4.711-2.879h1.134v1.036H77.548V38.9a.524.524,0,0,0,.654.654q.131,0,.251-.011a2.16,2.16,0,0,0,.229-.033v1.2a3.694,3.694,0,0,1-.436.044q-.24.011-.469.011a4.511,4.511,0,0,1-.682-.049,1.607,1.607,0,0,1-.567-.191,1.011,1.011,0,0,1-.387-.4A1.442,1.442,0,0,1,76,39.438V36.112h-.938V35.076H76v-1.69h1.548Zm1.81,1.734a1.8,1.8,0,0,1,.273-.905,1.858,1.858,0,0,1,.611-.578,2.665,2.665,0,0,1,.834-.311,4.743,4.743,0,0,1,.932-.093,6.32,6.32,0,0,1,.861.06,2.634,2.634,0,0,1,.8.234,1.567,1.567,0,0,1,.589.485,1.355,1.355,0,0,1,.229.823V39.46a5.883,5.883,0,0,0,.044.731,1.32,1.32,0,0,0,.153.523h-1.57a2.211,2.211,0,0,1-.071-.267A2.342,2.342,0,0,1,83,40.168a2.02,2.02,0,0,1-.872.534,3.5,3.5,0,0,1-1.025.153,2.769,2.769,0,0,1-.752-.1,1.725,1.725,0,0,1-.611-.305,1.424,1.424,0,0,1-.409-.523,1.769,1.769,0,0,1-.147-.752,1.644,1.644,0,0,1,.169-.791,1.414,1.414,0,0,1,.436-.5,1.955,1.955,0,0,1,.611-.278,6.55,6.55,0,0,1,.692-.147q.349-.054.687-.087a4.127,4.127,0,0,0,.6-.1,1.045,1.045,0,0,0,.414-.191.419.419,0,0,0,.142-.365.823.823,0,0,0-.082-.4.6.6,0,0,0-.218-.229.859.859,0,0,0-.316-.109,2.589,2.589,0,0,0-.387-.027,1.175,1.175,0,0,0-.72.2.877.877,0,0,0-.305.654Zm3.576,1.145a.691.691,0,0,1-.245.136,2.488,2.488,0,0,1-.316.082q-.169.033-.354.054t-.371.054a2.807,2.807,0,0,0-.343.087,1.015,1.015,0,0,0-.294.147.7.7,0,0,0-.2.234.755.755,0,0,0-.076.36.729.729,0,0,0,.076.349.587.587,0,0,0,.207.224.876.876,0,0,0,.305.115,1.948,1.948,0,0,0,.36.033,1.369,1.369,0,0,0,.709-.153,1.021,1.021,0,0,0,.371-.365,1.168,1.168,0,0,0,.147-.431,2.963,2.963,0,0,0,.027-.349ZM88.528,39.7a1.227,1.227,0,0,0,.638-.153,1.241,1.241,0,0,0,.414-.4,1.639,1.639,0,0,0,.224-.573,3.38,3.38,0,0,0,.065-.665,3.13,3.13,0,0,0-.071-.665,1.769,1.769,0,0,0-.234-.583,1.3,1.3,0,0,0-.42-.414,1.172,1.172,0,0,0-.627-.158,1.194,1.194,0,0,0-.638.158,1.273,1.273,0,0,0-.414.409,1.693,1.693,0,0,0-.223.578,3.439,3.439,0,0,0-.065.676,3.129,3.129,0,0,0,.071.665,1.716,1.716,0,0,0,.229.573,1.191,1.191,0,0,0,1.052.551Zm-2.846-4.623h1.472v.72h.022a1.7,1.7,0,0,1,.72-.665,2.208,2.208,0,0,1,.96-.207A2.441,2.441,0,0,1,90,35.174a2.363,2.363,0,0,1,.8.665,2.809,2.809,0,0,1,.469.965,4.286,4.286,0,0,1,.153,1.15,3.874,3.874,0,0,1-.153,1.09,2.776,2.776,0,0,1-.463.927,2.3,2.3,0,0,1-.774.643,2.329,2.329,0,0,1-1.085.24,2.2,2.2,0,0,1-.965-.213,1.827,1.827,0,0,1-.725-.627H87.23v2.671H85.682Zm11.951,5.637H96.161v-.785h-.033a1.742,1.742,0,0,1-.763.709,2.253,2.253,0,0,1-.96.218,2.707,2.707,0,0,1-1.02-.164,1.472,1.472,0,0,1-.627-.463,1.813,1.813,0,0,1-.322-.731,4.544,4.544,0,0,1-.093-.954V35.076h1.548V38.26a1.975,1.975,0,0,0,.218,1.041.845.845,0,0,0,.774.344,1.073,1.073,0,0,0,.916-.376,2.092,2.092,0,0,0,.283-1.238V35.076h1.548Zm1.221-7.785H100.4v7.785H98.854Zm4.732,2.148h1.134v1.036h-1.134V38.9a.524.524,0,0,0,.654.654q.131,0,.251-.011a2.155,2.155,0,0,0,.229-.033v1.2a3.694,3.694,0,0,1-.436.044q-.24.011-.469.011a4.509,4.509,0,0,1-.681-.049,1.607,1.607,0,0,1-.567-.191,1.01,1.01,0,0,1-.387-.4,1.44,1.44,0,0,1-.142-.687V36.112H101.1V35.076h.938v-1.69h1.548Zm7.687,6.335a1.907,1.907,0,0,1-.7.981,2.245,2.245,0,0,1-1.243.294q-.24,0-.474-.016t-.474-.038V41.357l.447.044a3.209,3.209,0,0,0,.458.011.6.6,0,0,0,.453-.24.773.773,0,0,0,.147-.458.931.931,0,0,0-.065-.349l-1.974-5.288H109.5l1.276,3.86h.022l1.232-3.86h1.6Zm4.253-3.511a3.32,3.32,0,0,0,.065.66,1.744,1.744,0,0,0,.224.578,1.191,1.191,0,0,0,.42.409,1.284,1.284,0,0,0,.654.153,1.315,1.315,0,0,0,.66-.153,1.17,1.17,0,0,0,.424-.409,1.745,1.745,0,0,0,.224-.578,3.222,3.222,0,0,0,.066-.66,3.3,3.3,0,0,0-.066-.665,1.685,1.685,0,0,0-.224-.578,1.232,1.232,0,0,0-.424-.409,1.279,1.279,0,0,0-.66-.158,1.192,1.192,0,0,0-1.075.567,1.685,1.685,0,0,0-.224.578A3.4,3.4,0,0,0,115.526,37.9Zm-1.549,0a3.459,3.459,0,0,1,.207-1.227,2.581,2.581,0,0,1,1.505-1.537,3.211,3.211,0,0,1,1.2-.213,3.265,3.265,0,0,1,1.2.213,2.564,2.564,0,0,1,1.51,1.537,3.458,3.458,0,0,1,.207,1.227,3.414,3.414,0,0,1-.207,1.221,2.645,2.645,0,0,1-.588.932,2.576,2.576,0,0,1-.921.594,3.342,3.342,0,0,1-1.2.207,3.286,3.286,0,0,1-1.2-.207,2.565,2.565,0,0,1-.916-.594,2.649,2.649,0,0,1-.589-.932A3.414,3.414,0,0,1,113.977,37.9ZM126.1,40.714h-1.472v-.785H124.6a1.747,1.747,0,0,1-.763.709,2.257,2.257,0,0,1-.961.218,2.709,2.709,0,0,1-1.019-.164,1.475,1.475,0,0,1-.627-.463,1.833,1.833,0,0,1-.321-.731,4.509,4.509,0,0,1-.092-.954V35.076h1.547V38.26a1.979,1.979,0,0,0,.218,1.041.845.845,0,0,0,.775.344,1.07,1.07,0,0,0,.915-.376,2.085,2.085,0,0,0,.285-1.238V35.076H126.1Zm1.178-5.637h1.473v1.047h.022a1.885,1.885,0,0,1,.294-.485,1.925,1.925,0,0,1,.425-.382,2.081,2.081,0,0,1,.512-.245,1.853,1.853,0,0,1,.568-.087,1.2,1.2,0,0,1,.337.054v1.439c-.073-.014-.16-.027-.262-.038a2.753,2.753,0,0,0-.294-.016,1.643,1.643,0,0,0-.72.142,1.254,1.254,0,0,0-.476.387,1.573,1.573,0,0,0-.256.572,3.16,3.16,0,0,0-.076.709v2.541H127.28Zm11.111,1.984a1.038,1.038,0,0,0-1.145-.97,1.084,1.084,0,0,0-.621.169,1.338,1.338,0,0,0-.409.436,1.872,1.872,0,0,0-.224.589,3.21,3.21,0,0,0-.065.638,3.08,3.08,0,0,0,.065.622,1.9,1.9,0,0,0,.213.572,1.218,1.218,0,0,0,.4.42,1.1,1.1,0,0,0,.611.164,1.135,1.135,0,0,0,.856-.311,1.469,1.469,0,0,0,.375-.834h1.495a2.555,2.555,0,0,1-.873,1.712,2.814,2.814,0,0,1-1.843.589,3.085,3.085,0,0,1-1.161-.213,2.584,2.584,0,0,1-.9-.594,2.714,2.714,0,0,1-.577-.91,3.155,3.155,0,0,1-.207-1.161,3.752,3.752,0,0,1,.191-1.216,2.745,2.745,0,0,1,.561-.97,2.578,2.578,0,0,1,.905-.638,3.073,3.073,0,0,1,1.221-.229,3.53,3.53,0,0,1,.965.131,2.581,2.581,0,0,1,.829.4,2.055,2.055,0,0,1,.856,1.608Zm2.355-.251a1.8,1.8,0,0,1,.272-.905,1.864,1.864,0,0,1,.611-.578,2.662,2.662,0,0,1,.835-.311,4.739,4.739,0,0,1,.932-.093,6.3,6.3,0,0,1,.86.06,2.632,2.632,0,0,1,.8.234,1.559,1.559,0,0,1,.588.485,1.353,1.353,0,0,1,.229.823V39.46a6.016,6.016,0,0,0,.043.731,1.324,1.324,0,0,0,.153.523H144.5a2.526,2.526,0,0,1-.07-.267,2.343,2.343,0,0,1-.038-.278,2.016,2.016,0,0,1-.873.534,3.5,3.5,0,0,1-1.024.153,2.757,2.757,0,0,1-.752-.1,1.726,1.726,0,0,1-.611-.305,1.427,1.427,0,0,1-.409-.523,1.778,1.778,0,0,1-.146-.752,1.646,1.646,0,0,1,.168-.791,1.417,1.417,0,0,1,.436-.5,1.965,1.965,0,0,1,.611-.278,6.521,6.521,0,0,1,.692-.147q.348-.054.687-.087a4.1,4.1,0,0,0,.6-.1,1.044,1.044,0,0,0,.415-.191.421.421,0,0,0,.142-.365.81.81,0,0,0-.083-.4.6.6,0,0,0-.218-.229.851.851,0,0,0-.316-.109,2.6,2.6,0,0,0-.388-.027,1.176,1.176,0,0,0-.72.2.873.873,0,0,0-.3.654Zm3.577,1.145a.706.706,0,0,1-.245.136,2.551,2.551,0,0,1-.317.082q-.169.033-.354.054c-.123.014-.248.033-.371.054a2.772,2.772,0,0,0-.343.087,1.011,1.011,0,0,0-.3.147.7.7,0,0,0-.2.234.746.746,0,0,0-.077.36.721.721,0,0,0,.077.349.581.581,0,0,0,.206.224.885.885,0,0,0,.306.115,1.944,1.944,0,0,0,.359.033,1.365,1.365,0,0,0,.709-.153,1.016,1.016,0,0,0,.371-.365,1.184,1.184,0,0,0,.148-.431,3.08,3.08,0,0,0,.027-.349Zm2.747-2.879h1.473v1.047h.022a1.939,1.939,0,0,1,.72-.867,2.081,2.081,0,0,1,.512-.245,1.853,1.853,0,0,1,.568-.087,1.2,1.2,0,0,1,.337.054v1.439c-.073-.014-.16-.027-.262-.038a2.754,2.754,0,0,0-.294-.016,1.643,1.643,0,0,0-.72.142,1.239,1.239,0,0,0-.474.387,1.553,1.553,0,0,0-.257.572,3.161,3.161,0,0,0-.076.709v2.541H147.07Zm8.037,2.213a1.792,1.792,0,0,0-.388-.894,1.084,1.084,0,0,0-.844-.305,1.348,1.348,0,0,0-.617.125,1.179,1.179,0,0,0-.393.311,1.161,1.161,0,0,0-.207.393,1.88,1.88,0,0,0-.07.371Zm-2.519.981a1.563,1.563,0,0,0,.382,1.09,1.588,1.588,0,0,0,1.81.1.967.967,0,0,0,.413-.5h1.363a2.585,2.585,0,0,1-1,1.45,2.954,2.954,0,0,1-1.636.436,3.221,3.221,0,0,1-1.2-.213,2.488,2.488,0,0,1-.905-.605,2.728,2.728,0,0,1-.573-.938,3.441,3.441,0,0,1-.2-1.2,3.286,3.286,0,0,1,.206-1.178,2.729,2.729,0,0,1,1.5-1.57,2.915,2.915,0,0,1,1.172-.229,2.679,2.679,0,0,1,1.253.278,2.5,2.5,0,0,1,.878.747,3.067,3.067,0,0,1,.5,1.069,4,4,0,0,1,.11,1.254Zm8.778-.981a1.792,1.792,0,0,0-.388-.894,1.086,1.086,0,0,0-.844-.305,1.348,1.348,0,0,0-.617.125,1.179,1.179,0,0,0-.393.311,1.16,1.16,0,0,0-.207.393,1.786,1.786,0,0,0-.07.371Zm-2.519.981a1.563,1.563,0,0,0,.382,1.09,1.588,1.588,0,0,0,1.81.1.968.968,0,0,0,.413-.5h1.363a2.591,2.591,0,0,1-1,1.45,2.954,2.954,0,0,1-1.636.436,3.221,3.221,0,0,1-1.2-.213,2.489,2.489,0,0,1-.905-.605,2.728,2.728,0,0,1-.573-.938,3.441,3.441,0,0,1-.2-1.2,3.287,3.287,0,0,1,.207-1.178,2.729,2.729,0,0,1,1.5-1.57,2.915,2.915,0,0,1,1.172-.229,2.679,2.679,0,0,1,1.253.278,2.5,2.5,0,0,1,.878.747,3.067,3.067,0,0,1,.5,1.069,4,4,0,0,1,.11,1.254Zm4.984-3.195H165.3v1.047h.022a1.939,1.939,0,0,1,.72-.867,2.081,2.081,0,0,1,.512-.245,1.853,1.853,0,0,1,.568-.087,1.2,1.2,0,0,1,.337.054v1.439c-.073-.014-.16-.027-.262-.038a2.753,2.753,0,0,0-.294-.016,1.643,1.643,0,0,0-.72.142,1.239,1.239,0,0,0-.474.387,1.553,1.553,0,0,0-.257.572,3.16,3.16,0,0,0-.076.709v2.541h-1.547Z" transform="translate(137.684 245.625)" fill="#020202"/>
    <path id="Line" d="M0,36.5H78.508v-1.09H0Z" transform="translate(116 246.571)" fill="#020202"/>
    <path id="Line-Copy" d="M142.832,36.5h78.509v-1.09H142.832Z" transform="translate(166.712 246.571)" fill="#020202"/>
    <path id="Combined-Shape" d="M95.857,8.93c3.382,0,5.182,1.439,6.189,1.439,1.259,0,.72-1.008,1.367-1.008.252,0,.4.108.432.648l.648,6.8c.072.684.108,1.007.108,1.187,0,.252-.108.36-.288.36-.36,0-.4-.756-.971-2.195-1.583-3.994-3.526-6.369-7.521-6.369-2.555,0-4.57,1.115-4.57,3.85,0,5.9,14.609,2.627,14.609,12.378,0,4.786-4.03,8.456-9.464,8.456-3.562,0-5.254-1.655-6.657-1.655s-1.187,1.223-1.8,1.223c-.18,0-.288-.072-.288-.324v-10c0-.432.144-.54.36-.54.36,0,.36.54.5,1.3.864,4.57,2.663,9.14,7.916,9.14,3.67,0,5.757-1.871,5.757-4.642,0-7.269-14.393-3.706-14.393-12.63C87.8,12.1,91.4,8.93,95.857,8.93ZM20.9,8.93c.18,0,.288.144.4.684L22.483,16.2a11.244,11.244,0,0,1,.18,1.3.313.313,0,0,1-.324.36c-.828,0-1.187-5.541-8.312-7.484V30.3c0,2.3,1.115,2.807,2.879,2.807.432,0,.648.108.648.468,0,.288-.18.4-.576.4-2.051,0-3.886-.072-5.577-.072s-3.526.072-5.577.072c-.4,0-.576-.108-.576-.4,0-.36.216-.468.648-.468,1.763,0,2.879-.5,2.879-2.807V10.37C1.649,12.313,1.289,17.854.461,17.854a.313.313,0,0,1-.324-.36,11.232,11.232,0,0,1,.18-1.3L1.5,9.614c.108-.54.216-.684.4-.684a.84.84,0,0,1,.5.252,1.547,1.547,0,0,0,.936.324H19.46a1.548,1.548,0,0,0,.936-.324A.84.84,0,0,1,20.9,8.93Zm11.858.5c.576,0,.72.18.72.468,0,1.007-3.095-.4-3.095,2.483V31.024c0,2.879,3.095,1.475,3.095,2.483,0,.288-.144.468-.72.468-1.835,0-3.562-.072-5-.072s-3.166.072-5,.072c-.576,0-.72-.18-.72-.468,0-1.008,3.095.4,3.095-2.483V12.385c0-2.879-3.095-1.475-3.095-2.483,0-.288.144-.468.72-.468,1.835,0,3.562.072,5,.072S30.923,9.434,32.758,9.434Zm31.181,0c.576,0,.72.18.72.468,0,1.007-3.095-.4-3.095,2.483V31.024c0,2.879,3.095,1.475,3.095,2.483,0,.288-.144.468-.72.468-1.835,0-3.562-.072-5-.072s-3.166.072-5,.072c-.576,0-.72-.18-.72-.468,0-1.008,3.095.4,3.095-2.483V12.313h-.072L47.6,33.795a.327.327,0,0,1-.252.108.409.409,0,0,1-.288-.108L38.535,13.248h-.072V27.929c0,3.023.936,4.21,1.907,4.714,1.3.684,1.979.252,1.979.864,0,.288-.18.468-.792.468-.9,0-2.087-.072-3.526-.072s-2.627.072-3.526.072c-.612,0-.792-.18-.792-.468,0-.612.684-.18,1.979-.864.972-.5,1.907-1.691,1.907-4.714V12.061A3.282,3.282,0,0,0,34.613,10.3c-.5-.036-.648-.18-.684-.432a.426.426,0,0,1,.468-.432c1.331,0,2.663.072,3.994.072h4.03l7.2,17.128L56.6,9.506h2.339C60.377,9.506,62.1,9.434,63.939,9.434Zm19.95,0,1.8,6.873a6.242,6.242,0,0,1,.216.936c0,.18-.108.288-.36.288-.324,0-.288-.612-1.691-2.951C82.162,11.773,79.823,10.3,75.5,10.3H73.562V20.661h.9a4.468,4.468,0,0,0,4.5-4.462c.036-.72.144-.9.5-.9.216,0,.36.18.36.5V26.814c0,.324-.144.5-.36.5-.36,0-.468-.18-.5-.9-.144-3.2-1.979-4.894-4.5-4.894h-.9v9.068c0,1.655.648,2.519,2.951,2.519,5.613,0,8.636-3.994,9.751-7.556.216-.684.252-1.007.576-1.007a.35.35,0,0,1,.36.4,7.789,7.789,0,0,1-.144,1.043l-1.583,7.988c-4.75-.036-9.535-.072-14.537-.072-1.439,0-3.167.072-5,.072-.576,0-.72-.18-.72-.468,0-1.008,3.095.4,3.095-2.483V12.385c0-2.879-3.095-1.475-3.095-2.483,0-.288.144-.468.72-.468,1.835,0,3.562.072,5,.072C75.4,9.506,79.643,9.47,83.889,9.434Z" transform="translate(116.049 237.171)" fill="#020202"/>
    <path id="Combined-Shape-2" data-name="Combined-Shape" d="M124.175,11.3c8.526,0,11.094,2.6,12.462,7.543H127.6a3.089,3.089,0,0,0-1.172-1.757,4.782,4.782,0,0,0-2.717-.75,3.853,3.853,0,0,0-2.355.574,1.714,1.714,0,0,0-.737,1.394,1.485,1.485,0,0,0,.936,1.382,15.118,15.118,0,0,0,4.076.843,27.892,27.892,0,0,1,7.075,1.5,7.8,7.8,0,0,1,3.55,2.741,6.736,6.736,0,0,1,1.229,3.912,7.709,7.709,0,0,1-1.3,4.193,8.8,8.8,0,0,1-4.1,3.245,19.675,19.675,0,0,1-7.625,1.207c-9.7,0-12.877-5.974-13.423-8.363H120.5a4.673,4.673,0,0,0,1.64,2.413,4.876,4.876,0,0,0,2.812.726,4.751,4.751,0,0,0,2.976-.82,1.834,1.834,0,0,0,.82-1.523,1.741,1.741,0,0,0-1.079-1.593,19.579,19.579,0,0,0-4.1-.984,42.759,42.759,0,0,1-6.9-1.6,7.276,7.276,0,0,1-3.256-2.495,6.476,6.476,0,0,1-1.324-4.006,6.565,6.565,0,0,1,1.428-4.24,8.51,8.51,0,0,1,3.936-2.659A20.89,20.89,0,0,1,124.175,11.3Zm28.354,0c11.336,0,12.916,6.95,13.775,9.745h-8.973a4.149,4.149,0,0,0-1.534-2.4,4.977,4.977,0,0,0-2.987-.808,4.817,4.817,0,0,0-3.831,1.7,7.714,7.714,0,0,0-1.463,5.142,6.694,6.694,0,0,0,1.453,4.662,4.786,4.786,0,0,0,3.7,1.593,5.09,5.09,0,0,0,3.15-.96,5.722,5.722,0,0,0,1.909-2.952l9.067-.06c-.5,1.89-1.32,4.616-2.459,6s-4.05,4.369-11.128,4.369a24.907,24.907,0,0,1-6.6-.738,11.523,11.523,0,0,1-4.533-2.389,12.059,12.059,0,0,1-2.976-3.877,13.659,13.659,0,0,1-1.077-5.9,13.924,13.924,0,0,1,1.312-6.4,11.6,11.6,0,0,1,2.623-3.362,12.116,12.116,0,0,1,3.42-2.214A18.956,18.956,0,0,1,152.529,11.3Zm-56.523,0a39.469,39.469,0,0,1,6.887.48,8.853,8.853,0,0,1,4.334,2,7.033,7.033,0,0,1,1.921,2.987,10.815,10.815,0,0,1,.7,3.69V31.444a13.2,13.2,0,0,0,.224,2.753,12.294,12.294,0,0,0,.972,2.542h-9.98V33.693a12.341,12.341,0,0,1-3.725,2.577,15.506,15.506,0,0,1-5.88,1.031q-4.451,0-6.758-2.062A6.55,6.55,0,0,1,82.4,30.156a6.659,6.659,0,0,1,1.663-4.662q1.663-1.827,6.138-2.717,5.365-1.078,6.958-1.511a32.381,32.381,0,0,0,3.373-1.136,3.354,3.354,0,0,0-.726-2.46,3.645,3.645,0,0,0-2.553-.7,6.605,6.605,0,0,0-3.514.75,4.108,4.108,0,0,0-1.476,2.2H83.145C83.145,14.857,88.748,11.3,96.006,11.3Zm84.928,0a18.363,18.363,0,0,1,8.432,1.616,10.907,10.907,0,0,1,4.709,4.685,17.13,17.13,0,0,1,1.617,7.988v1.078H176.576a6.174,6.174,0,0,0,1.241,3.42,4.522,4.522,0,0,0,3.608,1.616A5.416,5.416,0,0,0,184.1,31a6.269,6.269,0,0,0,1.664-1.57l9.393-.224c-1.436,2.5-4.222,8.095-13.938,8.095a17.887,17.887,0,0,1-7.778-1.394,11.422,11.422,0,0,1-4.7-4.427,13.365,13.365,0,0,1-1.862-7.133,12.531,12.531,0,0,1,3.736-9.441Q174.35,11.3,180.934,11.3Zm33.363,0a8.14,8.14,0,0,1,6.2,2.354q2.236,2.354,2.237,7.274V36.738h-9.582V23.057a4.974,4.974,0,0,0-.867-3.315,3.092,3.092,0,0,0-2.436-.972,3.463,3.463,0,0,0-2.81,1.312q-1.077,1.312-1.079,4.709V36.738h-9.534V11.86H205.3v4.053a13.218,13.218,0,0,1,4.03-3.549A10.608,10.608,0,0,1,214.3,11.3Zm21.879-7.283V11.86h5.248v6.958h-5.248V26.27c.007,2.869.207,2.869,5.6,2.869v7.388c-10.552.224-12.45.327-14.349-2.917a15.9,15.9,0,0,1-.808-6.032V18.817H223.1V11.86h3.514V4.015ZM100.528,24.931q-1.968.7-4.1,1.242A9.476,9.476,0,0,0,92.75,27.7a2.439,2.439,0,0,0-.012,3.6,3.32,3.32,0,0,0,2.308.714,5.931,5.931,0,0,0,2.963-.773,4.678,4.678,0,0,0,1.944-1.886,6.312,6.312,0,0,0,.574-2.893Zm80.8-7.988a4.315,4.315,0,0,0-3.63,1.8,6.6,6.6,0,0,0-1.1,3.35h9.395a6.376,6.376,0,0,0-1.488-3.959A4.316,4.316,0,0,0,181.331,16.943Z" transform="translate(145.255 235.425)" fill="#f02f39"/>
    <path id="Path-2" d="M183.574,0,168.631,7.993h7.118V14.61Z" transform="translate(175.872 234)" fill="#020202"/>
  </g>
</svg>
