<svg xmlns="http://www.w3.org/2000/svg" viewBox="0 0 146.12 146.12">
  <defs>
    <style>
      .cls-1 {
        fill: #daecfe;
      }

      .cls-2 {
        fill: #b4dbfe;
      }

      .cls-3 {
        fill: #fcde35;
      }

      .cls-4 {
        fill: #fefefe;
      }

      .cls-5 {
        fill: #fac600;
      }

      .cls-6 {
        fill: #b167da;
      }

      .cls-7 {
        fill: #8dcafe;
      }

      .cls-8 {
        fill: #8ccafe;
      }

      .cls-9 {
        fill: #8bc9fe;
      }

      .cls-10 {
        fill: #8dc829;
      }

      .cls-11 {
        fill: #9957be;
      }

      .cls-12 {
        fill: #e9b800;
      }

      .cls-13 {
        fill: #fe72c7;
      }

      .cls-14 {
        fill: #b4dafe;
      }
    </style>
  </defs>
  <g id="Layer_2" data-name="Layer 2">
    <g id="Layer_1-2" data-name="Layer 1">
      <g>
        <path class="cls-1" d="M139.82,146.1H72.48c-4.69-1.6-6.61-4.87-6.31-9.63.16-2.5,0-5,0-7.52l36.52,0c1.69,0,2.78-.88,2.84-2.2s-1.1-2.34-2.84-2.34l-36.52,0,0-6.29h36.5c.7,0,1.43.14,2-.45a2.09,2.09,0,0,0,.61-2.44,2.27,2.27,0,0,0-2.5-1.42H66.2l0-10.9c.31-.42.61-.85.94-1.25A28.09,28.09,0,0,0,73.18,78.5a29.22,29.22,0,0,0-7-14.26c0-3,0-5.95,0-8.92l36.35,0H103c1.48-.15,2.65-1.22,2.58-2.36a2.44,2.44,0,0,0-2.72-2.17l-36.64,0v-6.3h36.51c.7,0,1.43.15,2-.45a2.09,2.09,0,0,0,.62-2.43,2.29,2.29,0,0,0-2.51-1.42q-18.31,0-36.65,0V23.39c.62,0,1.23-.07,1.85-.07h58.47c.62,0,1.24,0,1.85,0s1.51.09,2.26.1l15.46,0V139.82A9.11,9.11,0,0,1,139.82,146.1ZM119.5,53.66a2.62,2.62,0,0,0,2-1.06q4.68-4.68,9.36-9.37c1.3-1.31,1.43-2.62.38-3.6s-2.27-.74-3.49.47c-2.49,2.48-5,4.95-7.44,7.47-.66.69-1,.66-1.67,0-1.61-1.69-3.27-3.32-4.93-4.94a2.21,2.21,0,0,0-3.29-.23c-1,.92-.89,2.26.22,3.39,2.34,2.36,4.7,4.7,7,7A2.25,2.25,0,0,0,119.5,53.66ZM112,66.3a2.17,2.17,0,0,0-2,1.31,2.24,2.24,0,0,0,.56,2.6c2.36,2.34,4.7,4.7,7.06,7,1.35,1.35,2.44,1.36,3.8,0q4.8-4.76,9.57-9.57c1.23-1.24,1.33-2.52.32-3.49s-2.28-.78-3.49.43c-2.46,2.44-4.93,4.87-7.34,7.37-.71.73-1.12.86-1.88,0-1.51-1.64-3.15-3.16-4.71-4.75A3,3,0,0,0,112,66.3Zm7.46,36.45a2.6,2.6,0,0,0,2.09-1.06l9.36-9.37c1.31-1.32,1.43-2.6.38-3.59s-2.26-.76-3.49.46c-2.52,2.51-5,5-7.54,7.56-.56.57-.9.6-1.47,0-1.64-1.72-3.33-3.39-5-5-1.11-1.08-2.34-1.14-3.28-.24a2.27,2.27,0,0,0,.21,3.39c2.34,2.36,4.7,4.7,7,7A2.23,2.23,0,0,0,119.46,102.75ZM132,114.9a2.17,2.17,0,0,0-1.36-2.05,2.26,2.26,0,0,0-2.59.64c-2.54,2.56-5.12,5.08-7.63,7.67-.71.73-1.11.7-1.78,0-1.53-1.63-3.13-3.18-4.72-4.75-1.25-1.22-2.52-1.32-3.49-.31s-.8,2.25.33,3.38q3.45,3.5,7,7c1.24,1.23,2.36,1.27,3.6,0,3.31-3.26,6.58-6.57,9.87-9.86A2.63,2.63,0,0,0,132,114.9Zm-39.39-35c3.47,0,6.94,0,10.41,0a2.28,2.28,0,1,0,0-4.52q-10.4,0-20.81,0a2.36,2.36,0,0,0-2.09,1,1.94,1.94,0,0,0-.21,2.14,2.5,2.5,0,0,0,2.45,1.38C85.76,79.89,89.18,79.88,92.6,79.88Zm0,20c-3.47,0-6.94,0-10.41,0a2.36,2.36,0,0,0-2.55,2.32,2.39,2.39,0,0,0,2.55,2.19c6.94,0,13.87,0,20.81,0a2.39,2.39,0,0,0,2.09-1,2,2,0,0,0,.16-2.26,2.5,2.5,0,0,0-2.38-1.26C99.44,99.88,96,99.89,92.6,99.89Zm0-30.82c3.51,0,7,0,10.55,0a2.16,2.16,0,1,0,0-4.29q-10.55,0-21.09,0a2.16,2.16,0,1,0,0,4.29C85.58,69.08,89.09,69.07,92.61,69.07Zm-.09,24.55h10.55a2.17,2.17,0,1,0,0-4.29h-21a2.17,2.17,0,1,0,0,4.29Z"/>
        <path class="cls-2" d="M54.5,146.1c-1.82-.75-3.65-1.43-4.85-3.21a7.61,7.61,0,0,1-1.44-4.36q0-13.31,0-26.61c2.79-.47,5.6-.86,8.11-2.32a2.6,2.6,0,0,0,1.32-.44,32.06,32.06,0,0,0,8.54-6.2l0,10.9c-2,1.6-2,3.14,0,4.3,0,2.1,0,4.19,0,6.29-2,1.53-2,3,0,4.5,0,2.51.13,5,0,7.52-.3,4.76,1.62,8,6.31,9.63Z"/>
        <path class="cls-3" d="M122.69.06c.55.14.82.62,1.18,1L145.05,22.2c.33.33.56.77,1,.91v.29l-15.46,0c-.75,0-1.51-.07-2.26-.1-.11-.14-.19-.35-.33-.41-3.92-1.47-5.34-4.51-5.34-8.45Q122.71,7.23,122.69.06Z"/>
        <path class="cls-4" d="M139.82,146.1a9.11,9.11,0,0,0,6.28-6.28c0,1.86,0,3.71,0,5.57,0,.61-.12.75-.73.73C143.53,146.07,141.68,146.1,139.82,146.1Z"/>
        <path class="cls-5" d="M122.69.06q0,7.17,0,14.34c0,3.94,1.42,7,5.34,8.45.14.06.22.27.33.41-.61,0-1.23,0-1.85,0H68.06c-.62,0-1.23,0-1.85.07a.41.41,0,0,1,0-.16q0-8,0-15.95a5.26,5.26,0,0,1,.19-1.11c.72-3.18,2.9-5,5.79-6.11C72.47,0,72.75,0,73,0h49C122.22,0,122.45,0,122.69.06Z"/>
        <path class="cls-2" d="M48.2,55.24q0-16,0-31.92h2l16-.08a.41.41,0,0,0,0,.16q0,8.41,0,16.84c-2,1.57-2,2.74,0,4.3,0,2.1,0,4.2,0,6.3-2,1.53-2,3,0,4.49,0,3,0,5.94,0,8.92l-1.25-1.16a25.72,25.72,0,0,0-8.74-5.68A26.38,26.38,0,0,0,48.2,55.24Z"/>
        <path class="cls-6" d="M56.19,57.4a25.72,25.72,0,0,1,8.74,5.68l1.25,1.16a29.22,29.22,0,0,1,7,14.26,28.09,28.09,0,0,1-6.07,23.21c-.33.4-.63.83-.94,1.25a32.06,32.06,0,0,1-8.54,6.2,2.6,2.6,0,0,1-1.32.44,19.15,19.15,0,0,1-6.3-3.74c-1.27-1.06-2.94-1.8-3.51-3.58A18.91,18.91,0,0,0,63.68,80.64C62.39,72.35,54.85,65.27,46.56,65a1,1,0,0,1-.06-.25c0-.6.5-.89.86-1.26A34.76,34.76,0,0,1,56.19,57.4Z"/>
        <path class="cls-7" d="M66.2,129c-2-1.54-2-3,0-4.5l36.52,0c1.74,0,2.9,1,2.84,2.34s-1.15,2.2-2.84,2.2Z"/>
        <path class="cls-8" d="M66.2,55.32c-2-1.52-2-3,0-4.49l36.64,0A2.44,2.44,0,0,1,105.56,53c.07,1.14-1.1,2.21-2.58,2.36h-.43Z"/>
        <path class="cls-9" d="M66.22,118.16c-2-1.16-2-2.7,0-4.3h36.65a2.27,2.27,0,0,1,2.5,1.42,2.09,2.09,0,0,1-.61,2.44c-.59.59-1.32.44-2,.45Z"/>
        <path class="cls-9" d="M66.21,44.53c-2-1.56-2-2.73,0-4.3q18.33,0,36.65,0a2.29,2.29,0,0,1,2.51,1.42,2.09,2.09,0,0,1-.62,2.43c-.59.6-1.32.45-2,.45Z"/>
        <path class="cls-10" d="M119.5,53.66a2.25,2.25,0,0,1-1.77-.83c-2.34-2.35-4.7-4.69-7-7-1.11-1.13-1.17-2.47-.22-3.39a2.21,2.21,0,0,1,3.29.23c1.66,1.62,3.32,3.25,4.93,4.94.63.67,1,.7,1.67,0,2.44-2.52,5-5,7.44-7.47,1.22-1.21,2.52-1.38,3.49-.47s.92,2.29-.38,3.6q-4.66,4.7-9.36,9.37A2.62,2.62,0,0,1,119.5,53.66Z"/>
        <path class="cls-10" d="M112,66.3a3,3,0,0,1,1.89,1c1.56,1.59,3.2,3.11,4.71,4.75.76.83,1.17.7,1.88,0,2.41-2.5,4.88-4.93,7.34-7.37,1.21-1.21,2.52-1.36,3.49-.43s.91,2.25-.32,3.49q-4.77,4.8-9.57,9.57c-1.36,1.35-2.45,1.34-3.8,0-2.36-2.34-4.7-4.7-7.06-7a2.24,2.24,0,0,1-.56-2.6A2.17,2.17,0,0,1,112,66.3Z"/>
        <path class="cls-10" d="M119.46,102.75a2.23,2.23,0,0,1-1.73-.83c-2.34-2.35-4.7-4.69-7-7a2.27,2.27,0,0,1-.21-3.39c.94-.9,2.17-.84,3.28.24,1.7,1.65,3.39,3.32,5,5,.57.59.91.56,1.47,0,2.49-2.54,5-5,7.54-7.56,1.23-1.22,2.51-1.38,3.49-.46s.93,2.27-.38,3.59l-9.36,9.37A2.6,2.6,0,0,1,119.46,102.75Z"/>
        <path class="cls-10" d="M132,114.9a2.63,2.63,0,0,1-.82,1.71c-3.29,3.29-6.56,6.6-9.87,9.86-1.24,1.22-2.36,1.18-3.6,0q-3.49-3.45-7-7c-1.13-1.13-1.24-2.44-.33-3.38s2.24-.91,3.49.31c1.59,1.57,3.19,3.12,4.72,4.75.67.71,1.07.74,1.78,0,2.51-2.59,5.09-5.11,7.63-7.67a2.26,2.26,0,0,1,2.59-.64A2.17,2.17,0,0,1,132,114.9Z"/>
        <path class="cls-7" d="M92.6,79.88c-3.42,0-6.84,0-10.26,0a2.5,2.5,0,0,1-2.45-1.38,1.94,1.94,0,0,1,.21-2.14,2.36,2.36,0,0,1,2.09-1q10.41,0,20.81,0a2.28,2.28,0,1,1,0,4.52C99.54,79.91,96.07,79.88,92.6,79.88Z"/>
        <path class="cls-7" d="M92.6,99.89c3.42,0,6.84,0,10.27,0a2.5,2.5,0,0,1,2.38,1.26,2,2,0,0,1-.16,2.26,2.39,2.39,0,0,1-2.09,1c-6.94,0-13.87,0-20.81,0a2.39,2.39,0,0,1-2.55-2.19,2.36,2.36,0,0,1,2.55-2.32C85.66,99.86,89.13,99.89,92.6,99.89Z"/>
        <path class="cls-9" d="M92.61,69.07c-3.52,0-7,0-10.55,0a2.16,2.16,0,1,1,0-4.29q10.54,0,21.09,0a2.16,2.16,0,1,1,0,4.29C99.64,69.08,96.12,69.07,92.61,69.07Z"/>
        <path class="cls-9" d="M92.52,93.62H82.12a2.17,2.17,0,1,1,0-4.29h21a2.17,2.17,0,1,1,0,4.29Z"/>
        <path class="cls-11" d="M46.5,102.28c.57,1.78,2.24,2.52,3.51,3.58a19.15,19.15,0,0,0,6.3,3.74c-2.51,1.46-5.32,1.85-8.11,2.32a29.05,29.05,0,0,1-13.86-2c-1.55-.66-3.06-1.42-4.6-2.14A39.94,39.94,0,0,1,21.06,99a38.64,38.64,0,0,1-3.71-9.36,28.48,28.48,0,0,1,22.49-34,29.68,29.68,0,0,1,8.36-.39,26.38,26.38,0,0,1,8,2.16,34.76,34.76,0,0,0-8.83,6.11c-.36.37-.84.66-.86,1.26a45.35,45.35,0,0,0-4.53.37,18.66,18.66,0,0,0,4,37Z"/>
        <path class="cls-12" d="M66.23,23.23l-16,.08h-2c0-5.51-.15-11,0-16.53A7.35,7.35,0,0,1,55.37.05C61-.06,66.58.05,72.19.06,69.3,1.19,67.12,3,66.4,6.17a5.26,5.26,0,0,0-.19,1.11Q66.21,15.25,66.23,23.23Z"/>
        <path class="cls-13" d="M21.06,99a39.94,39.94,0,0,0,8.68,8.78,5.7,5.7,0,0,1-.52.67Q20,117.65,10.77,126.86a6.36,6.36,0,0,1-7.11,1.34A6.29,6.29,0,0,1,0,122a5.31,5.31,0,0,1,1.47-3.47Q11.26,108.71,21.06,99Z"/>
        <path class="cls-1" d="M46.5,102.28l-.56-.1a3.82,3.82,0,0,0-.31-.47,28.43,28.43,0,0,1-6.52-17.65,27.39,27.39,0,0,1,4-14.89c.92-1.53,1.57-3.4,3.48-4.15,8.29.25,15.83,7.33,17.12,15.62A18.91,18.91,0,0,1,46.5,102.28Z"/>
        <path class="cls-14" d="M46.56,65c-1.91.75-2.56,2.62-3.48,4.15a27.39,27.39,0,0,0-4,14.89,28.43,28.43,0,0,0,6.52,17.65,3.82,3.82,0,0,1,.31.47,18.66,18.66,0,0,1-4-37,45.35,45.35,0,0,1,4.53-.37A1,1,0,0,0,46.56,65Z"/>
      </g>
    </g>
  </g>
</svg>
