<svg xmlns="http://www.w3.org/2000/svg" viewBox="0 0 146.45 146.45">
  <defs>
    <style>
      .cls-1 {
        fill: #4c6989;
      }

      .cls-2 {
        fill: #fed06c;
      }

      .cls-3 {
        fill: #9bb5c5;
      }

      .cls-4 {
        fill: #febb34;
      }

      .cls-5 {
        fill: #fefefd;
      }
    </style>
  </defs>
  <g id="Layer_2" data-name="Layer 2">
    <g id="Layer_1-2" data-name="Layer 1">
      <g>
        <path class="cls-1" d="M41.2,0c1,.82,1.84,1.7,1.16,3.13-.55,1.14-1.56,1.24-2.66,1.23H12c-2.05,0-4.1.07-6.14,0-1.19,0-1.52.32-1.51,1.51,0,10.8,0,21.61,0,32.41,0,.43,0,.86,0,1.29.06,1.26-.09,2.41-1.49,2.91S.77,42.09,0,41.2Q0,21.11,0,1C0,.17.17,0,1,0Q21.12,0,41.2,0Z"/>
        <path class="cls-1" d="M146.43,41.2c-.79.93-1.6,1.8-3,1.22-1.24-.52-1.36-1.56-1.36-2.72q0-16.07,0-32.13c0-3.19,0-3.19-3.2-3.19h-32a3.19,3.19,0,0,1-2.19-.45c-1.3-1-1.1-2.53.55-3.91q20.09,0,40.18,0c.85,0,1,.17,1,1Q146.4,21.12,146.43,41.2Z"/>
        <path class="cls-1" d="M0,105.25c.78-.94,1.6-1.8,3-1.22,1.24.52,1.36,1.55,1.36,2.72q0,15.78,0,31.56c0,3.76,0,3.76,3.77,3.76H39.56a3.24,3.24,0,0,1,2.19.44c1.3,1,1.1,2.52-.55,3.91q-20.09,0-40.18,0c-.85,0-1-.17-1-1Q0,125.34,0,105.25Z"/>
        <path class="cls-1" d="M105.25,146.43c-1.41-1.19-1.74-2.15-1.1-3.26s1.55-1.1,2.6-1.1q14.28,0,28.56,0c1.76,0,3.53-.07,5.28,0,1.19.07,1.52-.32,1.51-1.51,0-10.8,0-21.61,0-32.42,0-.42,0-.85,0-1.28-.06-1.26.09-2.41,1.49-2.91s2.12.38,2.87,1.27q0,20.09,0,40.18c0,.85-.17,1-1,1Q125.34,146.4,105.25,146.43Z"/>
        <path class="cls-2" d="M110.09,47.77c0,4.27.06,8.55.08,12.83,0,4.09,0,8.18,0,12.27-.43,0-.85,0-1.28,0H37.56c-.43,0-.85,0-1.28,0,0-13.8.11-27.61-.06-41.42a6.74,6.74,0,0,1,6.9-6.95c13.85.16,27.71.07,41.56.07.47,0,.95,0,1.42.06,0,7.24,0,14.48,0,21.71,0,1.12.29,1.47,1.44,1.46C95,47.75,102.57,47.77,110.09,47.77ZM62,57.47H47.57c-1.7,0-2.65.76-2.65,2.09s.95,2.23,2.7,2.23H76.49c1.72,0,2.73-.88,2.7-2.27s-1.06-2.05-2.74-2.05Z"/>
        <path class="cls-2" d="M110.18,77.28c0,12.58-.12,25.16,0,37.73a6.75,6.75,0,0,1-6.92,6.94q-30.09-.21-60.17,0A6.75,6.75,0,0,1,36.22,115c.17-12.57.06-25.15.05-37.73a2.85,2.85,0,0,1,.29,0h73.33A2.85,2.85,0,0,1,110.18,77.28Zm-37,26.85H48.05a5.57,5.57,0,0,0-1.42.09,2.08,2.08,0,0,0-1.71,2.16,1.94,1.94,0,0,0,1.61,2.07,6.7,6.7,0,0,0,1.55.17H98.4a6.76,6.76,0,0,0,1.42-.13,2,2,0,0,0,1.71-2.14,2.1,2.1,0,0,0-1.87-2.17,6.17,6.17,0,0,0-1.29-.05Zm.14-15.52H58.92c-3.85,0-7.71,0-11.57,0-1.63,0-2.46.77-2.44,2.13s1,2.14,2.47,2.2c.24,0,.48,0,.72,0H98.38a6.67,6.67,0,0,0,1.42-.07,2.09,2.09,0,0,0,1.7-1.73,2.05,2.05,0,0,0-.68-2.07,2.88,2.88,0,0,0-2-.46Z"/>
        <path class="cls-3" d="M110.18,77.28a2.85,2.85,0,0,0-.29,0H36.56a2.85,2.85,0,0,0-.29,0l-15.83,0c-1.56,0-2.3-.57-2.45-1.81-.19-1.55.65-2.49,2.32-2.5,4.7,0,9.41,0,14.12,0,.61,0,1.23,0,1.85,0,.43,0,.85,0,1.28,0h71.33c.43,0,.85,0,1.28,0,5.28,0,10.56,0,15.83,0,1.22,0,2.18.34,2.44,1.67a2.08,2.08,0,0,1-2.29,2.65c-4.71,0-9.41,0-14.12,0C111.41,77.24,110.8,77.27,110.18,77.28Z"/>
        <path class="cls-4" d="M110.09,47.77c-7.52,0-15,0-22.57,0-1.15,0-1.44-.34-1.44-1.46,0-7.23,0-14.47,0-21.71.46,0,.67.31.94.57l22.54,21.9A5.89,5.89,0,0,1,110.09,47.77Z"/>
        <path class="cls-5" d="M62,57.47H76.45c1.68,0,2.71.79,2.74,2.05s-1,2.27-2.7,2.27H47.62c-1.75,0-2.71-.81-2.7-2.23s.95-2.09,2.65-2.09Z"/>
        <path class="cls-5" d="M73.21,104.13H98.37a6.17,6.17,0,0,1,1.29.05,2.1,2.1,0,0,1,1.87,2.17,2,2,0,0,1-1.71,2.14,6.76,6.76,0,0,1-1.42.13H48.08a6.7,6.7,0,0,1-1.55-.17,1.94,1.94,0,0,1-1.61-2.07,2.08,2.08,0,0,1,1.71-2.16,5.57,5.57,0,0,1,1.42-.09Z"/>
        <path class="cls-5" d="M73.35,88.61H98.78a2.88,2.88,0,0,1,2,.46,2.05,2.05,0,0,1,.68,2.07,2.09,2.09,0,0,1-1.7,1.73,6.67,6.67,0,0,1-1.42.07H48.1c-.24,0-.48,0-.72,0-1.52-.06-2.44-.87-2.47-2.2s.81-2.12,2.44-2.13c3.86,0,7.72,0,11.57,0Z"/>
      </g>
    </g>
  </g>
</svg>
