<svg xmlns="http://www.w3.org/2000/svg" viewBox="0 0 144.93 145.19">
  <defs>
    <style>
      .cls-1 {
        fill: #9ec8d2;
      }

      .cls-2 {
        fill: #efc319;
      }

      .cls-3 {
        fill: #fbd6ac;
      }

      .cls-4 {
        fill: #ebeeef;
      }

      .cls-5 {
        fill: #ebefef;
      }

      .cls-6 {
        fill: #415e6e;
      }

      .cls-7 {
        fill: #3f5c6c;
      }

      .cls-8 {
        fill: #84b5ca;
      }

      .cls-9 {
        fill: #c03c2d;
      }

      .cls-10 {
        fill: #e54d3d;
      }

      .cls-11 {
        fill: #e47f25;
      }

      .cls-12 {
        fill: #e47e25;
      }
    </style>
  </defs>
  <g id="Layer_2" data-name="Layer 2">
    <g id="Layer_1-2" data-name="Layer 1">
      <g>
        <path class="cls-1" d="M19.83,0H96.25C99.11,1.28,100,3.48,100,6.59c-.1,21.14,0,42.28,0,63.43l-21.34,0c-5.68,0-8.64,3-8.64,8.62q0,27.33,0,54.67c0,.61,0,1.22,0,1.84q-32.25,0-64.51,0c-3.32,0-5.36-2.14-5.37-5.46Q0,75.52,0,21.31c0-.5-.15-1,.25-1.49.48.42,1.06.3,1.62.3,4.05,0,8.1,0,12.15,0,3.87,0,6-2.19,6.06-6.07,0-4.05,0-8.11,0-12.17,0-.56.12-1.15-.31-1.62ZM76.91,35a12,12,0,0,0-3.49,0h-.7c.17-.42.59-.41.94-.53A12.71,12.71,0,0,0,79.07,31a12.48,12.48,0,1,0-13.26,3.28c.31.12.75.08.91.54L62.89,35l-.31.11a12.19,12.19,0,0,0-12.5,12.4c0,2.46,0,4.91,0,7.37a4.89,4.89,0,0,0,5.13,5.19c2.45,0,4.91,0,7.36,0h14.8c2.4,0,4.8,0,7.2,0A5.12,5.12,0,0,0,90,54.69q0-3.48,0-6.94c-.1-7.58-6.09-12.9-12.65-12.62ZM35,100.12H59.57c1.74,0,2.87-1,2.92-2.42s-1.12-2.54-2.9-2.61c-.24,0-.48,0-.71,0H11.07a6.44,6.44,0,0,0-1.81.18,2.3,2.3,0,0,0-1.7,2.06,2.35,2.35,0,0,0,1.16,2.4,3.47,3.47,0,0,0,2,.38Zm.17-12.5H58.89c2.36,0,3.55-.82,3.6-2.46s-1.24-2.58-3.64-2.58q-23.91,0-47.81,0a4.89,4.89,0,0,0-1.82.18,2.49,2.49,0,0,0,.31,4.79,6.61,6.61,0,0,0,1.41.06Zm0-17.55h-24a9.45,9.45,0,0,0-1.41.05,2.5,2.5,0,0,0,0,4.94,7.67,7.67,0,0,0,1.27.06H59.14a7,7,0,0,0,1.12-.05,2.56,2.56,0,0,0,2.23-2.53,2.53,2.53,0,0,0-2.2-2.42,9.45,9.45,0,0,0-1.41-.05ZM35,112.62q12.31,0,24.62,0c1.75,0,2.87-1,2.89-2.44s-1.11-2.44-2.83-2.49c-.28,0-.56,0-.85,0H11.12a11.07,11.07,0,0,0-1.41,0,2.32,2.32,0,0,0-2.13,2.53c.06,1.52,1.06,2.36,2.92,2.37ZM30,120.19H13.34c-1.08,0-2.17,0-3.25,0a2.46,2.46,0,1,0,0,4.92c.33,0,.66,0,1,0H48.85a13.47,13.47,0,0,0,1.42,0,2.36,2.36,0,0,0,2.15-2.66c-.11-1.44-1.09-2.23-2.87-2.24Zm-5-90.14c-4.85,0-9.7,0-14.55,0-1.85,0-3,1-3,2.46s1.15,2.56,2.93,2.57q14.55,0,29.1,0c1.84,0,2.93-1,2.91-2.57s-1.12-2.45-3-2.45C34.67,30,29.87,30.05,25.07,30.05ZM24.94,47.6h14a6.66,6.66,0,0,0,1.68-.15,2.29,2.29,0,0,0,1.84-2.38,2.36,2.36,0,0,0-2-2.43,5.52,5.52,0,0,0-1.41-.08H10.92a7.32,7.32,0,0,0-1.41.08,2.33,2.33,0,0,0-1.95,2.3,2.25,2.25,0,0,0,1.69,2.47,5.57,5.57,0,0,0,1.68.2Zm0,12.5h9.48c1.75,0,3.5,0,5.24,0a2.55,2.55,0,0,0,2.8-2.54c0-1.47-1.12-2.45-2.84-2.51h-29a4.43,4.43,0,0,0-1.26.14A2.47,2.47,0,0,0,9.4,60a6.13,6.13,0,0,0,1.55.12Z"/>
        <path class="cls-2" d="M69.9,135.2c0-.62,0-1.23,0-1.84Q70,106,70,78.69c0-5.67,3-8.61,8.64-8.62l21.34,0c.56,0,1.13,0,1.69,0q17.67,0,35.35,0A7.53,7.53,0,0,1,144,74c.37.63.62,1.33.93,2v63.52a9.37,9.37,0,0,1-6,5.67H75.59c-.17-.41-.6-.41-.92-.55A7.44,7.44,0,0,1,70,138.15C69.89,137.17,69.93,136.18,69.9,135.2Zm37.67,0c6.51,0,13,0,19.52,0a7.65,7.65,0,0,0,7.7-6.22,23.13,23.13,0,0,0,.13-6.49,2.42,2.42,0,0,0-2.71-2.3,2.35,2.35,0,0,0-2.27,2.58c-.05,1.41,0,2.83,0,4.25,0,2.17-.94,3.09-3.12,3.1H88.06c-2.14,0-3.08-.95-3.12-3.12,0-1.42,0-2.83,0-4.25a2.3,2.3,0,0,0-2.1-2.55,2.38,2.38,0,0,0-2.81,2,17.64,17.64,0,0,0,.39,7.85c1.07,3.3,3.92,5.14,7.65,5.15C94.56,135.26,101.07,135.24,107.57,135.24Zm-3-46.39.47.25v30a11.18,11.18,0,0,0,0,1.42,2.2,2.2,0,0,0,2.3,2c1.69,0,2.51-.8,2.51-2.66q0-14.43,0-28.88c0-.38,0-.76,0-1.14,0-.71.33-.86.85-.35.72.68,1.39,1.41,2.11,2.09a2.88,2.88,0,0,0,3.84.28c1.11-1.11,1-2.49-.34-3.85q-3.33-3.37-6.7-6.71c-1.52-1.52-2.85-1.53-4.38,0q-3.37,3.33-6.7,6.71c-1.36,1.37-1.44,2.66-.26,3.81a2.59,2.59,0,0,0,3.78-.28C102.93,90.69,103.72,89.75,104.54,88.85Z"/>
        <path class="cls-3" d="M62.89,35l3.83-.17c-.16-.46-.6-.42-.91-.54a12.48,12.48,0,0,1,2.53-24.16A12.45,12.45,0,0,1,79.07,31a12.71,12.71,0,0,1-5.41,3.46c-.35.12-.77.11-.94.53C69.44,35.15,66.17,35.15,62.89,35Z"/>
        <path class="cls-4" d="M77.35,35.13c6.56-.28,12.55,5,12.65,12.62q0,3.47,0,6.94a5.12,5.12,0,0,1-5.43,5.41c-2.4,0-4.8,0-7.2,0-1.19-5.05-2.7-10-4.09-15Q75.32,40.11,77.35,35.13Z"/>
        <path class="cls-5" d="M62.57,60.08c-2.45,0-4.91.06-7.36,0a4.89,4.89,0,0,1-5.13-5.19c0-2.46,0-4.91,0-7.37a12.19,12.19,0,0,1,12.5-12.4q2,5,4.07,10Z"/>
        <path class="cls-6" d="M35,100.12H10.77a3.47,3.47,0,0,1-2-.38,2.35,2.35,0,0,1-1.16-2.4,2.3,2.3,0,0,1,1.7-2.06,6.44,6.44,0,0,1,1.81-.18H58.88c.23,0,.47,0,.71,0,1.78.07,2.95,1.12,2.9,2.61s-1.18,2.41-2.92,2.42Z"/>
        <path class="cls-6" d="M35.13,87.62H10.94a6.61,6.61,0,0,1-1.41-.06,2.49,2.49,0,0,1-.31-4.79A4.89,4.89,0,0,1,11,82.58q23.91,0,47.81,0c2.4,0,3.68.91,3.64,2.58s-1.24,2.46-3.6,2.46Z"/>
        <path class="cls-6" d="M35.12,70.07H58.88a9.45,9.45,0,0,1,1.41.05,2.53,2.53,0,0,1,2.2,2.42,2.56,2.56,0,0,1-2.23,2.53,7,7,0,0,1-1.12.05H10.91a7.67,7.67,0,0,1-1.27-.06,2.5,2.5,0,0,1,0-4.94,9.45,9.45,0,0,1,1.41-.05Z"/>
        <path class="cls-7" d="M35,112.62H10.5c-1.86,0-2.86-.85-2.92-2.37a2.32,2.32,0,0,1,2.13-2.53,11.07,11.07,0,0,1,1.41,0H58.8c.29,0,.57,0,.85,0,1.72,0,2.85,1,2.83,2.49s-1.14,2.44-2.89,2.44Q47.28,112.64,35,112.62Z"/>
        <path class="cls-7" d="M30,120.19H49.55c1.78,0,2.76.8,2.87,2.24a2.36,2.36,0,0,1-2.15,2.66,13.47,13.47,0,0,1-1.42,0H11.1c-.33,0-.66,0-1,0a2.46,2.46,0,1,1,0-4.92c1.08,0,2.17,0,3.25,0Z"/>
        <path class="cls-8" d="M.28,19.82q7.89-8,15.79-15.92C17.3,2.67,18.56,1.47,19.8.26c.43.47.31,1.06.31,1.62,0,4.06,0,8.12,0,12.17,0,3.88-2.19,6.06-6.06,6.07-4.05,0-8.1,0-12.15,0C1.34,20.12.76,20.24.28,19.82Z"/>
        <path class="cls-6" d="M25.07,30.05c4.8,0,9.6,0,14.41,0,1.87,0,3,.93,3,2.45s-1.07,2.57-2.91,2.57q-14.55,0-29.1,0c-1.78,0-3-1.09-2.93-2.57s1.14-2.46,3-2.46C15.37,30,20.22,30.05,25.07,30.05Z"/>
        <path class="cls-6" d="M24.94,47.6h-14a5.57,5.57,0,0,1-1.68-.2,2.25,2.25,0,0,1-1.69-2.47,2.33,2.33,0,0,1,2-2.3,7.32,7.32,0,0,1,1.41-.08H39.08a5.52,5.52,0,0,1,1.41.08,2.36,2.36,0,0,1,2,2.43,2.29,2.29,0,0,1-1.84,2.38,6.66,6.66,0,0,1-1.68.15Z"/>
        <path class="cls-6" d="M25,60.1H11A6.13,6.13,0,0,1,9.4,60a2.47,2.47,0,0,1,0-4.78,4.43,4.43,0,0,1,1.26-.14h29c1.72.06,2.83,1,2.84,2.51a2.55,2.55,0,0,1-2.8,2.54c-1.74,0-3.49,0-5.24,0Z"/>
        <path class="cls-9" d="M62.57,60.08l4.08-15h6.63c1.39,5,2.9,9.95,4.09,15Z"/>
        <path class="cls-10" d="M73.28,45.09H66.65q-2-5-4.07-10l.31-.11c3.28.12,6.55.12,9.83,0h.7a17,17,0,0,0,3.49,0l.44.1Q75.33,40.11,73.28,45.09Z"/>
        <path class="cls-3" d="M76.91,35a17,17,0,0,1-3.49,0A12,12,0,0,1,76.91,35Z"/>
        <path class="cls-11" d="M107.57,135.24c-6.5,0-13,0-19.51,0-3.73,0-6.58-1.85-7.65-5.15a17.64,17.64,0,0,1-.39-7.85,2.38,2.38,0,0,1,2.81-2,2.3,2.3,0,0,1,2.1,2.55c0,1.42,0,2.83,0,4.25,0,2.17,1,3.11,3.12,3.12h38.75c2.18,0,3.1-.93,3.12-3.1,0-1.42,0-2.84,0-4.25a2.35,2.35,0,0,1,2.27-2.58,2.42,2.42,0,0,1,2.71,2.3,23.13,23.13,0,0,1-.13,6.49,7.65,7.65,0,0,1-7.7,6.22C120.59,135.26,114.08,135.24,107.57,135.24Z"/>
        <path class="cls-12" d="M104.54,88.85c-.82.9-1.61,1.84-2.47,2.69a2.59,2.59,0,0,1-3.78.28c-1.18-1.15-1.1-2.44.26-3.81q3.33-3.37,6.7-6.71c1.53-1.52,2.86-1.51,4.38,0q3.36,3.34,6.7,6.71c1.34,1.36,1.45,2.74.34,3.85a2.88,2.88,0,0,1-3.84-.28c-.72-.68-1.39-1.41-2.11-2.09-.52-.51-.82-.36-.85.35,0,.38,0,.76,0,1.14q0,14.45,0,28.88c0,1.86-.82,2.69-2.51,2.66a2.2,2.2,0,0,1-2.3-2,11.18,11.18,0,0,1,0-1.42v-30Z"/>
      </g>
    </g>
  </g>
</svg>
